<?xml version="1.0" encoding="utf-8"?>
<!-- Generator: Fusion 360, Shaper Origin Export Add-In, Version 1.7.0  -->
<svg xmlns="http://www.w3.org/2000/svg" xmlns:xlink="http://www.w3.org/1999/xlink" xmlns:shaper="http://www.shapertools.com/namespaces/shaper" shaper:fusionaddin="version:1.7.0" width="29cm" height="13.75cm" version="1.1" x="0cm" y="0cm" viewBox="0 0 29 13.75" enable-background="new 0 0 29 13.75" xml:space="preserve"><path d="M8.9854529,-7.0592898 A2.03,2.03 172.9259104 0,0 13.0145471,-7.0592898 L13.5,-7.0592898 13.5,-2.7259565 14.5,-2.7259565 14.5,1.1073769 14,1.1073769 14,4.4407102 12.9843135,4.4407102 A2,2 352.8192442 1,1 9.0156865,4.4407102 L-14,4.4407102 -14,1.1073769 -14.5,1.1073769 -14.5,-2.7259565 -13.5,-2.7259565 -13.5,-6.5592898 -13.5000004,-7.0592898 8.9854529,-7.0592898z" transform="matrix(1,0,0,-1,14.5,6.6907102)" fill="rgb(0,0,0)" shaper:cutDepth="0.5cm" stroke-linecap="round" stroke-linejoin="round" /><path d="M7.25,-6.0592898 L7.25,-6.5592898 -7.25,-6.5592898 -7.25,-6.0592898 7.25,-6.0592898z" transform="matrix(1,0,0,-1,14.5,6.6907102)" fill="rgb(255,255,255)" stroke="rgb(0,0,0)" stroke-width="0.0010cm" stroke-linecap="round" stroke-linejoin="round" shaper:cutDepth="0.5cm" /><path d="M9.6,4.6907102 a1.4,1.4 0 1,1 2.8,0 a1.4,1.4 0 1,1 -2.8,0z" transform="matrix(1,0,0,-1,14.5,6.6907102)" fill="rgb(255,255,255)" stroke="rgb(0,0,0)" stroke-width="0.0010cm" stroke-linecap="round" stroke-linejoin="round" shaper:cutDepth="0.5cm" /></svg>