<?xml version="1.0" encoding="utf-8"?>
<!-- Generator: Fusion 360, Shaper Origin Export Add-In, Version 1.7.0  -->
<svg xmlns="http://www.w3.org/2000/svg" xmlns:xlink="http://www.w3.org/1999/xlink" xmlns:shaper="http://www.shapertools.com/namespaces/shaper" shaper:fusionaddin="version:1.7.0" width="40.8cm" height="27.8cm" version="1.1" x="0cm" y="0cm" viewBox="0 0 40.8 27.8" enable-background="new 0 0 40.8 27.8" xml:space="preserve"><path d="M20.4,13.7 A0.2,0.2 0 0,1 20.2,13.9 L-20.2,13.9 A0.2,0.2 90 0,1 -20.4,13.7 L-20.4,-13.7 A0.2,0.2 180 0,1 -20.2,-13.9 L20.2,-13.9 A0.2,0.2 270 0,1 20.4,-13.7 L20.4,13.7z" transform="matrix(1,0,0,-1,20.4,13.9)" fill="rgb(0,0,0)" shaper:cutDepth="0.5cm" stroke-linecap="round" stroke-linejoin="round" /><path d="M-1.75,9.9 a1.75,1.75 0 1,1 3.5,0 a1.75,1.75 0 1,1 -3.5,0z" transform="matrix(1,0,0,-1,20.4,13.9)" fill="rgb(255,255,255)" stroke="rgb(0,0,0)" stroke-width="0.0010cm" stroke-linecap="round" stroke-linejoin="round" shaper:cutDepth="0.5cm" /></svg>