<?xml version="1.0" encoding="utf-8"?>
<!-- Generator: Fusion 360, Shaper Origin Export Add-In, Version 1.7.0  -->
<svg xmlns="http://www.w3.org/2000/svg" xmlns:xlink="http://www.w3.org/1999/xlink" xmlns:shaper="http://www.shapertools.com/namespaces/shaper" shaper:fusionaddin="version:1.7.0" width="42cm" height="16cm" version="1.1" x="0cm" y="0cm" viewBox="0 0 42 16" enable-background="new 0 0 42 16" xml:space="preserve"><path d="M-3.03,-3.94 L3.03,-3.94 6.075,-8 21,-8 21,-3.6666667 20,-3.6666667 20,-1.75 20.5,-1.75 20.5,0.1666667 21,0.1666667 21,3.5 6,3.5 6,4 3,8 -3,8 -6,4 -6,3.5 -21,3.5 -21,0.1666667 -20.5,0.1666667 -20.5,-1.75 -20,-1.75 -20,-3.6666667 -21,-3.6666667 -21,-8 -6.075,-8 -3.03,-3.94z" transform="matrix(1,0,0,-1,21,8)" fill="rgb(0,0,0)" stroke-linecap="round" stroke-linejoin="round" /><path d="M-12,-7 L-9,-7 -9,-7.5 -12,-7.5 -12,-7z" transform="matrix(1,0,0,-1,21,8)" fill="rgb(255,255,255)" stroke="rgb(0,0,0)" stroke-width="0.0010cm" stroke-linecap="round" stroke-linejoin="round" /><path d="M15,-7 L18,-7 18,-7.5 15,-7.5 15,-7z" transform="matrix(1,0,0,-1,21,8)" fill="rgb(255,255,255)" stroke="rgb(0,0,0)" stroke-width="0.0010cm" stroke-linecap="round" stroke-linejoin="round" /><path d="M9,-7 L12,-7 12,-7.5 9,-7.5 9,-7z" transform="matrix(1,0,0,-1,21,8)" fill="rgb(255,255,255)" stroke="rgb(0,0,0)" stroke-width="0.0010cm" stroke-linecap="round" stroke-linejoin="round" /><path d="M-18,-7 L-15,-7 -15,-7.5 -18,-7.5 -18,-7z" transform="matrix(1,0,0,-1,21,8)" fill="rgb(255,255,255)" stroke="rgb(0,0,0)" stroke-width="0.0010cm" stroke-linecap="round" stroke-linejoin="round" /></svg>