<?xml version="1.0" encoding="utf-8"?>
<!-- Generator: Fusion 360, Shaper Origin Export Add-In, Version 1.7.0  -->
<svg xmlns="http://www.w3.org/2000/svg" xmlns:xlink="http://www.w3.org/1999/xlink" xmlns:shaper="http://www.shapertools.com/namespaces/shaper" shaper:fusionaddin="version:1.7.0" width="42cm" height="6.25cm" version="1.1" x="0cm" y="0cm" viewBox="0 0 42 6.25" enable-background="new 0 0 42 6.25" xml:space="preserve"><path d="M-20,3.125 L-20,1.2083333 -21,1.2083333 -21,-3.125 21,-3.125 21,1.2083333 20,1.2083333 20,3.125 -20,3.125z" transform="matrix(1,0,0,-1,21,3.125)" fill="rgb(0,0,0)" stroke-linecap="round" stroke-linejoin="round" /><path d="M-15,-2.625 L-18,-2.625 -18,-2.125 -15,-2.125 -15,-2.625z" transform="matrix(1,0,0,-1,21,3.125)" fill="rgb(255,255,255)" stroke="rgb(0,0,0)" stroke-width="0.0010cm" stroke-linecap="round" stroke-linejoin="round" /><path d="M-9,-2.625 L-12,-2.625 -12,-2.125 -9,-2.125 -9,-2.625z" transform="matrix(1,0,0,-1,21,3.125)" fill="rgb(255,255,255)" stroke="rgb(0,0,0)" stroke-width="0.0010cm" stroke-linecap="round" stroke-linejoin="round" /><path d="M18,-2.625 L15,-2.625 15,-2.125 18,-2.125 18,-2.625z" transform="matrix(1,0,0,-1,21,3.125)" fill="rgb(255,255,255)" stroke="rgb(0,0,0)" stroke-width="0.0010cm" stroke-linecap="round" stroke-linejoin="round" /><path d="M12,-2.625 L9,-2.625 9,-2.125 12,-2.125 12,-2.625z" transform="matrix(1,0,0,-1,21,3.125)" fill="rgb(255,255,255)" stroke="rgb(0,0,0)" stroke-width="0.0010cm" stroke-linecap="round" stroke-linejoin="round" /></svg>