<?xml version="1.0" encoding="utf-8"?>
<!-- Generator: Fusion 360, Shaper Origin Export Add-In, Version 1.7.0  -->
<svg xmlns="http://www.w3.org/2000/svg" xmlns:xlink="http://www.w3.org/1999/xlink" xmlns:shaper="http://www.shapertools.com/namespaces/shaper" shaper:fusionaddin="version:1.7.0" width="29cm" height="6.25cm" version="1.1" x="0cm" y="0cm" viewBox="0 0 29 6.25" enable-background="new 0 0 29 6.25" xml:space="preserve"><path d="M13.5,3.125 L-13.5,3.125 -13.5,-1.2083333 -14.5,-1.2083333 -14.5,-3.125 14.5,-3.125 14.5,-1.2083333 13.5,-1.2083333 13.5,3.125z" transform="matrix(1,0,0,-1,14.5,3.125)" fill="rgb(0,0,0)" stroke-linecap="round" stroke-linejoin="round" /><path d="M-2.4166667,2.125 L-7.25,2.125 -7.25,2.625 -2.4166667,2.625 -2.4166667,2.125z" transform="matrix(1,0,0,-1,14.5,3.125)" fill="rgb(255,255,255)" stroke="rgb(0,0,0)" stroke-width="0.0010cm" stroke-linecap="round" stroke-linejoin="round" /><path d="M7.25,2.625 L7.25,2.125 2.4166667,2.125 2.4166667,2.625 7.25,2.625z" transform="matrix(1,0,0,-1,14.5,3.125)" fill="rgb(255,255,255)" stroke="rgb(0,0,0)" stroke-width="0.0010cm" stroke-linecap="round" stroke-linejoin="round" /></svg>