<?xml version="1.0" encoding="UTF-8" standalone="no"?>
<!-- Created with Inkscape (http://www.inkscape.org/) -->

<svg
   width="430mm"
   height="300mm"
   viewBox="0 0 430 300"
   version="1.1"
   id="svg5"
   inkscape:version="1.1.2 (0a00cf5339, 2022-02-04)"
   sodipodi:docname="planche_decoupe_N3-300-430_h120_ep5_v2.svg"
   xmlns:inkscape="http://www.inkscape.org/namespaces/inkscape"
   xmlns:sodipodi="http://sodipodi.sourceforge.net/DTD/sodipodi-0.dtd"
   xmlns="http://www.w3.org/2000/svg"
   xmlns:svg="http://www.w3.org/2000/svg">
  <sodipodi:namedview
     id="namedview7"
     pagecolor="#ffffff"
     bordercolor="#666666"
     borderopacity="1.0"
     inkscape:pageshadow="2"
     inkscape:pageopacity="0.0"
     inkscape:pagecheckerboard="0"
     inkscape:document-units="mm"
     showgrid="false"
     inkscape:zoom="0.3599046"
     inkscape:cx="379.26718"
     inkscape:cy="684.90373"
     inkscape:window-width="1870"
     inkscape:window-height="1016"
     inkscape:window-x="0"
     inkscape:window-y="0"
     inkscape:window-maximized="1"
     inkscape:current-layer="layer1" />
  <defs
     id="defs2">
    <rect
       x="174.33005"
       y="311.63858"
       width="284.87366"
       height="444.09555"
       id="rect3170" />
    <rect
       x="174.33005"
       y="311.63858"
       width="524.40112"
       height="444.09555"
       id="rect3170-3" />
    <rect
       x="174.33005"
       y="311.63858"
       width="284.87366"
       height="444.09555"
       id="rect3170-35" />
    <rect
       x="174.33005"
       y="311.63858"
       width="284.87366"
       height="444.09555"
       id="rect3170-35-2" />
  </defs>
  <g
     inkscape:label="Calque 1"
     inkscape:groupmode="layer"
     id="layer1">
    <rect
       style="fill:#ffffff;fill-opacity:1;stroke:#ffff00;stroke-width:0.999172;stroke-linecap:round;stroke-linejoin:round;stroke-miterlimit:4;stroke-dasharray:none;stroke-opacity:1"
       id="rect976"
       width="429.00082"
       height="299.00082"
       x="0.49958599"
       y="0.49958599"
       inkscape:export-filename="/media/guillaume/D-PC/Autoentreprise/amorce/git/amorce/docs/Boites/images/nomenclature_pieces3.png"
       inkscape:export-xdpi="94"
       inkscape:export-ydpi="94" />
    <path
       id="path10"
       style="fill:none;stroke:#ff0000;stroke-width:1;stroke-miterlimit:4;stroke-dasharray:none;stroke-opacity:1"
       d="m 35.499999,155.5 h 30 v 5 h -30 z m 270.000011,0 h 30 v 5 h -30 z m 60,0 h 30 v 5 h -30 z m -270.000003,0 h 30.000003 v 5 H 95.500007 Z m 89.700003,-30.6 h 60.6 l 30.45,40.6 h 149.25 v -43.33333 h -10 V 103 h 5 V 83.833333 h 5 V 50.500005 h -150 v -5 L 245.50001,5.5 h -60 l -30,40.000005 v 5 H 5.5 v 33.333328 h 5 V 103 h 5 v 19.16667 H 5.5 V 165.5 h 149.25001 z" />
    <path
       id="path10-3"
       d="m 35.5,278.92851 h 30 v 5 h -30 z m 270,0 h 30 v 5 h -30 z m 60,0 h 30 v 5 h -30 z m -270,0 h 30 v 5 h -30 z m 89.7,-30.6 h 60.6 l 30.45,40.6 H 425.5 v -43.33333 h -10 v -19.16667 h 5 v -19.16667 h 5 v -33.33333 h -150 v -5 l -30,-40 h -60 l -30,40 v 5 H 5.5 v 33.33333 h 5 v 19.16667 h 5 v 19.16667 h -10 v 43.33333 h 149.25 z"
       style="fill:none;stroke:#ff0000;stroke-width:1;stroke-miterlimit:4;stroke-dasharray:none;stroke-opacity:1" />
    <path
       id="path4"
       style="fill:none;stroke:#ff0000;stroke-width:1;stroke-miterlimit:4;stroke-dasharray:none;stroke-opacity:1"
       d="m 206.62222,269.07807 h -13.33333 v -5 h 13.33333 z m -20.56667,-2.5 a 13.9,13.9 0 1 0 27.8,0 13.9,13.9 0 1 0 -27.8,0 z" />
    <path
       id="path4-6"
       style="fill:none;stroke:#ff0000;stroke-width:1;stroke-miterlimit:4;stroke-dasharray:none;stroke-opacity:1"
       d="m 242.80141,269.07799 h -13.33333 v -5 h 13.33333 z m -20.56666,-2.5 a 13.9,13.9 0 1 0 27.8,0 13.9,13.9 0 1 0 -27.8,0 z" />
    <text
       xml:space="preserve"
       transform="matrix(0.26458333,0,0,0.26458333,-22.042052,-35.439926)"
       id="text3168"
       style="font-style:normal;font-variant:normal;font-weight:normal;font-stretch:normal;font-size:133.333px;line-height:201.496px;font-family:Montserrat;-inkscape-font-specification:Montserrat;letter-spacing:0px;word-spacing:0px;white-space:pre;shape-inside:url(#rect3170);fill:#ff00ff;fill-opacity:1;stroke:none"><tspan
         x="174.33008"
         y="451.59904"
         id="tspan20623"><tspan
           style="font-weight:bold;-inkscape-font-specification:'Montserrat Bold'"
           id="tspan20621">7A</tspan></tspan></text>
    <text
       xml:space="preserve"
       transform="matrix(0.26458333,0,0,0.26458333,-22.042052,89.861312)"
       id="text3168-6"
       style="font-style:normal;font-variant:normal;font-weight:normal;font-stretch:normal;font-size:133.333px;line-height:201.496px;font-family:Montserrat;-inkscape-font-specification:Montserrat;letter-spacing:0px;word-spacing:0px;white-space:pre;shape-inside:url(#rect3170-3);fill:#ff00ff;fill-opacity:1;stroke:none"><tspan
         x="174.33008"
         y="451.59904"
         id="tspan20627"><tspan
           style="font-weight:bold;-inkscape-font-specification:'Montserrat Bold'"
           id="tspan20625">7B</tspan></tspan></text>
    <text
       xml:space="preserve"
       transform="matrix(0.26458333,0,0,0.26458333,126.06144,180.99819)"
       id="text3168-62"
       style="font-style:normal;font-variant:normal;font-weight:normal;font-stretch:normal;font-size:96px;line-height:145.077px;font-family:Montserrat;-inkscape-font-specification:Montserrat;letter-spacing:0px;word-spacing:0px;white-space:pre;shape-inside:url(#rect3170-35);fill:#ff00ff;fill-opacity:1;stroke:none"><tspan
         x="174.33008"
         y="412.41015"
         id="tspan20631"><tspan
           style="font-weight:bold;-inkscape-font-specification:'Montserrat Bold'"
           id="tspan20629">8A</tspan></tspan></text>
    <text
       xml:space="preserve"
       transform="matrix(0.26458333,0,0,0.26458333,186.5543,181.30775)"
       id="text3168-62-7"
       style="font-style:normal;font-variant:normal;font-weight:normal;font-stretch:normal;font-size:96px;line-height:145.077px;font-family:Montserrat;-inkscape-font-specification:Montserrat;letter-spacing:0px;word-spacing:0px;white-space:pre;shape-inside:url(#rect3170-35-2);fill:#ff00ff;fill-opacity:1;stroke:none"><tspan
         x="174.33008"
         y="412.41015"
         id="tspan20635"><tspan
           style="font-weight:bold;-inkscape-font-specification:'Montserrat Bold'"
           id="tspan20633">8B</tspan></tspan></text>
  </g>
</svg>
