<?xml version="1.0" encoding="UTF-8" standalone="no"?>
<!-- Created with Inkscape (http://www.inkscape.org/) -->

<svg
   width="600mm"
   height="430mm"
   viewBox="0 0 600 430"
   version="1.1"
   id="svg5"
   inkscape:version="1.1.2 (0a00cf5339, 2022-02-04)"
   sodipodi:docname="planche_decoupe_N2-430-600_h120_ep5_v2.svg"
   inkscape:export-filename="/media/guillaume/D-PC/Autoentreprise/amorce/git/amorce/docs/Boites/images/nomenclature_pieces2.png"
   inkscape:export-xdpi="94"
   inkscape:export-ydpi="94"
   xmlns:inkscape="http://www.inkscape.org/namespaces/inkscape"
   xmlns:sodipodi="http://sodipodi.sourceforge.net/DTD/sodipodi-0.dtd"
   xmlns="http://www.w3.org/2000/svg"
   xmlns:svg="http://www.w3.org/2000/svg">
  <sodipodi:namedview
     id="namedview7"
     pagecolor="#ffffff"
     bordercolor="#666666"
     borderopacity="1.0"
     inkscape:pageshadow="2"
     inkscape:pageopacity="0.0"
     inkscape:pagecheckerboard="0"
     inkscape:document-units="mm"
     showgrid="false"
     inkscape:zoom="0.25449098"
     inkscape:cx="803.56482"
     inkscape:cy="709.25892"
     inkscape:window-width="1870"
     inkscape:window-height="1016"
     inkscape:window-x="0"
     inkscape:window-y="0"
     inkscape:window-maximized="1"
     inkscape:current-layer="layer1" />
  <defs
     id="defs2">
    <rect
       x="174.33005"
       y="311.63858"
       width="284.87366"
       height="444.09555"
       id="rect3170" />
    <rect
       x="174.33005"
       y="311.63858"
       width="284.87366"
       height="444.09555"
       id="rect3170-3" />
    <rect
       x="174.33005"
       y="311.63858"
       width="284.87366"
       height="444.09555"
       id="rect3170-35" />
  </defs>
  <g
     inkscape:label="Calque 1"
     inkscape:groupmode="layer"
     id="layer1">
    <rect
       style="fill:#fffaff;stroke:#ffff00;stroke-width:1;stroke-linecap:round;stroke-linejoin:round;stroke-miterlimit:4;stroke-dasharray:none;stroke-opacity:1;fill-opacity:1"
       id="rect976"
       width="598.99994"
       height="428.99991"
       x="0.50003999"
       y="0.50003999" />
    <path
       d="m 437.02663,415.5 h 62.5 v -20 h 10 v -30 h -10 v -30 h 10 v -30 h -10 v -180 h 10 v -30 h -10 v -30 h 10 v -30 h -10 v -20 h -62.5 V 5.5 H 388.6933 v 10 h -48.33334 v -10 h -48.33333 v 10 h -62.5 v 20 h -10 v 30 h 10 v 30 h -10 v 30 h 10 v 180 h -10 v 30 h 10 v 30 h -10 v 30 h 10 v 20 h 62.5 v 10 h 48.33333 v -10 h 48.33334 v 10 h 48.33333 z"
       fill="rgb(0,0,0)"
       stroke-linecap="round"
       stroke-linejoin="round"
       id="path2"
       style="fill:none;fill-opacity:1;stroke:#ff0000;stroke-width:1;stroke-miterlimit:4;stroke-dasharray:none;stroke-opacity:1" />
    <path
       d="M 215.6992,420.3 V 10.7 h -5.7576 V 5.5 h -10.46836 v 5.2 H 189.00488 V 5.5 H 4.5 V 154.7 H 8.66118 V 276.29999 H 4.5 V 425.5 h 184.50488 v -5.2 h 10.46836 v 5.2 h 10.46836 v -5.2 z"
       fill="rgb(0,0,0)"
       stroke-linecap="round"
       stroke-linejoin="round"
       id="path2-3"
       style="fill:none;stroke:#ff0000;stroke-width:1;stroke-miterlimit:4;stroke-dasharray:none;stroke-opacity:1" />
    <path
       id="path10"
       d="m 518.62904,335.5 v -30 h 5 v 30 z m 0,60 v -30 h 5 v 30 z m 0,-270 v -30 h 5 v 30 z m 0,-60 v -30 h 5 v 30 z m 57.5,-50 h -19.16667 v -10 h -43.33333 v 420 h 43.33333 v -10 h 19.16667 z"
       style="fill:none;stroke:#f70000;stroke-width:1;stroke-miterlimit:4;stroke-dasharray:none;stroke-opacity:1" />
    <text
       xml:space="preserve"
       transform="matrix(0.26458333,0,0,0.26458333,-25.400471,-69.791198)"
       id="text3168"
       style="font-style:normal;font-variant:normal;font-weight:normal;font-stretch:normal;font-size:133.333px;line-height:201.496px;font-family:Montserrat;-inkscape-font-specification:Montserrat;letter-spacing:0px;word-spacing:0px;white-space:pre;shape-inside:url(#rect3170);fill:#ff00ff;fill-opacity:1;stroke:none"><tspan
         x="174.33008"
         y="451.59904"
         id="tspan8359"><tspan
           style="font-weight:bold;-inkscape-font-specification:'Montserrat Bold'"
           id="tspan8357">5</tspan></tspan></text>
    <text
       xml:space="preserve"
       transform="matrix(0.26458333,0,0,0.26458333,216.97592,-69.791198)"
       id="text3168-6"
       style="font-style:normal;font-variant:normal;font-weight:normal;font-stretch:normal;font-size:133.333px;line-height:201.496px;font-family:Montserrat;-inkscape-font-specification:Montserrat;letter-spacing:0px;word-spacing:0px;white-space:pre;shape-inside:url(#rect3170-3);fill:#ff00ff;fill-opacity:1;stroke:none"><tspan
         x="174.33008"
         y="451.59904"
         id="tspan8363"><tspan
           style="font-weight:bold;-inkscape-font-specification:'Montserrat Bold'"
           id="tspan8361">6</tspan></tspan></text>
    <text
       xml:space="preserve"
       transform="matrix(0.26458333,0,0,0.26458333,480.47618,-69.791198)"
       id="text3168-62"
       style="font-style:normal;font-variant:normal;font-weight:normal;font-stretch:normal;font-size:133.333px;line-height:201.496px;font-family:Montserrat;-inkscape-font-specification:Montserrat;letter-spacing:0px;word-spacing:0px;white-space:pre;shape-inside:url(#rect3170-35);fill:#ff00ff;fill-opacity:1;stroke:none"><tspan
         x="174.33008"
         y="451.59904"
         id="tspan8367"><tspan
           style="font-weight:bold;-inkscape-font-specification:'Montserrat Bold'"
           id="tspan8365">3B</tspan></tspan></text>
  </g>
</svg>
