<?xml version="1.0" encoding="UTF-8" standalone="no"?>
<!-- Created with Inkscape (http://www.inkscape.org/) -->

<svg
   width="430mm"
   height="400mm"
   viewBox="0 0 430 400"
   version="1.1"
   id="svg5"
   inkscape:version="1.1.2 (0a00cf5339, 2022-02-04)"
   sodipodi:docname="planche_decoupe_N1-400-430_h120_ep5_v2.svg"
   inkscape:export-filename="/media/guillaume/D-PC/Autoentreprise/amorce/git/amorce/docs/Boites/images/nomenclature_pieces.png"
   inkscape:export-xdpi="94"
   inkscape:export-ydpi="94"
   xmlns:inkscape="http://www.inkscape.org/namespaces/inkscape"
   xmlns:sodipodi="http://sodipodi.sourceforge.net/DTD/sodipodi-0.dtd"
   xmlns="http://www.w3.org/2000/svg"
   xmlns:svg="http://www.w3.org/2000/svg">
  <sodipodi:namedview
     id="namedview7"
     pagecolor="#ffffff"
     bordercolor="#666666"
     borderopacity="1.0"
     inkscape:pageshadow="2"
     inkscape:pageopacity="0.0"
     inkscape:pagecheckerboard="0"
     inkscape:document-units="mm"
     showgrid="false"
     inkscape:zoom="0.3599046"
     inkscape:cx="1012.7684"
     inkscape:cy="704.35332"
     inkscape:window-width="1870"
     inkscape:window-height="1016"
     inkscape:window-x="0"
     inkscape:window-y="0"
     inkscape:window-maximized="1"
     inkscape:current-layer="layer1" />
  <defs
     id="defs2">
    <rect
       x="174.33005"
       y="311.63857"
       width="284.87367"
       height="444.09555"
       id="rect3170" />
    <rect
       x="174.33005"
       y="311.63858"
       width="284.87366"
       height="444.09555"
       id="rect3170-3" />
    <rect
       x="174.33005"
       y="311.63858"
       width="284.87366"
       height="444.09555"
       id="rect3170-5" />
    <rect
       x="174.33005"
       y="311.63858"
       width="284.87366"
       height="444.09555"
       id="rect3170-2" />
    <rect
       x="174.33005"
       y="311.63858"
       width="284.87366"
       height="444.09555"
       id="rect3170-2-9" />
    <rect
       x="174.33005"
       y="311.63858"
       width="284.87366"
       height="444.09555"
       id="rect3170-36" />
    <rect
       x="174.33005"
       y="311.63858"
       width="284.87366"
       height="444.09555"
       id="rect3170-29" />
  </defs>
  <g
     inkscape:label="Calque 1"
     inkscape:groupmode="layer"
     id="layer1">
    <rect
       style="fill:#ffffff;fill-opacity:1;stroke:#ffff00;stroke-width:0.848851;stroke-linecap:round;stroke-linejoin:round;stroke-miterlimit:4;stroke-dasharray:none;stroke-opacity:1"
       id="rect976"
       width="429.15115"
       height="399.15115"
       x="0.42442551"
       y="0.42442551" />
    <g
       id="g1196"
       style="fill:none;stroke:#f30000;stroke-width:0.1;stroke-miterlimit:4;stroke-dasharray:none;stroke-opacity:1"
       transform="matrix(0.0913068,9.9995832,-9.9995832,0.0913068,141.90296,3.6225437)">
      <path
         d="m -14.5,-2.7259565 h 1 V -7.0592898 H 8.9854529 a 2.03,2.03 172.92591 0 0 4.0290941,0 H 13.5 v 4.3333333 h 1 V 1.1073769 H 14 v 3.3333333 h -1.015686 a 2,2 -7.1807558 1 1 -3.9686275,0 H -14 V 1.1073769 h -0.5 z"
         transform="matrix(1,0,0,-1,14.5,6.6907102)"
         fill="rgb(0,0,0)"
         stroke-linecap="round"
         stroke-linejoin="round"
         id="path2"
         style="fill:none;stroke:#f30000;stroke-width:0.1;stroke-miterlimit:4;stroke-dasharray:none;stroke-opacity:1" />
      <path
         d="m 2.4166667,-6.5592898 v 0.5 H 7.25 v -0.5 z"
         transform="matrix(1,0,0,-1,14.5,6.6907102)"
         fill="rgb(255,255,255)"
         stroke="rgb(0,0,0)"
         stroke-width="0.0010cm"
         stroke-linecap="round"
         stroke-linejoin="round"
         id="path4"
         style="fill:none;stroke:#f30000;stroke-width:0.1;stroke-miterlimit:4;stroke-dasharray:none;stroke-opacity:1" />
      <path
         d="m -2.4166667,-6.0592898 v -0.5 H -7.25 v 0.5 z"
         transform="matrix(1,0,0,-1,14.5,6.6907102)"
         fill="rgb(255,255,255)"
         stroke="rgb(0,0,0)"
         stroke-width="0.0010cm"
         stroke-linecap="round"
         stroke-linejoin="round"
         id="path6"
         style="fill:none;stroke:#f30000;stroke-width:0.1;stroke-miterlimit:4;stroke-dasharray:none;stroke-opacity:1" />
      <path
         d="m 9.6,4.6907102 a 1.4,1.4 0 1 1 2.8,0 1.4,1.4 0 1 1 -2.8,0 z"
         transform="matrix(1,0,0,-1,14.5,6.6907102)"
         fill="rgb(255,255,255)"
         stroke="rgb(0,0,0)"
         stroke-width="0.0010cm"
         stroke-linecap="round"
         stroke-linejoin="round"
         id="path8"
         style="fill:none;stroke:#f30000;stroke-width:0.1;stroke-miterlimit:4;stroke-dasharray:none;stroke-opacity:1" />
    </g>
    <g
       id="g943"
       transform="matrix(0,-10,10,0,124.42624,294.76462)">
      <path
         d="m -14.5,-2.7259565 h 1 V -7.0592898 H 8.9854529 a 2.03,2.03 172.92591 0 0 4.0290941,0 H 13.5 v 4.3333333 h 1 V 1.1073769 H 14 v 3.3333333 h -1.015686 a 2,2 -7.1807558 1 1 -3.9686275,0 H -14 V 1.1073769 h -0.5 z"
         transform="matrix(1,0,0,-1,14.5,6.6907102)"
         fill="rgb(0,0,0)"
         stroke-linecap="round"
         stroke-linejoin="round"
         id="path2-3"
         style="fill:none;stroke:#ff0000;stroke-width:0.1;stroke-miterlimit:4;stroke-dasharray:none;stroke-opacity:1" />
      <path
         d="m 2.4166667,-6.5592898 v 0.5 H 7.25 v -0.5 z"
         transform="matrix(1,0,0,-1,14.5,6.6907102)"
         fill="rgb(255,255,255)"
         stroke="rgb(0,0,0)"
         stroke-width="0.0010cm"
         stroke-linecap="round"
         stroke-linejoin="round"
         id="path4-6"
         style="fill:none;stroke:#ff0000;stroke-width:0.1;stroke-miterlimit:4;stroke-dasharray:none;stroke-opacity:1" />
      <path
         d="m -2.4166667,-6.0592898 v -0.5 H -7.25 v 0.5 z"
         transform="matrix(1,0,0,-1,14.5,6.6907102)"
         fill="rgb(255,255,255)"
         stroke="rgb(0,0,0)"
         stroke-width="0.0010cm"
         stroke-linecap="round"
         stroke-linejoin="round"
         id="path6-7"
         style="fill:none;stroke:#ff0000;stroke-width:0.1;stroke-miterlimit:4;stroke-dasharray:none;stroke-opacity:1" />
      <path
         d="m 9.6,4.6907102 a 1.4,1.4 0 1 1 2.8,0 1.4,1.4 0 1 1 -2.8,0 z"
         transform="matrix(1,0,0,-1,14.5,6.6907102)"
         fill="rgb(255,255,255)"
         stroke="rgb(0,0,0)"
         stroke-width="0.0010cm"
         stroke-linecap="round"
         stroke-linejoin="round"
         id="path8-5"
         style="fill:none;stroke:#ff0000;stroke-width:0.1;stroke-miterlimit:4;stroke-dasharray:none;stroke-opacity:1" />
    </g>
    <path
       id="path6-3"
       d="m 323.0088,221.632 h -5 v -48.33333 h 5 z m -5,-96.66667 V 76.631997 h 5 v 48.333333 z m 10,159.16667 v -270 h -43.33334 v -10 H 265.5088 v 290 h 19.16666 v -10 z"
       style="fill:none;stroke:#e80000;stroke-width:1;stroke-miterlimit:4;stroke-dasharray:none;stroke-opacity:1" />
    <path
       id="path6-5"
       style="fill:none;stroke:#ff0000;stroke-width:1;stroke-miterlimit:4;stroke-dasharray:none;stroke-opacity:1"
       d="m 384.79941,76.632 h 5 v 48.33333 h -5 z m 0,145 v -48.33333 h 5 V 221.632 Z m 10,62.5 v -270 h -43.33332 v -10 h -19.16667 v 290 h 19.16667 v -10 z" />
    <path
       id="path10"
       style="fill:none;stroke:#ff0000;stroke-width:1;stroke-miterlimit:4;stroke-dasharray:none;stroke-opacity:1"
       d="m 334.50001,355.50177 h -30 v -5 h 30 z m 59.99999,0 h -29.99999 v -5 H 394.5 Z m -270,0 H 94.500001 v -5 H 124.5 Z m -59.999999,0 h -30 v -5 h 30 z m -50,-57.5 v 19.16667 H 4.5 v 43.33333 h 420 v -43.33333 h -10 v -19.16667 z" />
    <path
       d="M 9.4081631,383.99536 H 419.00817 v -6 h 5.2 v -13.75 h -149.2 v 5.3 h -121.6 v -5.3 H 4.2081631 v 13.75 h 5.2 z"
       fill="rgb(0,0,0)"
       stroke-linecap="round"
       stroke-linejoin="round"
       id="path2-6"
       style="fill:none;stroke:#ff0000;stroke-width:1;stroke-miterlimit:4;stroke-dasharray:none;stroke-opacity:1" />
    <text
       xml:space="preserve"
       transform="matrix(0.26458333,0,0,0.26458333,-32.787337,-69.76301)"
       id="text3168"
       style="font-style:normal;font-variant:normal;font-weight:normal;font-stretch:normal;font-size:133.333px;line-height:201.496px;font-family:Montserrat;-inkscape-font-specification:Montserrat;letter-spacing:0px;word-spacing:0px;white-space:pre;shape-inside:url(#rect3170);fill:#ff00ff;fill-opacity:1;stroke:none"><tspan
         x="174.33008"
         y="451.59904"
         id="tspan34992"><tspan
           style="font-weight:bold;-inkscape-font-specification:'Montserrat Bold'"
           id="tspan34990">1A</tspan></tspan></text>
    <text
       xml:space="preserve"
       transform="matrix(0.26458333,0,0,0.26458333,124.12523,-69.763198)"
       id="text3168-9"
       style="font-style:normal;font-variant:normal;font-weight:normal;font-stretch:normal;font-size:133.333px;line-height:201.496px;font-family:Montserrat;-inkscape-font-specification:Montserrat;letter-spacing:0px;word-spacing:0px;white-space:pre;shape-inside:url(#rect3170-5);fill:#ff00ff;fill-opacity:1;stroke:none"><tspan
         x="174.33008"
         y="451.59904"
         id="tspan34996"><tspan
           style="font-weight:bold;-inkscape-font-specification:'Montserrat Bold'"
           id="tspan34994">1B</tspan></tspan></text>
    <text
       xml:space="preserve"
       transform="matrix(0.26458333,0,0,0.26458333,227.86798,-69.339866)"
       id="text3168-8"
       style="font-style:normal;font-variant:normal;font-weight:normal;font-stretch:normal;font-size:133.333px;line-height:201.496px;font-family:Montserrat;-inkscape-font-specification:Montserrat;letter-spacing:0px;word-spacing:0px;white-space:pre;shape-inside:url(#rect3170-2);fill:#ff00ff;fill-opacity:1;stroke:none"><tspan
         x="174.33008"
         y="451.59904"
         id="tspan35000"><tspan
           style="font-weight:bold;-inkscape-font-specification:'Montserrat Bold'"
           id="tspan34998">2A</tspan></tspan></text>
    <text
       xml:space="preserve"
       transform="matrix(0.26458333,0,0,0.26458333,292.48724,-69.339866)"
       id="text3168-8-7"
       style="font-style:normal;font-variant:normal;font-weight:normal;font-stretch:normal;font-size:133.333px;line-height:201.496px;font-family:Montserrat;-inkscape-font-specification:Montserrat;letter-spacing:0px;word-spacing:0px;white-space:pre;shape-inside:url(#rect3170-2-9);fill:#ff00ff;fill-opacity:1;stroke:none"><tspan
         x="174.33008"
         y="451.59904"
         id="tspan35004"><tspan
           style="font-weight:bold;-inkscape-font-specification:'Montserrat Bold'"
           id="tspan35002">2B</tspan></tspan></text>
    <text
       xml:space="preserve"
       transform="matrix(0.26458333,0,0,0.26458333,-24.423477,212.71464)"
       id="text3168-1"
       style="font-style:normal;font-variant:normal;font-weight:normal;font-stretch:normal;font-size:133.333px;line-height:201.496px;font-family:Montserrat;-inkscape-font-specification:Montserrat;letter-spacing:0px;word-spacing:0px;white-space:pre;shape-inside:url(#rect3170-36);fill:#ff00ff;fill-opacity:1;stroke:none"><tspan
         x="174.33008"
         y="451.59904"
         id="tspan35008"><tspan
           style="font-weight:bold;-inkscape-font-specification:'Montserrat Bold'"
           id="tspan35006">3A</tspan></tspan></text>
    <text
       xml:space="preserve"
       transform="matrix(0.26458333,0,0,0.26458333,-27.785627,273.6987)"
       id="text3168-3"
       style="font-style:normal;font-variant:normal;font-weight:normal;font-stretch:normal;font-size:133.333px;line-height:201.496px;font-family:Montserrat;-inkscape-font-specification:Montserrat;letter-spacing:0px;word-spacing:0px;white-space:pre;shape-inside:url(#rect3170-29);fill:#ff00ff;fill-opacity:1;stroke:none"><tspan
         x="174.33008"
         y="451.59904"
         id="tspan35012"><tspan
           style="font-weight:bold;-inkscape-font-specification:'Montserrat Bold'"
           id="tspan35010">4</tspan></tspan></text>
  </g>
</svg>
