<?xml version="1.0" encoding="UTF-8" standalone="no"?>
<!-- Created with Inkscape (http://www.inkscape.org/) -->

<svg
   width="210mm"
   height="297mm"
   viewBox="0 0 210 297"
   version="1.1"
   id="svg5"
   inkscape:version="1.1.2 (0a00cf5339, 2022-02-04)"
   sodipodi:docname="planche_decoupe_h120_v1.svg"
   xmlns:inkscape="http://www.inkscape.org/namespaces/inkscape"
   xmlns:sodipodi="http://sodipodi.sourceforge.net/DTD/sodipodi-0.dtd"
   xmlns="http://www.w3.org/2000/svg"
   xmlns:svg="http://www.w3.org/2000/svg"
   xmlns:shaper="http://www.shapertools.com/namespaces/shaper">
  <sodipodi:namedview
     id="namedview7"
     pagecolor="#ffffff"
     bordercolor="#666666"
     borderopacity="1.0"
     inkscape:pageshadow="2"
     inkscape:pageopacity="0.0"
     inkscape:pagecheckerboard="0"
     inkscape:document-units="mm"
     showgrid="false"
     inkscape:zoom="0.55"
     inkscape:cx="-431.81818"
     inkscape:cy="1799.0909"
     inkscape:window-width="1870"
     inkscape:window-height="1016"
     inkscape:window-x="0"
     inkscape:window-y="0"
     inkscape:window-maximized="1"
     inkscape:current-layer="layer1" />
  <defs
     id="defs2" />
  <g
     inkscape:label="Calque 1"
     inkscape:groupmode="layer"
     id="layer1">
    <path
       id="path9"
       style="fill:none;stroke:#ff0000;stroke-width:1;stroke-miterlimit:4;stroke-dasharray:none;stroke-opacity:1"
       d="m -123.77196,-65.509967 v 43.333272 h 9.99991 v 19.1667878 h -4.99969 V 16.156365 h -5.00022 V 49.48973 H 26.228187 v 5.000212 L 56.227906,94.490084 H 116.22838 L 146.2281,54.489942 V 49.48973 H 296.22825 V 16.156365 h -5.00022 V -3.0099072 h -4.9997 V -22.176695 h 9.99992 V -65.509967 H 146.97792 L 116.5281,-24.909861 H 55.928183 L 25.478362,-65.509967 Z m 30.000236,4.999696 h 29.99972 v 5.000209 h -29.99972 z m 59.999956,0 h 29.9997198 v 5.000209 H -33.771768 Z m 210.000098,0 h 29.99972 v 5.000209 h -29.99972 z m 59.99996,0 H 266.228 v 5.000209 h -29.99971 z" />
    <path
       id="path1011"
       style="fill:none;stroke:#ff0000;stroke-width:1;stroke-miterlimit:4;stroke-dasharray:none;stroke-opacity:1"
       d="m -123.44853,57.12548 -0.24958,43.33276 9.99937,0.0574 -0.11007,19.16626 -5.0002,-0.0289 -0.11007,19.16678 -5.00022,-0.0289 -0.19172,33.33284 149.997056,0.86402 -0.0284,5.00023 29.768719,40.17222 59.998905,0.3452 30.23021,-39.82598 0.0289,-5.00023 149.99756,0.86455 0.19172,-33.33284 -4.9997,-0.029 0.11059,-19.16625 -5.00021,-0.029 0.11059,-19.16628 9.9999,0.0574 0.2496,-43.332231 L 147.29672,58.685633 116.61333,99.10952 56.014455,98.76019 25.798716,57.985416 Z m 29.970776,5.17281 29.999209,0.172601 -0.029,5.000212 -29.999199,-0.173116 z m 59.998939,0.345718 29.9991998,0.172598 -0.0284,5.000213 -29.9997298,-0.173117 z m 209.996475,1.209744 29.9992,0.173117 -0.0284,4.999691 -29.99971,-0.1726 z m 59.99892,0.345715 29.9992,0.173117 -0.0284,4.999696 -29.99972,-0.1726 z" />
    <path
       id="path1177"
       style="fill:none;stroke:#ff0000;stroke-width:1;stroke-miterlimit:4;stroke-dasharray:none;stroke-opacity:1"
       d="m -123.2002,223.65818 v 43.33327 h 9.9999 v 19.16678 h 399.99988 v -19.16678 h 10.00041 v -43.33327 z m 29.999716,5.00021 h 30.000236 v 4.9997 h -30.000236 z m 60.000472,0 h 29.9997188 v 4.9997 H -33.200012 Z m 209.999582,0 h 30.00024 v 4.9997 h -30.00024 z m 59.99995,0 h 30.00024 v 4.9997 h -30.00024 z" />
    <path
       id="path1343"
       style="fill:none;stroke:#ff0000;stroke-width:1;stroke-miterlimit:4;stroke-dasharray:none;stroke-opacity:1"
       d="m 116.76896,588.45924 v -19.16678 h 9.9999 v -43.33328 h -420.00021 v 43.33328 h 9.9999 v 19.16678 z M 96.768559,535.95908 H 66.76886 v -5.0002 h 29.999699 z m -59.999896,0 H 6.7689627 v -5.0002 H 36.768663 Z m -210.000113,0 h -29.99972 v -5.0002 h 29.99972 z m -59.99995,0 h -29.99972 v -5.0002 h 29.99972 z" />
    <path
       id="path1677"
       style="fill:none;stroke:#ff0000;stroke-width:1;stroke-miterlimit:4;stroke-dasharray:none;stroke-opacity:1"
       d="m 287.46394,429.2034 h -9.9999 v -38.33305 -5.00023 H 52.609543 a 20.3,20.3 0 0 1 -40.29109,0 H 7.4639829 v 43.33328 h -9.9999 v 38.33357 h 5.0002 v 33.33337 H 12.620773 a 20,20 0 1 0 39.68646,0 H 282.46425 v -33.33337 h 4.99969 z m -72.49997,-38.33305 v 4.99967 H 69.964043 v -4.99967 z M 46.464183,503.36994 a 14,14 0 0 1 -27.99985,0 14,14 0 0 1 27.99985,0 z" />
    <path
       id="path1734"
       style="fill:none;stroke:#ff0000;stroke-width:1;stroke-miterlimit:4;stroke-dasharray:none;stroke-opacity:1"
       d="m -295.68923,467.53698 h 4.9997 v 33.33337 h 230.157016 a 20,20 0 1 0 39.68646,0 h 10.15649 v -33.33337 h 5.00021 V 429.2034 h -9.99991 v -43.33327 h -4.85448 a 20.3,20.3 0 0 1 -40.29108,0 H -285.68932 v 5.00023 38.33304 h -9.99991 z m 72.49996,-71.66692 v -4.9997 h 144.999946 v 4.9997 z m 168.499806,107.50039 a 14,14 0 0 1 27.99984,0 14,14 0 0 1 -27.99984,0 z" />
    <rect
       style="fill:none;stroke:#ff0000;stroke-width:1;stroke-linecap:round;stroke-linejoin:round;stroke-miterlimit:4;stroke-dasharray:none;stroke-opacity:1"
       id="rect1813"
       width="599.284"
       height="399.28384"
       x="-297.55777"
       y="-70.370644"
       ry="0" />
    <rect
       style="fill:none;stroke:#ff0000;stroke-width:1;stroke-linecap:round;stroke-linejoin:round;stroke-miterlimit:4;stroke-dasharray:none;stroke-opacity:1"
       id="rect1813-7"
       width="599.46912"
       height="219.46896"
       x="-298.12601"
       y="383.08551"
       ry="0" />
    <rect
       style="fill:none;stroke:#ff0000;stroke-width:1;stroke-linecap:round;stroke-linejoin:round;stroke-miterlimit:4;stroke-dasharray:none;stroke-opacity:1"
       id="rect1813-7-5"
       width="599.25763"
       height="429.25748"
       x="-300.18454"
       y="627.7782"
       ry="0" />
    <path
       id="path1907"
       style="stroke-width:3.77952761;fill:none;stroke:#ff0000;stroke-opacity:1;stroke-miterlimit:4;stroke-dasharray:none"
       d="M -594.77148 -240.58594 L -594.77148 -202.79102 L -739.6543 -202.79102 L -758.55078 -202.79102 L -758.55078 817.68164 L -594.77148 817.68164 L -594.77148 855.47656 L -522.33008 855.47656 L -522.33008 -240.58594 L -594.77148 -240.58594 z M -739.6543 33.429688 L -720.75586 33.429688 L -720.75586 581.46094 L -739.6543 581.46094 L -739.6543 33.429688 z "
       transform="scale(0.26458333)" />
    <path
       id="path1921"
       style="stroke-width:3.77952761;fill:none;stroke-miterlimit:4;stroke-dasharray:none;stroke:#ff0000;stroke-opacity:1"
       d="M -1022.0371 -239.23633 L -1022.0371 856.82617 L -949.5957 856.82617 L -949.5957 819.03125 L -785.81641 819.03125 L -785.81641 -201.44141 L -804.71289 -201.44141 L -949.5957 -201.44141 L -949.5957 -239.23633 L -1022.0371 -239.23633 z M -823.61133 34.779297 L -804.71289 34.779297 L -804.71289 582.81055 L -823.61133 582.81055 L -823.61133 34.779297 z "
       transform="scale(0.26458333)" />
    <path
       id="path1935"
       style="stroke-width:3.77952761;fill:none;stroke:#ff0000;stroke-opacity:1;stroke-miterlimit:4;stroke-dasharray:none"
       d="M -29.214844 698.7207 A 52.535433 52.535433 0 0 0 -79.738281 751.2168 A 52.535433 52.535433 0 0 0 25.333984 751.2168 A 52.535433 52.535433 0 0 0 -29.214844 698.7207 z M -53.658203 741.76758 L -0.74609375 741.76758 L -0.74609375 760.66602 L -53.658203 760.66602 L -53.658203 741.76758 z "
       transform="scale(0.26458333)" />
    <path
       id="path1935-3"
       style="fill:none;stroke:#ff0000;stroke-width:1;stroke-miterlimit:4;stroke-dasharray:none;stroke-opacity:1"
       d="m -40.729274,184.99226 a 13.9,13.9 0 0 0 -13.367659,13.88959 13.900185,13.900185 0 0 0 27.800369,0 13.9,13.9 0 0 0 -14.43271,-13.88959 z m -6.467306,11.38948 h 13.999662 v 5.00021 H -47.19658 Z" />
    <path
       id="path1935-3-6"
       style="fill:none;stroke:#ff0000;stroke-width:1;stroke-miterlimit:4;stroke-dasharray:none;stroke-opacity:1"
       d="m -75.228461,185.38591 a 13.9,13.9 0 0 0 -13.367659,13.88959 13.900185,13.900185 0 0 0 27.800369,0 13.9,13.9 0 0 0 -14.43271,-13.88959 z m -6.467306,11.38948 h 13.999662 v 5.00021 h -13.999662 z" />
    <path
       d="m -296.17161,780.14264 h 5.5 v 121.60003 h -5.5 v 149.19993 h 234.000383 v -5.4 h 12.9997 v 5.4 h 14.0003 v -5.4 h 8 V 636.34266 h -8 v -5.4 h -14.0003 v 5.4 h -12.9997 v -5.4 H -296.17161 Z"
       fill="#000000"
       shaper:cutDepth="0.5cm"
       stroke-linecap="round"
       stroke-linejoin="round"
       id="path1949"
       style="fill:none;stroke:#ff0000;stroke-width:1;stroke-miterlimit:4;stroke-dasharray:none;stroke-opacity:1" />
    <path
       d="m -14.808643,750.94247 h -10 v -30 h 10 v -30 h -10 v -30 h 10 v -20 h 62.5 v -10 H 192.69136 v 10 h 62.5 v 20 h 10 v 30 h -10 v 30 h 10 v 30 h -10 v 180 h 10 v 30 h -10 v 30 h 10 v 30.00003 h -10 v 19.9999 h -62.5 v 10 H 47.691357 v -10 h -62.5 v -19.9999 h -10 v -30.00003 h 10 v -30 h -10 v -30 h 10 z"
       fill="#000000"
       shaper:cutDepth="0.5cm"
       stroke-linecap="round"
       stroke-linejoin="round"
       id="path837"
       style="fill:none;stroke:#ff0000;stroke-width:1;stroke-miterlimit:4;stroke-dasharray:none;stroke-opacity:1" />
    <path
       d="m 274.15091,630.94247 h 14.5 v 149.2 h -5.5 v 121.6 h 5.5 v 149.19993 h -14.5 v -5.4 h -6 V 636.34247 h 6 z"
       fill="#000000"
       shaper:cutDepth="0.5cm"
       stroke-linecap="round"
       stroke-linejoin="round"
       id="path962"
       style="fill:none;stroke:#ff0000;stroke-width:1;stroke-miterlimit:4;stroke-dasharray:none;stroke-opacity:1" />
  </g>
</svg>
