<?xml version="1.0" encoding="utf-8"?>
<!-- Generator: Fusion 360, Shaper Origin Export Add-In, Version 1.6.2  -->
<svg xmlns="http://www.w3.org/2000/svg" xmlns:xlink="http://www.w3.org/1999/xlink" xmlns:shaper="http://www.shapertools.com/namespaces/shaper" shaper:fusionaddin="version:1.6.2" width="14.9cm" height="12.5cm" version="1.1" x="0cm" y="0cm" viewBox="0 0 14.9 12.5" enable-background="new 0 0 14.9 12.5" xml:space="preserve"><path d="M14.9,7.6 A0.9,0.9 0 0,1 14,8.5 L13.8,8.5 A0.9,0.9 270 0,0 12.9,9.4 L12.9,12.5 9.94,12.5 9.94,12.2 9.86,12.2 9.86,12.5 9.48,12.5 9.48,12.35 9.42,12.35 9.42,12.5 9.04,12.5 9.04,12.2 8.96,12.2 8.96,12.5 8.58,12.5 8.58,12.35 8.52,12.35 8.52,12.5 8.14,12.5 8.14,12.2 8.06,12.2 8.06,12.5 7.68,12.5 7.68,12.35 7.62,12.35 7.62,12.5 7.24,12.5 7.24,12.2 7.16,12.2 7.16,12.5 6.78,12.5 6.78,12.35 6.72,12.35 6.72,12.5 6.34,12.5 6.34,12.2 6.26,12.2 6.26,12.5 5.88,12.5 5.88,12.35 5.82,12.35 5.82,12.5 5.44,12.5 5.44,12.2 5.36,12.2 5.36,12.5 4.98,12.5 4.98,12.35 4.92,12.35 4.92,12.5 4.54,12.5 4.54,12.2 4.46,12.2 4.46,12.5 4.08,12.5 4.08,12.35 4.02,12.35 4.02,12.5 3.64,12.5 3.64,12.2 3.56,12.2 3.56,12.5 3.18,12.5 3.18,12.35 3.12,12.35 3.12,12.5 2.74,12.5 2.74,12.2 2.66,12.2 2.66,12.5 2.28,12.5 2.28,12.35 2.22,12.35 2.22,12.5 1.84,12.5 1.84,12.2 1.76,12.2 1.76,12.5 1.38,12.5 1.38,12.35 1.32,12.35 1.32,12.5 0.94,12.5 0.94,12.2 0.86,12.2 0.86,12.5 0.48,12.5 0.48,12.35 0.42,12.35 0.42,12.5 0,12.5 0,12.08 0.15,12.08 0.15,12.02 0,12.02 0,11.64 0.3,11.64 0.3,11.56 0,11.56 0,11.18 0.15,11.18 0.15,11.12 0,11.12 0,10.74 0.3,10.74 0.3,10.66 0,10.66 0,10.28 0.15,10.28 0.15,10.22 0,10.22 0,9.84 0.3,9.84 0.3,9.76 0,9.76 0,9.38 0.15,9.38 0.15,9.32 0,9.32 0,8.94 0.3,8.94 0.3,8.86 0,8.86 0,8.48 0.15,8.48 0.15,8.42 0,8.42 0,8.04 0.3,8.04 0.3,7.96 0,7.96 0,7.58 0.15,7.58 0.15,7.52 0,7.52 0,7.14 0.3,7.14 0.3,7.06 0,7.06 0,6.68 0.15,6.68 0.15,6.62 0,6.62 0,6.24 0.3,6.24 0.3,6.16 0,6.16 0,5.78 0.15,5.78 0.15,5.72 0,5.72 0,5.34 0.3,5.34 0.3,5.26 0,5.26 0,4.88 0.15,4.88 0.15,4.82 0,4.82 0,4.44 0.3,4.44 0.3,4.36 0,4.36 0,3.98 0.15,3.98 0.15,3.92 0,3.92 0,3.54 0.3,3.54 0.3,3.46 0,3.46 0,3.08 0.15,3.08 0.15,3.02 0,3.02 0,2.64 0.3,2.64 0.3,2.56 0,2.56 0,2.18 0.15,2.18 0.15,2.12 0,2.12 0,1.74 0.3,1.74 0.3,1.66 0,1.66 0,1.28 0.15,1.28 0.15,1.22 0,1.22 0,0.84 0.3,0.84 0.3,0.76 0,0.76 0,0 12.9,0 12.9,5.6 A0.9,0.9 180 0,0 13.8,6.5 L14,6.5 A0.9,0.9 270 0,1 14.9,7.4 L14.9,7.6z" transform="matrix(1,0,0,-1,-0,12.5)" fill="rgb(0,0,0)" shaper:cutDepth="0" stroke-linecap="round" stroke-linejoin="round" /><path d="M14.1913393,7.1874629 L14.2919532,7.1874629 14.2919532,7.3921014 14.375855,7.3921014 14.6933857,7.1751846 14.6933857,7.0946935 14.3761961,7.0946935 14.3761961,7.0326198 14.2919532,7.0326198 14.2919532,7.0946935 14.1913393,7.0946935 14.1913393,7.1874629z" transform="matrix(1,0,0,-1,-0,12.5)" fill="rgb(255,255,255)" stroke="rgb(0,0,0)" stroke-width="0.0010cm" stroke-linecap="round" stroke-linejoin="round" shaper:cutDepth="0" /><path d="M11.0996194,0.4717774 L11.0229823,0.4810884 11.0229823,0.4810884 11.021994,0.4863095 11.020393,0.4912166 11.017664,0.4955456 11.0141488,0.4994718 11.0141488,0.4994718 11.0070666,0.5029362 10.9997174,0.5053806 10.9919931,0.5063928 10.9840669,0.5066341 10.9840669,0.5066341 10.9738477,0.5063588 10.9638135,0.5052386 10.9541222,0.502552 10.944674,0.4987556 10.944674,0.4987556 10.9403275,0.4953249 10.9365515,0.4914357 10.9336718,0.486826 10.9313043,0.4818047 10.9313043,0.4818047 10.9286013,0.4665412 10.9282005,0.4510066 10.9282005,0.4140011 10.9282005,0.4140011 10.9436925,0.4308387 10.9520202,0.4381616 10.9610459,0.4441694 10.9709486,0.4485253 10.9815937,0.4514824 11.0041215,0.4550652 11.0041215,0.4550652 11.0282443,0.4515842 11.0396388,0.448588 11.050233,0.4440851 11.0598573,0.4377562 11.0686942,0.4299451 11.085056,0.4118524 11.085056,0.4118524 11.0954472,0.3918957 11.0998354,0.3816878 11.103256,0.3712047 11.1055679,0.3604063 11.1070118,0.3493611 11.108453,0.3268593 11.108453,0.3268593 11.1069182,0.300457 11.1051678,0.2875843 11.102238,0.2751059 11.0977719,0.2631409 11.0918942,0.2516476 11.0777742,0.2294513 11.0777742,0.2294513 11.0612604,0.2152452 11.0525677,0.2091294 11.0433521,0.2041983 11.0334975,0.2007146 11.0231204,0.1984148 11.0014953,0.1957883 11.0014953,0.1957883 10.9785444,0.1993328 10.9676863,0.2022835 10.9575692,0.2066482 10.9483321,0.2126928 10.9397984,0.2200798 10.9239032,0.2370912 10.9239032,0.2015182 10.8611132,0.2015182 10.8611132,0.4290421 10.8611132,0.4290421 10.8613186,0.4460153 10.8623344,0.4628894 10.8648699,0.4795772 10.8685144,0.4961293 10.8685144,0.4961293 10.872255,0.5057241 10.8767542,0.5148588 10.88259,0.523183 10.8892851,0.5309861 10.8892851,0.5309861 10.8974196,0.5373374 10.9060051,0.5428896 10.9152922,0.5471986 10.9249776,0.5508019 10.9249776,0.5508019 10.9388903,0.5541063 10.9529221,0.5565227 10.967132,0.5576115 10.9814407,0.5579643 10.9814407,0.5579643 11.0056292,0.5573642 11.0175191,0.5563072 11.0291637,0.5543419 11.0404827,0.5511708 11.0514707,0.5467735 11.07288,0.5358804 11.07288,0.5358804 11.0841763,0.5240666 11.0890532,0.5177899 11.0930044,0.5110693 11.0958154,0.5038019 11.0976856,0.4960835 11.0998581,0.4798947 11.0998581,0.4798947 11.0996194,0.4717774z" transform="matrix(1,0,0,-1,-0,12.5)" fill="rgb(255,255,255)" stroke="rgb(0,0,0)" stroke-width="0.0010cm" stroke-linecap="round" stroke-linejoin="round" shaper:cutDepth="0" /><path d="M8.5288146,0.3743695 L8.4619659,0.3855905 8.4619659,0.3855905 8.4690722,0.4018483 8.4731348,0.4096019 8.4778089,0.4169053 8.483255,0.4236399 8.4893608,0.4298886 8.502672,0.4415761 8.502672,0.4415761 8.5190015,0.4501246 8.5273565,0.4537326 8.5359396,0.456542 8.5447834,0.4584383 8.5538311,0.4596206 8.5722664,0.4607951 8.5722664,0.4607951 8.6005237,0.458222 8.6140339,0.4555909 8.6268018,0.4513464 8.6386178,0.4450325 8.6495955,0.4368964 8.6600134,0.4275435 8.6701515,0.4175823 8.6701515,0.4175823 8.6813016,0.397186 8.6860077,0.3867301 8.6896721,0.375965 8.6921456,0.3648466 8.6936878,0.3534518 8.6952198,0.3302017 8.6952198,0.3302017 8.6933623,0.3032939 8.6913983,0.2902015 8.688192,0.2775429 8.6833833,0.2654439 8.6771435,0.2538445 8.6622732,0.2314807 8.6622732,0.2314807 8.6441497,0.2162777 8.6346229,0.2097548 8.6245383,0.2045262 8.6137791,0.2008626 8.6024734,0.1984669 8.5789512,0.1957883 8.5789512,0.1957883 8.5536982,0.1982891 8.5415582,0.2006752 8.5300021,0.204424 8.5191829,0.2098931 8.5089926,0.2168302 8.4896606,0.2331519 8.4896606,0.2331519 8.4743584,0.2595474 8.4681123,0.2731627 8.4635341,0.2872737 8.4606999,0.301903 8.4591916,0.3169264 8.4583848,0.34763 8.6264613,0.34763 8.6264613,0.34763 8.625319,0.3603048 8.6242754,0.3664696 8.6226651,0.3724272 8.6203224,0.3781172 8.6173229,0.3835671 8.6102264,0.3940659 8.6102264,0.3940659 8.6018001,0.4011013 8.5973742,0.4041249 8.5926931,0.4065556 8.5877019,0.4082656 8.5824582,0.4093891 8.5715502,0.4106587 8.5715502,0.4106587 8.5644039,0.4100822 8.5575345,0.4086701 8.5511429,0.4058167 8.5450495,0.4020639 8.5450495,0.4020639 8.5394929,0.396049 8.5348169,0.3894999 8.5314528,0.3821548 8.5288146,0.3743695z" transform="matrix(1,0,0,-1,-0,12.5)" fill="rgb(255,255,255)" stroke="rgb(0,0,0)" stroke-width="0.0010cm" stroke-linecap="round" stroke-linejoin="round" shaper:cutDepth="0" /><path d="M10.8214816,1.0013135 L10.8214816,0.6513134 10.561966,0.6513134 10.561966,0.7105222 10.7508132,0.7105222 10.7508132,0.7881143 10.5750969,0.7881143 10.5750969,0.8470843 10.7508132,0.8470843 10.7508132,0.9423435 10.555281,0.9423435 10.555281,1.0013135 10.8214816,1.0013135z" transform="matrix(1,0,0,-1,-0,12.5)" fill="rgb(255,255,255)" stroke="rgb(0,0,0)" stroke-width="0.0010cm" stroke-linecap="round" stroke-linejoin="round" shaper:cutDepth="0" /><path d="M7.4045652,0.4717774 L7.3279279,0.4810884 7.3279279,0.4810884 7.32694,0.4863097 7.3253391,0.4912168 7.32261,0.4955458 7.3190945,0.4994718 7.3190945,0.4994718 7.3120123,0.5029363 7.3046629,0.5053807 7.2969385,0.5063928 7.2890123,0.5066341 7.2890123,0.5066341 7.2787932,0.5063587 7.2687591,0.5052385 7.259068,0.502552 7.2496198,0.4987556 7.2496198,0.4987556 7.2452732,0.495325 7.2414971,0.4914358 7.2386173,0.4868261 7.2362497,0.4818047 7.2362497,0.4818047 7.2335471,0.4665412 7.233146,0.4510066 7.233146,0.4140011 7.233146,0.4140011 7.248638,0.4308386 7.2569657,0.4381615 7.2659915,0.4441693 7.2758942,0.4485252 7.2865392,0.4514824 7.3090671,0.4550652 7.3090671,0.4550652 7.3331899,0.4515841 7.3445844,0.448588 7.3551786,0.4440851 7.3648028,0.4377562 7.3736398,0.429945 7.3900016,0.4118524 7.3900016,0.4118524 7.4003927,0.3918957 7.4047809,0.3816878 7.4082015,0.3712046 7.4105134,0.3604062 7.4119573,0.349361 7.4133986,0.3268593 7.4133986,0.3268593 7.4118639,0.3004569 7.4101136,0.2875843 7.4071838,0.2751058 7.4027177,0.2631408 7.3968399,0.2516475 7.3827198,0.2294513 7.3827198,0.2294513 7.3662059,0.2152453 7.3575131,0.2091295 7.3482975,0.2041984 7.3384429,0.2007147 7.3280658,0.1984149 7.3064406,0.1957883 7.3064406,0.1957883 7.2834898,0.1993329 7.2726318,0.2022836 7.2625147,0.2066484 7.2532777,0.2126929 7.244744,0.2200799 7.2288488,0.2370912 7.2288488,0.2015182 7.1660588,0.2015182 7.1660588,0.4290421 7.1660588,0.4290421 7.1662641,0.4460153 7.1672799,0.4628894 7.1698154,0.4795773 7.1734598,0.4961293 7.1734598,0.4961293 7.1772005,0.5057241 7.1816999,0.5148588 7.1875358,0.523183 7.1942309,0.5309861 7.1942309,0.5309861 7.2023652,0.5373374 7.2109506,0.5428896 7.2202377,0.5471986 7.2299231,0.5508019 7.2299231,0.5508019 7.2438358,0.5541063 7.2578676,0.5565227 7.2720776,0.5576115 7.2863863,0.5579643 7.2863863,0.5579643 7.3105748,0.5573641 7.3224646,0.5563071 7.3341092,0.5543418 7.3454283,0.5511707 7.3564162,0.5467734 7.3778256,0.5358804 7.3778256,0.5358804 7.3891219,0.5240666 7.3939987,0.5177899 7.39795,0.5110693 7.4007609,0.5038019 7.4026311,0.4960835 7.4048036,0.4798947 7.4048036,0.4798947 7.4045652,0.4717774z" transform="matrix(1,0,0,-1,-0,12.5)" fill="rgb(255,255,255)" stroke="rgb(0,0,0)" stroke-width="0.0010cm" stroke-linecap="round" stroke-linejoin="round" shaper:cutDepth="0" /><path d="M6.1669114,0.4550652 L6.1669114,0.3846355 6.3101585,0.3846355 6.3101585,0.3259043 6.1583169,0.1036328 6.1019729,0.1036328 6.1019729,0.3256655 6.0585216,0.3256655 6.0585216,0.3846355 6.1019729,0.3846355 6.1019729,0.4550652 6.1669114,0.4550652z" transform="matrix(1,0,0,-1,-0,12.5)" fill="rgb(255,255,255)" stroke="rgb(0,0,0)" stroke-width="0.0010cm" stroke-linecap="round" stroke-linejoin="round" shaper:cutDepth="0" /><path d="M5.893071,0.3621935 L5.8281324,0.3543149 5.8281324,0.3543149 5.8261603,0.3648111 5.8230456,0.3747861 5.8178972,0.3838337 5.8114203,0.3922753 5.8114203,0.3922753 5.8040993,0.3978473 5.7962766,0.4021648 5.7876229,0.4044049 5.7784737,0.4054063 5.7784737,0.4054063 5.7685265,0.4041471 5.7637589,0.4030586 5.7592384,0.4014196 5.7510422,0.3962597 5.7434972,0.3896491 5.7434972,0.3896491 5.7371352,0.3800025 5.7344574,0.3750042 5.7323823,0.3697962 5.7301286,0.3587208 5.7292922,0.3471525 5.7292922,0.3471525 5.7300946,0.3362076 5.7322544,0.3257418 5.7342423,0.3208294 5.7368073,0.3161207 5.7429007,0.3070434 5.7429007,0.3070434 5.7500867,0.3008424 5.7578751,0.2959979 5.7666749,0.293431 5.7760861,0.2922412 5.7760861,0.2922412 5.791646,0.29372 5.8068841,0.2972549 5.7994831,0.2425823 5.7994831,0.2425823 5.788297,0.2422552 5.7775199,0.240586 5.7724083,0.2388427 5.7674823,0.2364903 5.7579415,0.2307644 5.7579415,0.2307644 5.751756,0.2235759 5.7470176,0.2157552 5.7446289,0.206908 5.7436169,0.1974595 5.7436169,0.1974595 5.7442845,0.1896639 5.7459849,0.1822651 5.7494844,0.1755578 5.7541216,0.1692876 5.7541216,0.1692876 5.7603337,0.1646668 5.7669808,0.1611711 5.7743188,0.1594625 5.7820547,0.1587829 5.7820547,0.1587829 5.7902345,0.1597074 5.7979578,0.1617536 5.8049183,0.1656735 5.8114203,0.1707201 5.8114203,0.1707201 5.8172366,0.1785 5.8218244,0.1868225 5.8245455,0.1959691 5.8262222,0.2055768 5.8880575,0.1950721 5.8880575,0.1950721 5.8848763,0.1817264 5.8808295,0.1687213 5.8752293,0.1563275 5.8685997,0.1443388 5.8685997,0.1443388 5.8609425,0.135171 5.8524967,0.1269546 5.8427758,0.1202762 5.8323105,0.1144957 5.8323105,0.1144957 5.8196922,0.1097813 5.8068378,0.106182 5.7936023,0.1043827 5.7801445,0.1036328 5.7801445,0.1036328 5.7579847,0.1057484 5.7472942,0.1077635 5.7370709,0.1109272 5.727437,0.1155403 5.7183058,0.1213891 5.7008813,0.1351471 5.7008813,0.1351471 5.6907517,0.1480539 5.6863533,0.1547845 5.6827545,0.1618478 5.6801562,0.1693273 5.6783999,0.1771572 5.6762908,0.1934008 5.6762908,0.1934008 5.6784849,0.2052849 5.681229,0.2168081 5.685073,0.2276095 5.6905635,0.2373303 5.6979083,0.2458343 5.7066938,0.2533928 5.7266658,0.2669343 5.7266658,0.2669343 5.7128752,0.2712404 5.7062767,0.2738841 5.7000343,0.2771165 5.6942345,0.2810807 5.6888041,0.2856554 5.6785586,0.2958224 5.6785586,0.2958224 5.6707628,0.3082599 5.6674369,0.3146719 5.6647973,0.3213157 5.6629723,0.3282347 5.6617979,0.3353735 5.6605337,0.3500175 5.6605337,0.3500175 5.6632057,0.3721098 5.6655237,0.3827361 5.6690202,0.3928586 5.6739509,0.4023679 5.6800503,0.4113777 5.6941965,0.4285646 5.6941965,0.4285646 5.7128612,0.4425118 5.7225887,0.4484774 5.7327903,0.4532332 5.7435595,0.456541 5.7547849,0.4586851 5.7779959,0.4610339 5.7779959,0.4610339 5.7994663,0.4592007 5.8099069,0.4574536 5.819994,0.4547099 5.8296349,0.4507084 5.8388954,0.4456343 5.8567818,0.4336976 5.8567818,0.4336976 5.8706282,0.4182663 5.8767263,0.4101282 5.8818343,0.401483 5.8857561,0.3922304 5.8887242,0.3824894 5.893071,0.3621935z" transform="matrix(1,0,0,-1,-0,12.5)" fill="rgb(255,255,255)" stroke="rgb(0,0,0)" stroke-width="0.0010cm" stroke-linecap="round" stroke-linejoin="round" shaper:cutDepth="0" /><path d="M12.3162633,1.0013135 L12.3162633,0.6513134 12.2104994,0.6513134 12.1469932,0.8900584 12.0842034,0.6513134 11.9782006,0.6513134 11.9782006,1.0013135 12.0438555,1.0013135 12.0438555,0.7258018 12.1133302,1.0013135 12.1813725,1.0013135 12.2506085,0.7258018 12.2506085,1.0013135 12.3162633,1.0013135z" transform="matrix(1,0,0,-1,-0,12.5)" fill="rgb(255,255,255)" stroke="rgb(0,0,0)" stroke-width="0.0010cm" stroke-linecap="round" stroke-linejoin="round" shaper:cutDepth="0" /><path d="M11.9223343,0.8284621 L11.9223343,0.8284621 11.9214563,0.8054384 11.9205124,0.7940207 11.9189625,0.7827159 11.9166291,0.7715571 11.9135913,0.7605296 11.9063384,0.7386941 11.9063384,0.7386941 11.8996564,0.7257027 11.8921735,0.713255 11.8833597,0.7017105 11.8737497,0.6907064 11.8737497,0.6907064 11.8635338,0.6812471 11.8527322,0.6726334 11.8409291,0.6654662 11.8285076,0.6591921 11.8285076,0.6591921 11.8101454,0.653085 11.7915013,0.6484733 11.772411,0.646229 11.7530642,0.6453449 11.7530642,0.6453449 11.7357153,0.6466286 11.7185994,0.648498 11.7019493,0.6515388 11.6859982,0.6563368 11.6709319,0.6633594 11.6566244,0.6722899 11.6428231,0.6824931 11.6292749,0.6933326 11.6292749,0.6933326 11.6184945,0.7082068 11.6083815,0.7233235 11.5996034,0.7389253 11.5959235,0.7469839 11.5928233,0.7552531 11.5882909,0.7723976 11.585504,0.7901764 11.5838806,0.808378 11.5828391,0.8267909 11.5828391,0.8267909 11.5838798,0.8450798 11.5854974,0.8631595 11.5882685,0.8808209 11.59277,0.897855 11.5958473,0.9060723 11.5994984,0.9140816 11.6082039,0.9295914 11.6182302,0.9446223 11.6289168,0.9594137 11.6289168,0.9594137 11.6423874,0.9702325 11.6561116,0.9804155 11.670343,0.9893268 11.6853347,0.9963316 11.7012123,1.0011153 11.7177894,1.0041452 11.7348327,1.0060059 11.7521092,1.0072821 11.7521092,1.0072821 11.7694894,1.0060435 11.7866389,1.0042208 11.8033273,1.0012301 11.8193238,0.9964875 11.8269932,0.993283 11.8344418,0.9895194 11.8488015,0.9806313 11.8626555,0.9704621 11.8762565,0.9596525 11.8762565,0.9596525 11.8869091,0.9450434 11.8969075,0.930195 11.9055974,0.9148679 11.9092472,0.9069502 11.912328,0.8988243 11.9168423,0.8819699 11.9196314,0.8644845 11.9212704,0.8465785 11.9223343,0.8284621z" transform="matrix(1,0,0,-1,-0,12.5)" fill="rgb(255,255,255)" stroke="rgb(0,0,0)" stroke-width="0.0010cm" stroke-linecap="round" stroke-linejoin="round" shaper:cutDepth="0" /><path d="M9.0280302,0.4550652 L9.0280302,0.1050652 8.8792921,0.1050652 8.8792921,0.1050652 8.8586286,0.1052691 8.838102,0.1065238 8.8178345,0.1097664 8.7977608,0.1144957 8.7977608,0.1144957 8.7856383,0.1205088 8.7799122,0.1239239 8.7745882,0.1278294 8.7697485,0.1323255 8.7653,0.1372985 8.7570549,0.1480393 8.7570549,0.1480393 8.7504744,0.1610524 8.7454245,0.1744949 8.7428677,0.1886368 8.7417751,0.2031894 8.7417751,0.2031894 8.743334,0.2209929 8.7448165,0.2296389 8.7471426,0.237978 8.7505326,0.2459301 8.7548291,0.2535525 8.7649334,0.2682474 8.7649334,0.2682474 8.7801688,0.2806121 8.788163,0.286018 8.7966074,0.2904952 8.8055496,0.2939454 8.8148761,0.296603 8.8341694,0.3005973 8.8341694,0.3005973 8.8239787,0.3070044 8.8141731,0.313904 8.8050385,0.3216619 8.7963284,0.3299629 8.7963284,0.3299629 8.7853821,0.3435277 8.7749977,0.3574973 8.7560998,0.3867842 8.7133644,0.4550652 8.7978802,0.4550652 8.8489717,0.3789056 8.8489717,0.3789056 8.8667952,0.3525921 8.8862157,0.3274561 8.8862157,0.3274561 8.8959721,0.3188906 8.901546,0.3156371 8.9074641,0.3128927 8.9074641,0.3128927 8.9162347,0.3109226 8.925082,0.3095688 8.9430371,0.3089534 8.9573618,0.3089534 8.9573618,0.4550652 9.0280302,0.4550652z" transform="matrix(1,0,0,-1,-0,12.5)" fill="rgb(255,255,255)" stroke="rgb(0,0,0)" stroke-width="0.0010cm" stroke-linecap="round" stroke-linejoin="round" shaper:cutDepth="0" /><path d="M10.3344422,0.2015181 L10.2718909,0.2015181 10.2718909,0.2387624 10.2718909,0.2387624 10.2649712,0.2296102 10.2573254,0.221226 10.2484875,0.2141028 10.2389443,0.2077255 10.2389443,0.2077255 10.2279783,0.2026216 10.2167072,0.1986862 10.204935,0.1966696 10.1928664,0.1957883 10.1928664,0.1957883 10.1714638,0.1986332 10.1612207,0.2010559 10.1515274,0.204679 10.1424966,0.2097482 10.1340007,0.2159854 10.1179007,0.2304063 10.1179007,0.2304063 10.1039033,0.2524055 10.0980463,0.2637884 10.0935549,0.2756296 10.0905776,0.2879791 10.0887696,0.3007211 10.0871025,0.3268592 10.0871025,0.3268592 10.0887477,0.353565 10.0905557,0.3665915 10.0935462,0.3792261 10.0980704,0.3913527 10.1039848,0.4030187 10.1181393,0.4255802 10.1181393,0.4255802 10.1342452,0.4401994 10.1427519,0.44653 10.151803,0.4516858 10.1615305,0.4553823 10.1718218,0.4578624 10.1933439,0.4607951 10.1933439,0.4607951 10.203198,0.4602073 10.2128732,0.4588156 10.2222427,0.4560507 10.2314237,0.452439 10.2314237,0.452439 10.2413075,0.446427 10.2506625,0.4397397 10.2592275,0.4320441 10.2673548,0.4237896 10.2673548,0.5515182 10.3344422,0.5515182 10.3344422,0.2015181z" transform="matrix(1,0,0,-1,-0,12.5)" fill="rgb(255,255,255)" stroke="rgb(0,0,0)" stroke-width="0.0010cm" stroke-linecap="round" stroke-linejoin="round" shaper:cutDepth="0" /><path d="M10.7305198,0.4550652 L10.7976071,0.4550652 10.7976071,0.2015182 10.7352948,0.2015182 10.7352948,0.2375687 10.7352948,0.2375687 10.7292212,0.2281621 10.7226,0.2192406 10.7149458,0.2112341 10.706526,0.2039056 10.706526,0.2039056 10.6996855,0.2004213 10.6926175,0.1977417 10.6851776,0.1963774 10.6775184,0.1957883 10.6775184,0.1957883 10.6658812,0.1968519 10.6545735,0.199078 10.6438038,0.2032015 10.6333507,0.2084418 10.6541215,0.2669343 10.6541215,0.2669343 10.6614861,0.2626525 10.6691152,0.2591613 10.6772186,0.2570876 10.6856359,0.255952 10.6856359,0.255952 10.6920714,0.2564824 10.698258,0.257764 10.704017,0.2603367 10.7095103,0.2637112 10.7095103,0.2637112 10.7148834,0.2698457 10.7193321,0.2765133 10.7224736,0.283935 10.7249094,0.2917637 10.7249094,0.2917637 10.7279729,0.3128794 10.7299295,0.3340834 10.7305639,0.3553931 10.7305198,0.3767569 10.7305198,0.4550652z" transform="matrix(1,0,0,-1,-0,12.5)" fill="rgb(255,255,255)" stroke="rgb(0,0,0)" stroke-width="0.0010cm" stroke-linecap="round" stroke-linejoin="round" shaper:cutDepth="0" /><path d="M0.7,1.6 L1.9,1.6 1.9,0.7 0.7,0.7 0.7,1.6z" transform="matrix(1,0,0,-1,-0,12.5)" fill="rgb(255,255,255)" stroke="rgb(0,0,0)" stroke-width="0.0010cm" stroke-linecap="round" stroke-linejoin="round" shaper:cutDepth="0" /><path d="M13.5,8.2 L14.3,8.2 14.3,7.6 13.5,7.6 13.5,8.2z" transform="matrix(1,0,0,-1,-0,12.5)" fill="rgb(255,255,255)" stroke="rgb(0,0,0)" stroke-width="0.0010cm" stroke-linecap="round" stroke-linejoin="round" shaper:cutDepth="0" /><path d="M12.2,1.2 L5,1.2 5,6.6 12.2,6.6 12.2,1.2z" transform="matrix(1,0,0,-1,-0,12.5)" fill="rgb(255,255,255)" stroke="rgb(0,0,0)" stroke-width="0.0010cm" stroke-linecap="round" stroke-linejoin="round" shaper:cutDepth="0" /><path d="M12.2,7.3 L6.2,7.3 6.2,11.8 12.2,11.8 12.2,7.3z" transform="matrix(1,0,0,-1,-0,12.5)" fill="rgb(255,255,255)" stroke="rgb(0,0,0)" stroke-width="0.0010cm" stroke-linecap="round" stroke-linejoin="round" shaper:cutDepth="0" /><path d="M0.7,8.2 L0.7,11.8 5.5,11.8 5.5,8.2 0.7,8.2z" transform="matrix(1,0,0,-1,-0,12.5)" fill="rgb(255,255,255)" stroke="rgb(0,0,0)" stroke-width="0.0010cm" stroke-linecap="round" stroke-linejoin="round" shaper:cutDepth="0" /><path d="M0.7,4.8 L0.7,7.5 4.3,7.5 4.3,4.8 0.7,4.8z" transform="matrix(1,0,0,-1,-0,12.5)" fill="rgb(255,255,255)" stroke="rgb(0,0,0)" stroke-width="0.0010cm" stroke-linecap="round" stroke-linejoin="round" shaper:cutDepth="0" /><path d="M0.6999999,2.3 L0.6999999,4.1 3.0999999,4.1 3.0999999,2.3 0.6999999,2.3z" transform="matrix(1,0,0,-1,-0,12.5)" fill="rgb(255,255,255)" stroke="rgb(0,0,0)" stroke-width="0.0010cm" stroke-linecap="round" stroke-linejoin="round" shaper:cutDepth="0" /><path d="M13.428295,6.988816 L13.4395502,6.8960465 13.4395502,6.8960465 13.4245556,6.8932294 13.4172909,6.8913108 13.4103055,6.8887799 13.4036809,6.8854577 13.3973804,6.881425 13.385321,6.872172 13.385321,6.872172 13.3773612,6.8617134 13.3739413,6.8562601 13.3711934,6.850538 13.3692614,6.8444895 13.3679931,6.8381755 13.3665624,6.8251052 13.3665624,6.8251052 13.3683614,6.8108951 13.3699163,6.8040842 13.3722579,6.7976265 13.3755549,6.7915977 13.3796291,6.7859178 13.3890727,6.7751393 13.3890727,6.7751393 13.4028536,6.7660508 13.4099941,6.7622252 13.417434,6.7592608 13.4252129,6.7572713 13.433256,6.7560411 13.4497821,6.754846 13.4497821,6.754846 13.4654178,6.7559922 13.4730217,6.7571712 13.4803689,6.7590775 13.4873866,6.7619175 13.4941133,6.7655818 13.5070809,6.7742866 13.5070809,6.7742866 13.5159393,6.7845525 13.5197631,6.7899543 13.5228601,6.7956787 13.5250625,6.8018005 13.5265272,6.8082498 13.5282268,6.8216945 13.5282268,6.8216945 13.5274743,6.8328563 13.5261142,6.843923 13.5210645,6.8656918 13.5991682,6.8551188 13.5991682,6.8551188 13.5996355,6.8391387 13.6004683,6.8313312 13.60202,6.8237428 13.6045106,6.8164405 13.607871,6.8094034 13.6160508,6.7957737 13.6160508,6.7957737 13.6263202,6.7869372 13.6317371,6.7831651 13.6374927,6.7801681 13.643651,6.7780932 13.6501315,6.7767557 13.6636293,6.7753098 13.6636293,6.7753098 13.674766,6.7762634 13.6853357,6.7786924 13.6902437,6.7808875 13.6949176,6.7836918 13.7038749,6.7903166 13.7038749,6.7903166 13.7104761,6.7991911 13.7132742,6.8038226 13.7154699,6.808687 13.7179108,6.8191699 13.7188817,6.8302211 13.7188817,6.8302211 13.7175609,6.8419066 13.7163997,6.8475455 13.7146377,6.8529398 13.7121396,6.8580345 13.7090379,6.8628835 13.7018285,6.872172 13.7018285,6.872172 13.6907142,6.8804812 13.6849146,6.8840865 13.6788251,6.8870352 13.6724153,6.8892586 13.6657585,6.8909226 13.6520331,6.893318 13.6670399,6.9816536 13.6670399,6.9816536 13.6861051,6.9771088 13.7046837,6.9713275 13.7223892,6.9633274 13.7395161,6.9538569 13.7395161,6.9538569 13.752613,6.9429182 13.7587367,6.9370966 13.7643508,6.9308526 13.7693615,6.9241085 13.7738913,6.9169656 13.7821491,6.9020152 13.7821491,6.9020152 13.7888838,6.8839891 13.7917534,6.8748707 13.7940256,6.8656257 13.7965961,6.8467179 13.7976674,6.8274926 13.7976674,6.8274926 13.7946452,6.7958358 13.7917666,6.7805635 13.787247,6.7659588 13.7806569,6.7521961 13.7723014,6.7391514 13.7627686,6.7265857 13.752647,6.7142594 13.752647,6.7142594 13.7342087,6.6997887 13.7245936,6.6935052 13.7145031,6.6883641 13.7038181,6.6846521 13.6926326,6.682143 13.6694274,6.6791298 13.6694274,6.6791298 13.6524501,6.6822642 13.6359884,6.6861843 13.6205579,6.6916758 13.6133905,6.6952563 13.606671,6.6995194 13.6003998,6.7044656 13.5945225,6.7100121 13.5837245,6.7225628 13.573827,6.7364855 13.5643796,6.7510943 13.5643796,6.7510943 13.558228,6.7313934 13.5544514,6.721967 13.5498337,6.7130493 13.5441704,6.7047639 13.5376351,6.6970062 13.5231109,6.6823699 13.5231109,6.6823699 13.505343,6.6712329 13.4961831,6.6664815 13.4866919,6.6627106 13.4768076,6.6601034 13.4666093,6.6584257 13.4456893,6.6566195 13.4456893,6.6566195 13.4297891,6.6582475 13.4141289,6.6604367 13.3989484,6.6637482 13.3844877,6.6687432 13.370903,6.6757872 13.3580319,6.6845005 13.3456366,6.6943268 13.3334792,6.7047096 13.3334792,6.7047096 13.3232289,6.7179286 13.3135546,6.7313734 13.3050324,6.7452698 13.2982383,6.7598436 13.2935129,6.7752283 13.2904499,6.7912645 13.2870945,6.8244231 13.2870945,6.8244231 13.2897132,6.8550951 13.2922091,6.8700103 13.2961287,6.8844204 13.301845,6.8981931 13.3090938,6.9114223 13.3261464,6.9369742 13.3261464,6.9369742 13.3481912,6.9567544 13.3598172,6.9654658 13.3721675,6.9727628 13.3853855,6.9783655 13.3993011,6.9826058 13.428295,6.988816z" transform="matrix(1,0,0,-1,-0,12.5)" fill="rgb(255,255,255)" stroke="rgb(0,0,0)" stroke-width="0.0010cm" stroke-linecap="round" stroke-linejoin="round" shaper:cutDepth="0" /><path d="M12.6676958,0.4550652 L12.6676958,0.1050652 12.5989373,0.1050652 12.4556904,0.3387965 12.4556904,0.1050652 12.3900355,0.1050652 12.3900355,0.4550652 12.4609428,0.4550652 12.602041,0.2268251 12.602041,0.4550652 12.6676958,0.4550652z" transform="matrix(1,0,0,-1,-0,12.5)" fill="rgb(255,255,255)" stroke="rgb(0,0,0)" stroke-width="0.0010cm" stroke-linecap="round" stroke-linejoin="round" shaper:cutDepth="0" /><path d="M11.9528937,0.4550652 L12.019981,0.4550652 12.019981,0.2015182 11.9576685,0.2015182 11.9576685,0.2375687 11.9576685,0.2375687 11.951595,0.2281621 11.9449738,0.2192406 11.9373196,0.2112341 11.9288998,0.2039056 11.9288998,0.2039056 11.9220593,0.2004213 11.9149913,0.1977417 11.9075514,0.1963774 11.8998923,0.1957883 11.8998923,0.1957883 11.888255,0.1968519 11.8769474,0.199078 11.8661776,0.2032015 11.8557245,0.2084418 11.8764953,0.2669343 11.8764953,0.2669343 11.8838599,0.2626526 11.8914891,0.2591614 11.8995924,0.2570877 11.9080096,0.255952 11.9080096,0.255952 11.9144452,0.2564824 11.9206318,0.257764 11.9263908,0.2603367 11.9318841,0.2637112 11.9318841,0.2637112 11.9372572,0.2698457 11.9417059,0.2765134 11.9448474,0.283935 11.9472831,0.2917637 11.9472831,0.2917637 11.9503468,0.3128794 11.9523034,0.3340834 11.9529378,0.3553931 11.9528937,0.3767569 11.9528937,0.4550652z" transform="matrix(1,0,0,-1,-0,12.5)" fill="rgb(255,255,255)" stroke="rgb(0,0,0)" stroke-width="0.0010cm" stroke-linecap="round" stroke-linejoin="round" shaper:cutDepth="0" /><path d="M11.4076005,0.3247105 L11.4076005,0.3247105 11.4062422,0.3078381 11.4033621,0.2913503 11.3979836,0.2754937 11.391127,0.2600107 11.391127,0.2600107 11.3819292,0.2456529 11.3769114,0.2388844 11.3713907,0.2326085 11.3652513,0.2269388 11.3586017,0.2217688 11.3444524,0.2122617 11.3444524,0.2122617 11.3283241,0.2051764 11.320133,0.2021473 11.3117897,0.1997345 11.3032645,0.1980582 11.2945931,0.1969731 11.277007,0.1957883 11.277007,0.1957883 11.2507281,0.1984149 11.2380409,0.2008516 11.2258963,0.2046363 11.2144308,0.210108 11.2035371,0.2170001 11.1827028,0.2331519 11.1827028,0.2331519 11.1668455,0.254125 11.1600732,0.2650683 11.1546885,0.2765596 11.1509565,0.2887038 11.1485479,0.3013706 11.1459361,0.3275755 11.1459361,0.3275755 11.1485824,0.3540384 11.1510182,0.3668309 11.1547891,0.3790964 11.1602264,0.3907043 11.1670614,0.4017607 11.1830609,0.422954 11.1830609,0.422954 11.2036627,0.4391748 11.214441,0.4461181 11.2257921,0.4516611 11.2378306,0.4555233 11.2504227,0.4580324 11.2765295,0.4607951 11.2765295,0.4607951 11.2937888,0.4595473 11.3106999,0.4568276 11.3270328,0.4516635 11.34302,0.4450379 11.34302,0.4450379 11.3575562,0.4360972 11.3643983,0.431184 11.3707291,0.4257394 11.3764317,0.4196417 11.3816174,0.4130066 11.391127,0.3988408 11.391127,0.3988408 11.3984837,0.3810537 11.4015838,0.3720271 11.4039909,0.3628409 11.4056103,0.3534734 11.4066151,0.3439644 11.4076005,0.3247105z" transform="matrix(1,0,0,-1,-0,12.5)" fill="rgb(255,255,255)" stroke="rgb(0,0,0)" stroke-width="0.0010cm" stroke-linecap="round" stroke-linejoin="round" shaper:cutDepth="0" /><path d="M9.5883644,0.3743695 L9.5215159,0.3855905 9.5215159,0.3855905 9.5286224,0.4018482 9.532685,0.4096018 9.537359,0.4169051 9.5428051,0.4236397 9.5489108,0.4298885 9.5622218,0.4415761 9.5622218,0.4415761 9.5785513,0.4501245 9.5869063,0.4537325 9.5954893,0.4565419 9.6043331,0.4584383 9.6133807,0.4596206 9.631816,0.4607951 9.631816,0.4607951 9.6600734,0.458222 9.6735836,0.455591 9.6863515,0.4513465 9.6981675,0.4450326 9.7091452,0.4368964 9.7195632,0.4275435 9.7297013,0.4175823 9.7297013,0.4175823 9.7408514,0.397186 9.7455575,0.3867301 9.7492219,0.375965 9.7516954,0.3648466 9.7532376,0.3534518 9.7547696,0.3302017 9.7547696,0.3302017 9.7529121,0.3032939 9.7509481,0.2902014 9.7477418,0.2775428 9.742933,0.2654438 9.7366932,0.2538445 9.7218228,0.2314807 9.7218228,0.2314807 9.7036993,0.2162777 9.6941726,0.2097548 9.684088,0.2045262 9.6733288,0.2008627 9.6620231,0.1984669 9.638501,0.1957883 9.638501,0.1957883 9.613248,0.1982891 9.601108,0.2006751 9.5895518,0.2044239 9.5787326,0.209893 9.5685424,0.2168301 9.5492104,0.2331519 9.5492104,0.2331519 9.533908,0.2595473 9.5276619,0.2731626 9.5230837,0.2872736 9.5202495,0.301903 9.5187413,0.3169264 9.5179346,0.34763 9.6860111,0.34763 9.6860111,0.34763 9.6848689,0.3603048 9.6838254,0.3664696 9.6822151,0.3724272 9.6798724,0.3781172 9.676873,0.3835671 9.6697765,0.3940659 9.6697765,0.3940659 9.66135,0.4011014 9.6569241,0.404125 9.652243,0.4065557 9.6472517,0.4082657 9.642008,0.4093892 9.6310998,0.4106587 9.6310998,0.4106587 9.6239535,0.4100821 9.6170841,0.4086701 9.6106925,0.4058167 9.6045991,0.4020639 9.6045991,0.4020639 9.5990424,0.396049 9.5943665,0.3894999 9.5910025,0.3821549 9.5883644,0.3743695z" transform="matrix(1,0,0,-1,-0,12.5)" fill="rgb(255,255,255)" stroke="rgb(0,0,0)" stroke-width="0.0010cm" stroke-linecap="round" stroke-linejoin="round" shaper:cutDepth="0" /><path d="M8.1826346,0.2764841 L8.2487667,0.2884213 8.2487667,0.2884213 8.2507586,0.280018 8.253685,0.2721045 8.2582682,0.2650594 8.2639273,0.2585782 8.2639273,0.2585782 8.2709413,0.2541299 8.2783278,0.2507844 8.2862996,0.2491722 8.294606,0.2485509 8.294606,0.2485509 8.3059731,0.2497658 8.3114275,0.2508938 8.316607,0.2526466 8.3214423,0.2551814 8.3259878,0.2583749 8.3345955,0.2658599 8.3345955,0.2658599 8.3418893,0.2793139 8.3448462,0.2862384 8.3469934,0.2933946 8.3483341,0.3007817 8.3490664,0.3083429 8.3495172,0.3237556 8.3495172,0.3237556 8.3491249,0.340598 8.3484072,0.3488801 8.3470637,0.3569953 8.3448889,0.3648888 8.341864,0.3725555 8.3343571,0.3875004 8.3343571,0.3875004 8.3257224,0.3954886 8.3211387,0.3989071 8.3162354,0.4016348 8.310949,0.4035342 8.3053543,0.4047672 8.2936509,0.4061225 8.2936509,0.4061225 8.2851158,0.4054153 8.2769596,0.4036454 8.2694608,0.4000319 8.2623752,0.3952596 8.2623752,0.3952596 8.2559547,0.3869513 8.2508182,0.3780184 8.2475079,0.3681975 8.2451857,0.3578961 8.179292,0.3691171 8.179292,0.3691171 8.1851332,0.3886072 8.1887089,0.3979664 8.1930707,0.4068626 8.1984401,0.4151653 8.2046954,0.4229462 8.218685,0.4376369 8.218685,0.4376369 8.2367475,0.4481116 8.2460414,0.4525031 8.2556497,0.4558823 8.2656089,0.4581315 8.2758399,0.4595055 8.2967547,0.4607951 8.2967547,0.4607951 8.3215483,0.4584786 8.333511,0.4562504 8.3449527,0.4527384 8.3557354,0.4476022 8.3659535,0.4410747 8.3854483,0.4256996 8.3854483,0.4256996 8.4003449,0.4037652 8.4066003,0.3923737 8.4114277,0.3804744 8.4146513,0.3680048 8.4166304,0.3550925 8.4185145,0.3285304 8.4185145,0.3285304 8.4166567,0.3017998 8.4146838,0.2888057 8.411458,0.276257 8.4066151,0.2642832 8.4003255,0.2528238 8.3853291,0.2307644 8.3853291,0.2307644 8.3655515,0.2153726 8.3551927,0.2088492 8.3442704,0.203732 8.3326941,0.2002465 8.3206027,0.1980463 8.2955611,0.1957883 8.2955611,0.1957883 8.2760262,0.1968377 8.2664394,0.197996 8.2570693,0.1999147 8.2479805,0.2028201 8.2391472,0.2066215 8.2219079,0.2157235 8.2219079,0.2157235 8.2085385,0.2285657 8.2024885,0.2354064 8.1971989,0.2427499 8.1927726,0.2506643 8.1890194,0.2590236 8.1826346,0.2764841z" transform="matrix(1,0,0,-1,-0,12.5)" fill="rgb(255,255,255)" stroke="rgb(0,0,0)" stroke-width="0.0010cm" stroke-linecap="round" stroke-linejoin="round" shaper:cutDepth="0" /><path d="M8.0155132,0.2015182 L8.0155132,0.254997 8.0613525,0.254997 8.0613525,0.3571798 8.0613525,0.3571798 8.0613103,0.3752949 8.0600393,0.3933497 8.0600393,0.3933497 8.0578267,0.3981263 8.0540708,0.4018251 8.0540708,0.4018251 8.0486739,0.4044019 8.0427301,0.4051676 8.0427301,0.4051676 8.0290001,0.4030188 8.0157521,0.3987214 8.0100225,0.4507678 8.0100225,0.4507678 8.0229095,0.4551542 8.0360005,0.4584851 8.0494178,0.4601285 8.0630239,0.4607951 8.0630239,0.4607951 8.0714118,0.4603848 8.0796875,0.4593832 8.0877698,0.4573627 8.0957316,0.4547071 8.0957316,0.4547071 8.1018364,0.4517793 8.1075462,0.4483277 8.1125527,0.4439436 8.1170996,0.43895 8.1170996,0.43895 8.1204938,0.4328 8.1232829,0.426425 8.12653,0.4128074 8.12653,0.4128074 8.1284434,0.3892175 8.1286786,0.3655359 8.1286786,0.254997 8.1594766,0.254997 8.1594766,0.2015182 8.1286786,0.2015182 8.1286786,0.151143 8.0613525,0.1119889 8.0613525,0.2015182 8.0155132,0.2015182z" transform="matrix(1,0,0,-1,-0,12.5)" fill="rgb(255,255,255)" stroke="rgb(0,0,0)" stroke-width="0.0010cm" stroke-linecap="round" stroke-linejoin="round" shaper:cutDepth="0" /><path d="M7.4664004,0.4550652 L7.5334876,0.4550652 7.5334876,0.3256655 7.5334876,0.3256655 7.533912,0.2989346 7.5354128,0.2856966 7.5377849,0.2725448 7.5377849,0.2725448 7.5402494,0.2670881 7.5432651,0.2620453 7.5472198,0.2577077 7.5517514,0.2538033 7.5517514,0.2538033 7.5572025,0.2508782 7.5628605,0.2486574 7.5688492,0.2475623 7.5750292,0.2471185 7.5750292,0.2471185 7.5833602,0.2478376 7.5914138,0.2494605 7.5990008,0.2526038 7.6063049,0.2566683 7.6063049,0.2566683 7.6125196,0.2618943 7.617935,0.267719 7.6220129,0.2745454 7.625285,0.2819752 7.625285,0.2819752 7.6279845,0.2963925 7.6297645,0.3109046 7.6303907,0.3255359 7.6304181,0.340229 7.6304181,0.4550652 7.6975053,0.4550652 7.6975053,0.2015182 7.6351927,0.2015182 7.6351927,0.2387624 7.6351927,0.2387624 7.6178669,0.2209957 7.6086059,0.2132909 7.5986271,0.2070003 7.5877532,0.2024735 7.5761295,0.1994242 7.5516322,0.1957883 7.5516322,0.1957883 7.5411982,0.1963502 7.5309181,0.1976818 7.5209008,0.2003284 7.5110458,0.2037863 7.5110458,0.2037863 7.5031939,0.2076868 7.4958104,0.2122143 7.4892542,0.2178493 7.4832318,0.224199 7.4832318,0.224199 7.4789177,0.2307599 7.4751702,0.2375857 7.4723576,0.2448484 7.4701007,0.2523709 7.4701007,0.2523709 7.4670407,0.2748234 7.4664004,0.2974936 7.4664004,0.4550652z" transform="matrix(1,0,0,-1,-0,12.5)" fill="rgb(255,255,255)" stroke="rgb(0,0,0)" stroke-width="0.0010cm" stroke-linecap="round" stroke-linejoin="round" shaper:cutDepth="0" /><path d="M7.0996874,0.4550652 L7.0996874,0.1050652 7.0326002,0.1050652 7.0326002,0.4550652 7.0996874,0.4550652z" transform="matrix(1,0,0,-1,-0,12.5)" fill="rgb(255,255,255)" stroke="rgb(0,0,0)" stroke-width="0.0010cm" stroke-linecap="round" stroke-linejoin="round" shaper:cutDepth="0" /><path d="M6.7155474,0.3827256 L6.6482213,0.3724595 6.6482213,0.3724595 6.6456699,0.3809719 6.6421682,0.3889151 6.6370071,0.3958646 6.6307929,0.4021833 6.6307929,0.4021833 6.6222299,0.4068654 6.6132982,0.4102889 6.6038151,0.4118309 6.5940264,0.4123299 6.5940264,0.4123299 6.5837065,0.411951 6.5736538,0.4105623 6.5640921,0.4073166 6.5548719,0.4027801 6.5548719,0.4027801 6.5511324,0.3990608 6.5482304,0.3949273 6.5467189,0.3901063 6.5460384,0.3848742 6.5460384,0.3848742 6.5471665,0.3780643 6.5508135,0.3722208 6.5508135,0.3722208 6.556033,0.3690912 6.5615079,0.3665635 6.5732554,0.3633872 6.5732554,0.3633872 6.5998065,0.3576414 6.6259715,0.3507596 6.6387886,0.3465377 6.6513824,0.3416591 6.6761544,0.3306792 6.6761544,0.3306792 6.6888554,0.3191468 6.6943222,0.3129146 6.6987288,0.306123 6.7018405,0.2986484 6.7038938,0.2906155 6.7062362,0.2736191 6.7062362,0.2736191 6.7041101,0.2577291 6.7022938,0.2501354 6.6995737,0.2429633 6.6957629,0.2362999 6.6910698,0.2300481 6.6802133,0.2182303 6.6802133,0.2182303 6.6615674,0.2075628 6.6519562,0.2031832 6.6420032,0.1999344 6.6316957,0.1978589 6.621119,0.196674 6.5995172,0.1957883 6.5995172,0.1957883 6.5793028,0.196378 6.5693321,0.1972412 6.5595252,0.1987863 6.5499348,0.201233 6.5405575,0.204567 6.5221642,0.2127392 6.5221642,0.2127392 6.5102973,0.223052 6.5049152,0.228597 6.5001947,0.234608 6.4962521,0.2411671 6.4929274,0.2481615 6.4873074,0.2628756 6.5505746,0.2745741 6.5505746,0.2745741 6.5530296,0.2679463 6.55623,0.2618302 6.5607069,0.2565907 6.5659736,0.2518934 6.5659736,0.2518934 6.573611,0.2482012 6.5815158,0.2455324 6.5898123,0.2443625 6.5983236,0.2440148 6.5983236,0.2440148 6.608179,0.2441963 6.6178553,0.2451957 6.6271944,0.2477362 6.6362842,0.2514159 6.6362842,0.2514159 6.6394167,0.2541447 6.6418968,0.2572328 6.6432574,0.2609374 6.6439241,0.2650243 6.6439241,0.2650243 6.6433127,0.2686348 6.6421033,0.2719256 6.6399445,0.274709 6.6372393,0.2772003 6.6372393,0.2772003 6.6220602,0.2834185 6.6065362,0.2885759 6.5745686,0.2960612 6.5745686,0.2960612 6.5547413,0.3008699 6.5354602,0.306977 6.5261942,0.310921 6.5172091,0.3155327 6.4997218,0.3259043 6.4997218,0.3259043 6.4905008,0.336662 6.4865887,0.342343 6.4835143,0.3483863 6.4814155,0.3548516 6.4800867,0.36165 6.4787124,0.3758019 6.4787124,0.3758019 6.481229,0.3930617 6.4833167,0.401295 6.4863995,0.4090524 6.4906616,0.416246 6.4958648,0.4229896 6.5078395,0.4357269 6.5078395,0.4357269 6.52769,0.4474334 6.5379303,0.4522767 6.5485454,0.4559175 6.55956,0.4582776 6.5708794,0.4596599 6.5940264,0.4607951 6.5940264,0.4607951 6.6156649,0.4597349 6.6263019,0.4585326 6.6367203,0.4565235 6.646854,0.4534644 6.6567268,0.4494424 6.6760352,0.4397856 6.6760352,0.4397856 6.6895518,0.4280434 6.6956884,0.4217413 6.7010789,0.4149218 6.7055607,0.4074723 6.7093013,0.3995089 6.7155474,0.3827256z" transform="matrix(1,0,0,-1,-0,12.5)" fill="rgb(255,255,255)" stroke="rgb(0,0,0)" stroke-width="0.0010cm" stroke-linecap="round" stroke-linejoin="round" shaper:cutDepth="0" /><path d="M6.0480164,0.4610339 L5.9613522,0.0990966 5.9109767,0.0990966 5.998596,0.4610339 6.0480164,0.4610339z" transform="matrix(1,0,0,-1,-0,12.5)" fill="rgb(255,255,255)" stroke="rgb(0,0,0)" stroke-width="0.0010cm" stroke-linecap="round" stroke-linejoin="round" shaper:cutDepth="0" /><path d="M12.3527913,1.0013135 L12.4296671,1.0013135 12.4602265,0.9218114 12.600131,0.9218114 12.6290191,1.0013135 12.703985,1.0013135 12.5676617,0.6513134 12.4929346,0.6513134 12.3527913,1.0013135z" transform="matrix(1,0,0,-1,-0,12.5)" fill="rgb(255,255,255)" stroke="rgb(0,0,0)" stroke-width="0.0010cm" stroke-linecap="round" stroke-linejoin="round" shaper:cutDepth="0" /><path d="M10.9506426,0.87263 L10.8821228,0.8943558 10.8821228,0.8943558 10.8904625,0.9186417 10.8954065,0.9302957 10.9012795,0.9413627 10.908349,0.951674 10.9164826,0.961313 10.9345273,0.9794683 10.9345273,0.9794683 10.9561073,0.9918182 10.9671937,0.9970342 10.9786353,1.0011006 10.9904842,1.0038495 11.0026519,1.0055668 11.0275186,1.0072821 11.0275186,1.0072821 11.0437358,1.0058327 11.0597142,1.0038151 11.0752153,1.0006612 11.0900002,0.9958028 11.103895,0.9888262 11.1170477,0.9800831 11.1297056,0.9701622 11.142116,0.9596525 11.142116,0.9596525 11.1524931,0.9450836 11.1622327,0.9302859 11.1706977,0.9150308 11.1772539,0.8990908 11.181651,0.8823759 11.1843677,0.865058 11.1870001,0.8294171 11.1870001,0.8294171 11.1860485,0.8108145 11.184527,0.7924109 11.1818657,0.7744052 11.1774947,0.7569962 11.1744915,0.7485772 11.1709126,0.7403592 11.1623422,0.7244162 11.1524421,0.7089374 11.1418774,0.6936907 11.1418774,0.6936907 11.1290187,0.6828931 11.1159027,0.6727154 11.1022722,0.6637774 11.0878701,0.6566984 11.0725557,0.6518173 11.0565146,0.6486871 11.0399889,0.6467242 11.0232211,0.6453449 11.0232211,0.6453449 10.9945244,0.6478328 10.9806087,0.6502357 10.9672121,0.6540293 10.954473,0.6595843 10.9422982,0.666651 10.9188896,0.6833053 10.9188896,0.6833053 10.9068806,0.6976815 10.9014284,0.7051839 10.8966371,0.7130624 10.8925824,0.7213601 10.8890976,0.729982 10.8830779,0.7477664 10.9530302,0.7644785 10.9530302,0.7644785 10.9569597,0.7521834 10.9622513,0.7407182 10.9657923,0.7355311 10.969873,0.7306729 10.9789339,0.7215045 10.9789339,0.7215045 10.9899304,0.7146681 10.9955979,0.711755 11.0014683,0.7094478 11.0075787,0.7078569 11.0138804,0.7068367 11.0268022,0.7057473 11.0268022,0.7057473 11.0447865,0.7078078 11.0534081,0.7096683 11.0615848,0.7125253 11.0692105,0.7166171 11.0763782,0.7217349 11.0899503,0.7336805 11.0899503,0.7336805 11.1016512,0.7546393 11.1064215,0.7654369 11.1099181,0.7766097 11.1121234,0.7881629 11.1133523,0.8000037 11.1141829,0.8241648 11.1141829,0.8241648 11.113483,0.849281 11.1123198,0.8616105 11.1101807,0.8736659 11.1067473,0.8853576 11.1020095,0.8966828 11.0903084,0.9187077 11.0903084,0.9187077 11.0770501,0.9307008 11.0700329,0.9358475 11.0625501,0.9399744 11.054504,0.9428675 11.0460013,0.9447605 11.0282348,0.9468796 11.0282348,0.9468796 11.0149522,0.9455398 11.0085081,0.9443394 11.0023007,0.9425026 10.9963856,0.9398795 10.9907125,0.9366058 10.9797695,0.9289738 10.9797695,0.9289738 10.9694095,0.9165405 10.9647975,0.9100189 10.9608627,0.9031337 10.9576569,0.8958572 10.9550089,0.8882812 10.9506426,0.87263z" transform="matrix(1,0,0,-1,-0,12.5)" fill="rgb(255,255,255)" stroke="rgb(0,0,0)" stroke-width="0.0010cm" stroke-linecap="round" stroke-linejoin="round" shaper:cutDepth="0" /><path d="M11.5274503,1.0013135 L11.5274503,0.6513134 11.3787122,0.6513134 11.3787122,0.6513134 11.3580487,0.6515172 11.3375221,0.652772 11.3172546,0.6560146 11.2971808,0.6607439 11.2971808,0.6607439 11.2850584,0.666757 11.2793322,0.6701722 11.2740082,0.6740777 11.2691686,0.6785738 11.26472,0.6835468 11.2564748,0.6942876 11.2564748,0.6942876 11.2498943,0.7073007 11.2448446,0.7207432 11.2422877,0.734885 11.2411951,0.7494376 11.2411951,0.7494376 11.2427541,0.7672411 11.2442366,0.7758871 11.2465627,0.7842262 11.2499527,0.7921783 11.2542492,0.7998006 11.2643535,0.8144956 11.2643535,0.8144956 11.2795888,0.8268604 11.287583,0.8322662 11.2960273,0.8367434 11.3049696,0.8401936 11.314296,0.8428512 11.3335894,0.8468455 11.3335894,0.8468455 11.3233987,0.8532526 11.3135931,0.8601523 11.3044585,0.8679102 11.2957484,0.8762112 11.2957484,0.8762112 11.2848022,0.889776 11.2744179,0.9037456 11.2555199,0.9330324 11.2127846,1.0013135 11.2973002,1.0013135 11.3483916,0.9251539 11.3483916,0.9251539 11.3662152,0.8988404 11.3856358,0.8737043 11.3856358,0.8737043 11.3953921,0.8651388 11.400966,0.8618853 11.4068841,0.8591409 11.4068841,0.8591409 11.4156548,0.8571708 11.4245021,0.8558171 11.4424571,0.8552016 11.4567818,0.8552016 11.4567818,1.0013135 11.5274503,1.0013135z" transform="matrix(1,0,0,-1,-0,12.5)" fill="rgb(255,255,255)" stroke="rgb(0,0,0)" stroke-width="0.0010cm" stroke-linecap="round" stroke-linejoin="round" shaper:cutDepth="0" /><path d="M6.817014,0.3743695 L6.7501653,0.3855905 6.7501653,0.3855905 6.7572718,0.4018481 6.7613346,0.4096017 6.7660086,0.4169051 6.7714547,0.4236397 6.7775604,0.4298885 6.7908714,0.4415761 6.7908714,0.4415761 6.807201,0.4501245 6.815556,0.4537325 6.824139,0.4565419 6.8329828,0.4584382 6.8420306,0.4596206 6.8604658,0.4607951 6.8604658,0.4607951 6.8887232,0.4582221 6.9022334,0.4555911 6.9150014,0.4513466 6.9268173,0.4450327 6.937795,0.4368965 6.9482129,0.4275436 6.958351,0.4175823 6.958351,0.4175823 6.9695011,0.397186 6.9742071,0.3867301 6.9778715,0.375965 6.9803451,0.3648466 6.9818872,0.3534518 6.9834192,0.3302017 6.9834192,0.3302017 6.9815617,0.3032939 6.9795977,0.2902015 6.9763915,0.2775429 6.9715827,0.2654439 6.965343,0.2538445 6.9504727,0.2314807 6.9504727,0.2314807 6.9323491,0.2162777 6.9228224,0.2097548 6.9127378,0.2045262 6.9019785,0.2008626 6.8906728,0.1984669 6.8671506,0.1957883 6.8671506,0.1957883 6.8418976,0.1982891 6.8297577,0.2006752 6.8182015,0.204424 6.8073823,0.2098931 6.797192,0.2168302 6.77786,0.2331519 6.77786,0.2331519 6.7625575,0.2595473 6.7563114,0.2731626 6.7517331,0.2872735 6.7488989,0.3019029 6.7473907,0.3169264 6.7465842,0.34763 6.9146607,0.34763 6.9146607,0.34763 6.9135184,0.3603048 6.9124748,0.3664696 6.9108645,0.3724272 6.9085218,0.3781172 6.9055223,0.3835671 6.8984259,0.3940659 6.8984259,0.3940659 6.8899995,0.4011013 6.8855736,0.4041249 6.8808926,0.4065556 6.8759013,0.4082656 6.8706577,0.4093891 6.8597496,0.4106587 6.8597496,0.4106587 6.8526033,0.4100821 6.845734,0.40867 6.8393424,0.4058166 6.8332489,0.4020639 6.8332489,0.4020639 6.8276923,0.396049 6.8230163,0.3894999 6.8196522,0.3821548 6.817014,0.3743695z" transform="matrix(1,0,0,-1,-0,12.5)" fill="rgb(255,255,255)" stroke="rgb(0,0,0)" stroke-width="0.0010cm" stroke-linecap="round" stroke-linejoin="round" shaper:cutDepth="0" /><path d="M7.9188216,0.2788715 L7.9797013,0.2678893 7.9797013,0.2678893 7.9740921,0.2521394 7.9707601,0.2446148 7.9667951,0.2375105 7.9620192,0.2309448 7.9565313,0.2248519 7.9443672,0.2134554 7.9443672,0.2134554 7.9267701,0.2050551 7.917778,0.2016067 7.9085568,0.1990493 7.8990977,0.1974159 7.8894583,0.1964838 7.8698786,0.1957883 7.8698786,0.1957883 7.852756,0.1961081 7.8358365,0.1975834 7.8192963,0.2012177 7.8030303,0.2064125 7.8030303,0.2064125 7.7938495,0.2115312 7.7854224,0.2174942 7.7783328,0.2249554 7.7721127,0.2333906 7.7721127,0.2333906 7.7674724,0.2479863 7.7643754,0.2628488 7.7632526,0.2780528 7.7631596,0.293435 7.7638763,0.3717433 7.7638763,0.3717433 7.7633717,0.3964749 7.7606528,0.4210441 7.7606528,0.4210441 7.7556951,0.4384298 7.7485965,0.4550652 7.8149675,0.4550652 7.8149675,0.4550652 7.8214133,0.4352494 7.8214133,0.4352494 7.8238009,0.4273708 7.8238009,0.4273708 7.8322032,0.4348027 7.841027,0.4416128 7.8505735,0.4473563 7.8605679,0.4524391 7.8605679,0.4524391 7.8707168,0.456 7.8810285,0.4587516 7.8916085,0.4601693 7.9023479,0.4607951 7.9023479,0.4607951 7.9192352,0.4595506 7.9274411,0.4582652 7.9353617,0.456184 7.9429156,0.4530803 7.9501453,0.4490724 7.9640635,0.4395468 7.9640635,0.4395468 7.9736988,0.4278087 7.9778289,0.4216486 7.9811339,0.4151391 7.9834442,0.4082086 7.9849509,0.4009378 7.986625,0.3858292 7.986625,0.3858292 7.9858925,0.375752 7.9841757,0.3659418 7.9807824,0.3565865 7.9763592,0.3475107 7.9763592,0.3475107 7.9704771,0.3396076 7.9638745,0.3325057 7.9560846,0.3267241 7.9475902,0.3217262 7.9475902,0.3217262 7.9346054,0.3166416 7.9214055,0.3122689 7.8942307,0.3060884 7.8942307,0.3060884 7.8612551,0.2993222 7.8450625,0.2948169 7.8290532,0.2896151 7.8290532,0.2829302 7.8290532,0.2829302 7.8294443,0.2752851 7.8308415,0.2680187 7.8340842,0.2614468 7.8386033,0.2553552 7.8386033,0.2553552 7.8470544,0.2511571 7.8558618,0.2483162 7.8651353,0.2472512 7.8746536,0.2471185 7.8746536,0.2471185 7.8820201,0.2474524 7.8891912,0.2485141 7.8960082,0.2508938 7.9025868,0.2541614 7.9025868,0.2541614 7.9079815,0.2594276 7.9125816,0.2652359 7.91602,0.2718366 7.9188216,0.2788715z" transform="matrix(1,0,0,-1,-0,12.5)" fill="rgb(255,255,255)" stroke="rgb(0,0,0)" stroke-width="0.0010cm" stroke-linecap="round" stroke-linejoin="round" shaper:cutDepth="0" /><path d="M9.3350561,0.361716 L9.3350561,0.2946287 9.2032691,0.2946287 9.2032691,0.361716 9.3350561,0.361716z" transform="matrix(1,0,0,-1,-0,12.5)" fill="rgb(255,255,255)" stroke="rgb(0,0,0)" stroke-width="0.0010cm" stroke-linecap="round" stroke-linejoin="round" shaper:cutDepth="0" /><path d="M9.9670137,0.1050652 L9.9670137,0.2337487 9.9670137,0.2337487 9.9505488,0.2181598 9.9418267,0.2113836 9.9325169,0.2058293 9.9224699,0.2018078 9.9118,0.1990816 9.8894218,0.1957883 9.8894218,0.1957883 9.8786506,0.1963791 9.8680533,0.1978009 9.8577547,0.2006496 9.8476413,0.2043831 9.8476413,0.2043831 9.8396324,0.2086229 9.8321449,0.2135179 9.8255735,0.2195641 9.8195887,0.2263476 9.8195887,0.2263476 9.8153223,0.2332939 9.8116265,0.2404889 9.8088783,0.248097 9.8066965,0.255952 9.8066965,0.255952 9.803778,0.281048 9.8032349,0.3063272 9.8032349,0.4550652 9.870322,0.4550652 9.870322,0.3211294 9.870322,0.3211294 9.8706593,0.295675 9.8719965,0.2830573 9.874142,0.2705155 9.874142,0.2705155 9.8765246,0.2654668 9.8794484,0.2608454 9.883271,0.2569332 9.887631,0.2534452 9.887631,0.2534452 9.8933519,0.2506181 9.8992656,0.2485026 9.9054793,0.2474957 9.9118636,0.2471184 9.9118636,0.2471184 9.9197223,0.2477018 9.9273672,0.2490621 9.9346485,0.2517438 9.9417067,0.2552358 9.9417067,0.2552358 9.9479559,0.2602059 9.9533975,0.2658177 9.9575396,0.2724622 9.9609259,0.2797071 9.9609259,0.2797071 9.963894,0.2915929 9.9659752,0.3036018 9.9668245,0.3157816 9.9670137,0.328053 9.9670137,0.4550652 10.0341011,0.4550652 10.0341011,0.1050652 9.9670137,0.1050652z" transform="matrix(1,0,0,-1,-0,12.5)" fill="rgb(255,255,255)" stroke="rgb(0,0,0)" stroke-width="0.0010cm" stroke-linecap="round" stroke-linejoin="round" shaper:cutDepth="0" /><path d="M10.5543261,0.2788715 L10.6152061,0.2678893 10.6152061,0.2678893 10.6095966,0.2521396 10.6062645,0.244615 10.6022995,0.2375107 10.5975236,0.230945 10.5920358,0.2248521 10.5798719,0.2134554 10.5798719,0.2134554 10.5622749,0.205055 10.5532829,0.2016067 10.5440616,0.1990493 10.5346026,0.1974159 10.5249632,0.1964838 10.5053835,0.1957883 10.5053835,0.1957883 10.4882609,0.1961081 10.4713413,0.1975834 10.4548011,0.2012177 10.438535,0.2064125 10.438535,0.2064125 10.4293542,0.2115312 10.4209272,0.2174942 10.4138375,0.2249554 10.4076174,0.2333906 10.4076174,0.2333906 10.4029773,0.2479863 10.3998803,0.2628489 10.3987576,0.2780529 10.3986645,0.293435 10.3993807,0.3717433 10.3993807,0.3717433 10.3988764,0.3964749 10.3961578,0.4210441 10.3961578,0.4210441 10.3912003,0.4384299 10.3841012,0.4550652 10.4504722,0.4550652 10.4504722,0.4550652 10.4569183,0.4352494 10.4569183,0.4352494 10.4593058,0.4273708 10.4593058,0.4273708 10.467708,0.4348028 10.4765316,0.4416129 10.4860781,0.4473564 10.4960723,0.4524391 10.4960723,0.4524391 10.5062214,0.456 10.5165332,0.4587516 10.5271134,0.4601693 10.5378528,0.4607951 10.5378528,0.4607951 10.5547401,0.4595505 10.562946,0.4582651 10.5708666,0.4561839 10.5784205,0.4530803 10.5856503,0.4490724 10.5995684,0.4395468 10.5995684,0.4395468 10.6092037,0.4278087 10.6133337,0.4216485 10.6166386,0.415139 10.6189489,0.4082085 10.6204557,0.4009377 10.6221297,0.3858292 10.6221297,0.3858292 10.6213974,0.3757519 10.6196806,0.3659417 10.6162872,0.3565864 10.6118637,0.3475107 10.6118637,0.3475107 10.6059816,0.3396075 10.5993791,0.3325056 10.5915894,0.3267241 10.5830949,0.3217262 10.5830949,0.3217262 10.5701101,0.3166416 10.5569102,0.3122689 10.5297354,0.3060884 10.5297354,0.3060884 10.4967599,0.2993223 10.4805674,0.2948169 10.4645582,0.2896151 10.4645582,0.2829302 10.4645582,0.2829302 10.4649491,0.2752851 10.4663462,0.2680187 10.4695889,0.2614468 10.474108,0.2553552 10.474108,0.2553552 10.4825591,0.2511569 10.4913664,0.2483161 10.50064,0.2472511 10.5101584,0.2471185 10.5101584,0.2471185 10.5175249,0.2474523 10.5246959,0.248514 10.531513,0.2508937 10.5380915,0.2541614 10.5380915,0.2541614 10.5434863,0.2594276 10.5480863,0.2652358 10.5515246,0.2718365 10.5543261,0.2788715z" transform="matrix(1,0,0,-1,-0,12.5)" fill="rgb(255,255,255)" stroke="rgb(0,0,0)" stroke-width="0.0010cm" stroke-linecap="round" stroke-linejoin="round" shaper:cutDepth="0" /><path d="M11.83185,0.2015182 L11.7700151,0.2015182 11.7700151,0.2361362 11.7700151,0.2361362 11.7534316,0.2196965 11.7446133,0.212531 11.735163,0.2066309 11.7249148,0.2023284 11.7139854,0.1993902 11.6909905,0.1957883 11.6909905,0.1957883 11.6799737,0.1964368 11.669196,0.1980677 11.6588336,0.2014045 11.6487327,0.2058156 11.6487327,0.2058156 11.6399297,0.2119668 11.6319441,0.2189172 11.6252734,0.2271531 11.6193671,0.2361362 11.6193671,0.2361362 11.6113929,0.227309 11.602871,0.2191395 11.5933953,0.2121155 11.5833166,0.2058156 11.5833166,0.2058156 11.5734118,0.2015769 11.5632771,0.1982843 11.5527599,0.1965653 11.5420137,0.1957883 11.5420137,0.1957883 11.5296633,0.196477 11.5175919,0.1982906 11.5060105,0.2020786 11.4947422,0.2071287 11.4947422,0.2071287 11.4856514,0.2138244 11.4775933,0.2214213 11.4712254,0.2304926 11.4658541,0.2404336 11.4658541,0.2404336 11.4623831,0.253306 11.4600025,0.2663405 11.4590809,0.2795917 11.4589305,0.2929575 11.4589305,0.4550652 11.5260178,0.4550652 11.5260178,0.3101471 11.5260178,0.3101471 11.5259669,0.2976638 11.5267521,0.2853247 11.5291661,0.2732665 11.5329414,0.2614432 11.5329414,0.2614432 11.5387319,0.2551861 11.5418676,0.2525267 11.5452918,0.2504299 11.5530842,0.2480776 11.5615907,0.2471185 11.5615907,0.2471185 11.5686751,0.2478372 11.5755055,0.2493467 11.5819208,0.2521491 11.5880914,0.2557133 11.5880914,0.2557133 11.5940183,0.2609646 11.5991304,0.2668034 11.6029404,0.2735807 11.6059974,0.2809009 11.6059974,0.2809009 11.6087429,0.2938404 11.61063,0.306881 11.6113643,0.3200572 11.6114885,0.3333054 11.6114885,0.4550652 11.6785758,0.4550652 11.6785758,0.3161157 11.6785758,0.3161157 11.6789226,0.2921085 11.6801739,0.280204 11.682157,0.2683668 11.682157,0.2683668 11.6864063,0.2594475 11.6895735,0.2557259 11.6932586,0.2523709 11.6932586,0.2523709 11.6980624,0.2499577 11.7030412,0.2481877 11.7136713,0.2471185 11.7136713,0.2471185 11.7210938,0.2477472 11.7282784,0.2491669 11.7350627,0.2519175 11.7416044,0.2554745 11.7416044,0.2554745 11.7474497,0.2604607 11.7525155,0.2660276 11.7563211,0.2725336 11.7593909,0.2795878 11.7593909,0.2795878 11.7621198,0.292497 11.7639714,0.3055088 11.7646701,0.3186554 11.7647627,0.3318729 11.7647627,0.4550652 11.83185,0.4550652 11.83185,0.2015182z" transform="matrix(1,0,0,-1,-0,12.5)" fill="rgb(255,255,255)" stroke="rgb(0,0,0)" stroke-width="0.0010cm" stroke-linecap="round" stroke-linejoin="round" shaper:cutDepth="0" /><path d="M12.3313043,0.3247105 L12.3313043,0.3247105 12.329946,0.3078381 12.3270659,0.2913503 12.3216874,0.2754937 12.3148309,0.2600107 12.3148309,0.2600107 12.3056331,0.2456528 12.3006153,0.2388844 12.2950946,0.2326084 12.2889552,0.2269388 12.2823056,0.2217688 12.2681563,0.2122617 12.2681563,0.2122617 12.2520279,0.2051764 12.2438368,0.2021473 12.2354935,0.1997345 12.2269683,0.1980582 12.2182969,0.1969732 12.2007108,0.1957883 12.2007108,0.1957883 12.1744319,0.1984149 12.1617447,0.2008516 12.1496001,0.2046363 12.1381346,0.210108 12.1272409,0.2170001 12.1064066,0.2331519 12.1064066,0.2331519 12.0905492,0.2541249 12.083777,0.2650682 12.0783922,0.2765596 12.0746603,0.2887038 12.0722516,0.3013706 12.0696399,0.3275755 12.0696399,0.3275755 12.0722862,0.3540385 12.074722,0.3668309 12.0784929,0.3790964 12.0839302,0.3907043 12.0907651,0.4017607 12.1067647,0.422954 12.1067647,0.422954 12.1273665,0.4391748 12.1381448,0.4461182 12.1494959,0.4516611 12.1615345,0.4555233 12.1741266,0.4580324 12.2002333,0.4607951 12.2002333,0.4607951 12.2174926,0.4595473 12.2344037,0.4568276 12.2507366,0.4516635 12.2667238,0.4450379 12.2667238,0.4450379 12.28126,0.4360972 12.288102,0.431184 12.2944329,0.4257393 12.3001355,0.4196417 12.3053212,0.4130066 12.3148309,0.3988408 12.3148309,0.3988408 12.3221876,0.3810537 12.3252877,0.3720271 12.3276948,0.3628409 12.3293141,0.3534734 12.3303189,0.3439644 12.3313043,0.3247105z" transform="matrix(1,0,0,-1,-0,12.5)" fill="rgb(255,255,255)" stroke="rgb(0,0,0)" stroke-width="0.0010cm" stroke-linecap="round" stroke-linejoin="round" shaper:cutDepth="0" /><path d="M13.6935235,7.2168981 L13.7516689,7.2788506 14.3208268,6.7446689 14.2626814,6.6827164 13.6935235,7.2168981z" transform="matrix(1,0,0,-1,-0,12.5)" fill="rgb(255,255,255)" stroke="rgb(0,0,0)" stroke-width="0.0010cm" stroke-linecap="round" stroke-linejoin="round" shaper:cutDepth="0" /></svg>