<?xml version="1.0" encoding="utf-8"?>
<!-- Generator: Fusion 360, Shaper Origin Export Add-In, Version 1.6.2  -->
<svg xmlns="http://www.w3.org/2000/svg" xmlns:xlink="http://www.w3.org/1999/xlink" xmlns:shaper="http://www.shapertools.com/namespaces/shaper" shaper:fusionaddin="version:1.6.2" width="12.5000002cm" height="12.2000002cm" version="1.1" x="0cm" y="0cm" viewBox="0 0 12.5000002 12.2000002" enable-background="new 0 0 12.5000002 12.2000002" xml:space="preserve"><path d="M2.9,12.2 A0.9,0.9 90 0,1 2,11.3 L2,11.1 A0.9,0.9 0 0,0 1.1,10.2 L0,10.2 -0.0000002,9.94 0.2999999,9.94 0.2999999,9.86 -0.0000002,9.86 -0.0000002,9.48 0.1499998,9.48 0.1499998,9.42 -0.0000002,9.42 -0.0000002,9.04 0.2999999,9.04 0.2999999,8.96 -0.0000002,8.96 -0.0000002,8.58 0.1499998,8.58 0.1499998,8.52 -0.0000002,8.52 -0.0000002,8.14 0.2999999,8.14 0.2999999,8.06 -0.0000002,8.06 -0.0000002,7.68 0.1499998,7.68 0.1499998,7.62 -0.0000002,7.62 -0.0000002,7.24 0.2999999,7.24 0.2999999,7.16 -0.0000002,7.16 -0.0000002,6.78 0.1499998,6.78 0.1499998,6.72 -0.0000002,6.72 -0.0000002,6.34 0.2999999,6.34 0.2999999,6.26 -0.0000002,6.26 -0.0000002,5.88 0.1499998,5.88 0.1499998,5.82 -0.0000002,5.82 -0.0000002,5.44 0.2999999,5.44 0.2999999,5.36 -0.0000002,5.36 -0.0000002,4.98 0.1499998,4.98 0.1499998,4.92 -0.0000002,4.92 -0.0000002,4.54 0.2999999,4.54 0.2999999,4.46 -0.0000002,4.46 -0.0000002,4.08 0.1499998,4.08 0.1499998,4.02 -0.0000002,4.02 -0.0000002,3.64 0.2999999,3.64 0.2999999,3.56 -0.0000002,3.56 -0.0000002,3.18 0.1499998,3.18 0.1499998,3.12 -0.0000002,3.12 -0.0000002,2.74 0.2999999,2.74 0.2999999,2.66 -0.0000002,2.66 -0.0000002,2.28 0.1499998,2.28 0.1499998,2.22 -0.0000002,2.22 -0.0000002,1.84 0.2999999,1.84 0.2999999,1.76 -0.0000002,1.76 -0.0000002,1.38 0.1499998,1.38 0.1499998,1.32 -0.0000002,1.32 -0.0000002,0.94 0.2999999,0.94 0.2999999,0.86 -0.0000002,0.86 -0.0000002,0.48 0.1499998,0.48 0.1499998,0.42 -0.0000002,0.42 0,0 0.42,-0.0000002 0.42,0.1499998 0.48,0.1499998 0.48,-0.0000002 0.86,-0.0000002 0.86,0.2999999 0.94,0.2999999 0.94,-0.0000002 1.32,-0.0000002 1.32,0.1499998 1.38,0.1499998 1.38,-0.0000002 1.76,-0.0000002 1.76,0.2999999 1.84,0.2999999 1.84,-0.0000002 2.22,-0.0000002 2.22,0.1499998 2.28,0.1499998 2.28,-0.0000002 2.66,-0.0000002 2.66,0.2999999 2.74,0.2999999 2.74,-0.0000002 3.12,-0.0000002 3.12,0.1499998 3.18,0.1499998 3.18,-0.0000002 3.56,-0.0000002 3.56,0.2999999 3.64,0.2999999 3.64,-0.0000002 4.02,-0.0000002 4.02,0.1499998 4.08,0.1499998 4.08,-0.0000002 4.46,-0.0000002 4.46,0.2999999 4.54,0.2999999 4.54,-0.0000002 4.92,-0.0000002 4.92,0.1499998 4.98,0.1499998 4.98,-0.0000002 5.36,-0.0000002 5.36,0.2999999 5.44,0.2999999 5.44,-0.0000002 5.82,-0.0000002 5.82,0.1499998 5.88,0.1499998 5.88,-0.0000002 6.26,-0.0000002 6.26,0.2999999 6.34,0.2999999 6.34,-0.0000002 6.72,-0.0000002 6.72,0.1499998 6.78,0.1499998 6.78,-0.0000002 7.16,-0.0000002 7.16,0.2999999 7.24,0.2999999 7.24,-0.0000002 7.62,-0.0000002 7.62,0.1499998 7.68,0.1499998 7.68,-0.0000002 8.06,-0.0000002 8.06,0.2999999 8.14,0.2999999 8.14,-0.0000002 8.52,-0.0000002 8.52,0.1499998 8.58,0.1499998 8.58,-0.0000002 8.96,-0.0000002 8.96,0.2999999 9.04,0.2999999 9.04,-0.0000002 9.42,-0.0000002 9.42,0.1499998 9.48,0.1499998 9.48,-0.0000002 9.86,-0.0000002 9.86,0.2999999 9.94,0.2999999 9.94,-0.0000002 10.32,-0.0000002 10.32,0.1499998 10.38,0.1499998 10.38,-0.0000002 10.76,-0.0000002 10.76,0.2999999 10.84,0.2999999 10.84,-0.0000002 11.22,-0.0000002 11.22,0.1499998 11.28,0.1499998 11.28,-0.0000002 11.66,-0.0000002 11.66,0.2999999 11.74,0.2999999 11.74,-0.0000002 12.5,0 12.5,10.2 4.9,10.2 A0.9,0.9 270 0,0 4,11.1 L4,11.3 A0.9,0.9 0 0,1 3.1,12.2 L2.9,12.2z" transform="matrix(1,0,0,-1,0.0000002,12.2)" fill="rgb(0,0,0)" shaper:cutDepth="0" stroke-linecap="round" stroke-linejoin="round" /><path d="M4.2778855,5.3495313 L4.4404863,5.0966881 4.4122587,5.0785352 4.3969838,5.1022877 4.3969838,5.1022877 4.3960519,5.0930821 4.3944106,5.0840628 4.3915363,5.0753669 4.3878847,5.066875 4.3878847,5.066875 4.3825861,5.0590808 4.3766056,5.0519437 4.3695581,5.045835 4.3619025,5.0403124 4.3619025,5.0403124 4.3503857,5.0341262 4.3384676,5.0293133 4.3258663,5.0268374 4.3128457,5.0257957 4.3128457,5.0257957 4.2997712,5.027406 4.2871712,5.0304304 4.2753413,5.0357492 4.2639621,5.0424112 4.2639621,5.0424112 4.2524946,5.051587 4.2418341,5.061532 4.2324842,5.072726 4.2239024,5.084652 4.2239024,5.084652 4.2162263,5.0980938 4.2096535,5.111965 4.2049788,5.126575 4.2014845,5.1416443 4.2014845,5.1416443 4.2004972,5.1553345 4.2009956,5.1688208 4.2040242,5.1819597 4.2086071,5.1948852 4.2086071,5.1948852 4.2149241,5.2059671 4.2222378,5.2161859 4.2312409,5.2249417 4.2412763,5.2328038 4.2412763,5.2328038 4.248801,5.2369969 4.2565803,5.2404629 4.2647954,5.2426853 4.2732797,5.2441394 4.2732797,5.2441394 4.2888919,5.2439879 4.2965468,5.2426134 4.3041298,5.2406218 4.246904,5.3296075 4.2778855,5.3495313z" transform="matrix(1,0,0,-1,0.0000002,12.2)" fill="rgb(255,255,255)" stroke="rgb(0,0,0)" stroke-width="0.0010cm" stroke-linecap="round" stroke-linejoin="round" shaper:cutDepth="0" /><path d="M4.364119,3.4676259 L4.364119,3.4676259 4.3840483,3.4762718 4.4043135,3.4838146 4.4251913,3.4893463 4.4464874,3.4935051 4.4464874,3.4935051 4.4616912,3.4942031 4.4766641,3.493402 4.4839967,3.4920024 4.4912329,3.4899766 4.5055442,3.4848801 4.5055442,3.4848801 4.5177888,3.4767865 4.5234587,3.4723162 4.5285863,3.4673379 4.5330836,3.4617693 4.5370839,3.4557354 4.5442563,3.4428918 4.5442563,3.4428918 4.5482804,3.4326232 4.5513497,3.4221601 4.5527661,3.4113604 4.5531463,3.4003496 4.5531463,3.4003496 4.5516665,3.3900164 4.5492269,3.3799977 4.5452118,3.3704955 4.5402646,3.3612988 4.5402646,3.3612988 4.5330897,3.351486 4.5253415,3.3421959 4.5166941,3.3337256 4.5075334,3.3257234 4.5075334,3.3257234 4.4929136,3.3154634 4.4778284,3.3059903 4.4620729,3.2976511 4.4459525,3.2899292 4.4459525,3.2899292 4.4261206,3.2813295 4.4059555,3.2738206 4.3851837,3.2682979 4.3639987,3.2641283 4.3639987,3.2641283 4.348789,3.2633924 4.3338069,3.2641585 4.3264673,3.2655421 4.3192227,3.2675522 4.3048917,3.2726175 4.3048917,3.2726175 4.2925827,3.2807243 4.2868844,3.2852055 4.2817331,3.2902 4.2772167,3.2957899 4.2732003,3.3018489 4.2660011,3.3147489 4.2660011,3.3147489 4.2597849,3.3334927 4.2577068,3.3428618 4.2568648,3.3522274 4.2575688,3.3615889 4.2595732,3.3709467 4.2657494,3.3896565 4.2657494,3.3896565 4.2856687,3.4147568 4.296531,3.4262237 4.3084538,3.4364181 4.3214367,3.4453402 4.3352196,3.4533022 4.364119,3.4676259z" transform="matrix(1,0,0,-1,0.0000002,12.2)" fill="rgb(255,255,255)" stroke="rgb(0,0,0)" stroke-width="0.0010cm" stroke-linecap="round" stroke-linejoin="round" shaper:cutDepth="0" /><path d="M7.8314311,2.3063314 L7.9519992,2.2390432 8.0482051,2.3229107 8.0529682,2.277114 8.0057372,2.2386657 8.0057372,2.2386657 7.9830825,2.2210846 7.9830825,2.2210846 8.0086114,2.2070746 8.0634894,2.1759544 8.0680409,2.1321932 7.9585014,2.1963078 7.8524735,2.1040121 7.8477951,2.1489946 7.9103485,2.2003523 7.9272358,2.2140418 7.8360461,2.2619596 7.8314311,2.3063314z" transform="matrix(1,0,0,-1,0.0000002,12.2)" fill="rgb(255,255,255)" stroke="rgb(0,0,0)" stroke-width="0.0010cm" stroke-linecap="round" stroke-linejoin="round" shaper:cutDepth="0" /><path d="M7.4287255,3.0930337 L7.4024311,3.1188294 7.5668072,3.2863829 7.5668072,3.2863829 7.5452949,3.2883328 7.5241302,3.2927032 7.5241302,3.2927032 7.5033262,3.2985956 7.4831203,3.306275 7.5080562,3.3316929 7.5080562,3.3316929 7.5235465,3.3269429 7.5392047,3.3230362 7.5551494,3.3205679 7.5712705,3.3189849 7.5712705,3.3189849 7.5843299,3.3187859 7.5972898,3.3194205 7.6100705,3.3215546 7.6227319,3.3246869 7.6396771,3.308063 7.4287255,3.0930337z" transform="matrix(1,0,0,-1,0.0000002,12.2)" fill="rgb(255,255,255)" stroke="rgb(0,0,0)" stroke-width="0.0010cm" stroke-linecap="round" stroke-linejoin="round" shaper:cutDepth="0" /><path d="M10.2327586,2.3165252 L10.2327586,2.3165252 10.2480727,2.3261795 10.2638037,2.334968 10.280295,2.3421781 10.2973052,2.3483107 10.2973052,2.3483107 10.309738,2.3508185 10.3221712,2.3520623 10.3346052,2.3510934 10.3470397,2.3487155 10.3470397,2.3487155 10.358153,2.3436066 10.363391,2.3406457 10.3682468,2.3371976 10.3767203,2.3287224 10.3842602,2.3190565 10.3842602,2.3190565 10.3888799,2.3111111 10.3927379,2.3028842 10.3952775,2.2941698 10.3969905,2.28515 10.3969905,2.28515 10.3970855,2.2764516 10.39635,2.2678903 10.3942513,2.259554 10.3913462,2.2513509 10.3913462,2.2513509 10.3866846,2.2423571 10.3814844,2.2337208 10.3689124,2.2178905 10.3689124,2.2178905 10.3581762,2.2075818 10.3469567,2.1978621 10.3227463,2.180582 10.3227463,2.180582 10.3075065,2.1709782 10.2918537,2.1622303 10.2754486,2.1550411 10.2585312,2.1489137 10.2585312,2.1489137 10.2460984,2.1463739 10.233662,2.1451001 10.2212194,2.146041 10.2087727,2.1483907 10.2087727,2.1483907 10.1976046,2.1535023 10.1923419,2.1564685 10.1874644,2.1599269 10.178956,2.1684359 10.1713869,2.1781448 10.1713869,2.1781448 10.1638843,2.1927915 10.1609817,2.2002435 10.1590976,2.2078498 10.1584872,2.2156491 10.1589482,2.2236109 10.1616562,2.239805 10.1616562,2.239805 10.1748701,2.2630096 10.1823582,2.2738345 10.1908815,2.2837461 10.2004396,2.2927448 10.2107787,2.3010544 10.2327586,2.3165252z" transform="matrix(1,0,0,-1,0.0000002,12.2)" fill="rgb(255,255,255)" stroke="rgb(0,0,0)" stroke-width="0.0010cm" stroke-linecap="round" stroke-linejoin="round" shaper:cutDepth="0" /><path d="M10.3080174,4.621634 L10.4858099,4.3792323 10.458748,4.3593835 10.442046,4.382155 10.442046,4.382155 10.4416801,4.3729097 10.4405947,4.3638067 10.4382588,4.354951 10.4351346,4.3462513 10.4351346,4.3462513 10.4303236,4.3381469 10.4247918,4.3306567 10.418132,4.3241275 10.4108293,4.3181461 10.4108293,4.3181461 10.3997133,4.3112656 10.3881126,4.3057313 10.3756867,4.3024876 10.3627545,4.3006498 10.3627545,4.3006498 10.3496058,4.3014557 10.3368442,4.3037022 10.3247105,4.3082859 10.3129443,4.3142379 10.3129443,4.3142379 10.300936,4.3226936 10.289686,4.3319664 10.2796676,4.3425664 10.270371,4.353944 10.270371,4.353944 10.2618854,4.36689 10.2544748,4.3803323 10.2489134,4.3946282 10.244502,4.409455 10.244502,4.409455 10.2426775,4.423059 10.2423483,4.4365505 10.2445659,4.4498503 10.248348,4.4630324 10.248348,4.4630324 10.2539738,4.4744806 10.2606474,4.4851285 10.269097,4.4944197 10.2786316,4.5028821 10.2786316,4.5028821 10.2858851,4.5075284 10.2934374,4.5114648 10.3015009,4.5141865 10.30988,4.5161579 10.30988,4.5161579 10.3254722,4.5169637 10.3331969,4.5160609 10.3408877,4.5145378 10.2783154,4.5998487 10.3080174,4.621634z" transform="matrix(1,0,0,-1,0.0000002,12.2)" fill="rgb(255,255,255)" stroke="rgb(0,0,0)" stroke-width="0.0010cm" stroke-linecap="round" stroke-linejoin="round" shaper:cutDepth="0" /><path d="M11.9650036,8.1941576 L11.9556926,8.1175205 11.9556926,8.1175205 11.9504715,8.1165322 11.9455644,8.1149312 11.9412353,8.1122022 11.9373092,8.108687 11.9373092,8.108687 11.9338448,8.1016048 11.9314004,8.0942556 11.9303882,8.0865313 11.9301469,8.0786051 11.9301469,8.0786051 11.9304222,8.0683859 11.9315424,8.0583517 11.9342289,8.0486604 11.9380254,8.0392122 11.9380254,8.0392122 11.9414561,8.0348657 11.9453453,8.0310897 11.949955,8.02821 11.9549763,8.0258425 11.9549763,8.0258425 11.9702398,8.0231395 11.9857744,8.0227387 12.0227799,8.0227387 12.0227799,8.0227387 12.0059423,8.0382307 11.9986194,8.0465584 11.9926116,8.0555841 11.9882557,8.0654868 11.9852985,8.0761319 11.9817157,8.0986597 11.9817157,8.0986597 11.9851968,8.1227825 11.988193,8.134177 11.9926958,8.1447712 11.9990248,8.1543955 12.0068359,8.1632324 12.0249286,8.1795942 12.0249286,8.1795942 12.0448853,8.1899854 12.0550932,8.1943736 12.0655763,8.1977942 12.0763747,8.2001061 12.0874199,8.20155 12.1099217,8.2029912 12.1099217,8.2029912 12.136324,8.2014564 12.1491967,8.199706 12.1616751,8.1967762 12.1736401,8.1923101 12.1851334,8.1864324 12.2073296,8.1723124 12.2073296,8.1723124 12.2215358,8.1557986 12.2276516,8.1471059 12.2325827,8.1378903 12.2360664,8.1280357 12.2383662,8.1176586 12.2409927,8.0960335 12.2409927,8.0960335 12.2374482,8.0730826 12.2344975,8.0622245 12.2301327,8.0521074 12.2240882,8.0428703 12.2167012,8.0343366 12.1996898,8.0184414 12.2352628,8.0184414 12.2352628,7.9556514 12.0077389,7.9556514 12.0077389,7.9556514 11.9907657,7.9558568 11.9738916,7.9568726 11.9572037,7.9594081 11.9406516,7.9630526 11.9406516,7.9630526 11.9310569,7.9667932 11.9219221,7.9712924 11.913598,7.9771282 11.9057949,7.9838233 11.9057949,7.9838233 11.8994436,7.9919578 11.8938914,8.0005433 11.8895824,8.0098304 11.885979,8.0195158 11.885979,8.0195158 11.8826747,8.0334285 11.8802583,8.0474603 11.8791695,8.0616702 11.8788167,8.0759789 11.8788167,8.0759789 11.8794168,8.1001674 11.8804738,8.1120573 11.8824391,8.1237019 11.8856101,8.1350209 11.8900075,8.1460089 11.9009006,8.1674182 11.9009006,8.1674182 11.9127144,8.1787145 11.9189911,8.1835914 11.9257117,8.1875426 11.9329791,8.1903536 11.9406975,8.1922238 11.9568863,8.1943963 11.9568863,8.1943963 11.9650036,8.1941576z" transform="matrix(1,0,0,-1,0.0000002,12.2)" fill="rgb(255,255,255)" stroke="rgb(0,0,0)" stroke-width="0.0010cm" stroke-linecap="round" stroke-linejoin="round" shaper:cutDepth="0" /><path d="M11.9817157,6.1225684 L12.3317157,6.1225684 12.3317157,5.9738303 12.3317157,5.9738303 12.3315119,5.9531668 12.3302572,5.9326402 12.3270146,5.9123727 12.3222853,5.892299 12.3222853,5.892299 12.3162722,5.8801765 12.312857,5.8744504 12.3089516,5.8691264 12.3044555,5.8642867 12.2994825,5.8598382 12.2887417,5.8515931 12.2887417,5.8515931 12.2757285,5.8450126 12.262286,5.8399627 12.2481442,5.8374059 12.2335916,5.8363133 12.2335916,5.8363133 12.2157881,5.8378722 12.2071421,5.8393547 12.198803,5.8416808 12.1908509,5.8450708 12.1832285,5.8493673 12.1685336,5.8594716 12.1685336,5.8594716 12.1561689,5.874707 12.150763,5.8827012 12.1462858,5.8911456 12.1428356,5.9000878 12.140178,5.9094143 12.1361837,5.9287076 12.1361837,5.9287076 12.1297766,5.9185169 12.122877,5.9087113 12.1151191,5.8995767 12.1068181,5.8908666 12.1068181,5.8908666 12.0932533,5.8799203 12.0792837,5.8695359 12.0499968,5.850638 11.9817157,5.8079026 11.9817157,5.8924184 12.0578754,5.9435099 12.0578754,5.9435099 12.0841889,5.9613334 12.1093249,5.9807539 12.1093249,5.9807539 12.1178904,5.9905103 12.1211439,5.9960842 12.1238883,6.0020023 12.1238883,6.0020023 12.1258584,6.0107729 12.1272122,6.0196202 12.1278276,6.0375753 12.1278276,6.0519 11.9817157,6.0519 11.9817157,6.1225684z" transform="matrix(1,0,0,-1,0.0000002,12.2)" fill="rgb(255,255,255)" stroke="rgb(0,0,0)" stroke-width="0.0010cm" stroke-linecap="round" stroke-linejoin="round" shaper:cutDepth="0" /><path d="M11.9817157,5.2408836 L11.9817157,5.3079708 12.1111155,5.3079708 12.1111155,5.3079708 12.1378464,5.3083952 12.1510844,5.309896 12.1642362,5.3122681 12.1642362,5.3122681 12.1696929,5.3147326 12.1747357,5.3177483 12.1790733,5.321703 12.1829777,5.3262346 12.1829777,5.3262346 12.1859027,5.3316857 12.1881236,5.3373437 12.1892187,5.3433324 12.1896625,5.3495124 12.1896625,5.3495124 12.1889434,5.3578434 12.1873205,5.365897 12.1841771,5.373484 12.1801127,5.3807881 12.1801127,5.3807881 12.1748867,5.3870028 12.169062,5.3924182 12.1622356,5.3964961 12.1548058,5.3997682 12.1548058,5.3997682 12.1403885,5.4024677 12.1258763,5.4042477 12.1112451,5.4048739 12.096552,5.4049013 11.9817157,5.4049013 11.9817157,5.4719885 12.2352628,5.4719885 12.2352628,5.4096759 12.1980186,5.4096759 12.1980186,5.4096759 12.2157853,5.3923501 12.2234901,5.3830891 12.2297807,5.3731103 12.2343075,5.3622364 12.2373568,5.3506127 12.2409927,5.3261154 12.2409927,5.3261154 12.2404307,5.3156814 12.2390992,5.3054013 12.2364526,5.295384 12.2329947,5.2855289 12.2329947,5.2855289 12.2290942,5.2776771 12.2245667,5.2702936 12.2189317,5.2637374 12.212582,5.257715 12.212582,5.257715 12.2060211,5.2534009 12.1991953,5.2496534 12.1919326,5.2468408 12.1844101,5.2445839 12.1844101,5.2445839 12.1619576,5.2415238 12.1392874,5.2408836 11.9817157,5.2408836z" transform="matrix(1,0,0,-1,0.0000002,12.2)" fill="rgb(255,255,255)" stroke="rgb(0,0,0)" stroke-width="0.0010cm" stroke-linecap="round" stroke-linejoin="round" shaper:cutDepth="0" /><path d="M12.0540554,4.8978069 L12.0643215,4.8304809 12.0643215,4.8304809 12.0558091,4.8279294 12.0478659,4.8244278 12.0409164,4.8192667 12.0345977,4.8130525 12.0345977,4.8130525 12.0299156,4.8044895 12.0264921,4.7955577 12.0249501,4.7860746 12.0244511,4.7762859 12.0244511,4.7762859 12.0248299,4.7659661 12.0262187,4.7559133 12.0294644,4.7463516 12.0340009,4.7371314 12.0340009,4.7371314 12.0377201,4.7333917 12.0418535,4.7304896 12.0466746,4.7289781 12.0519067,4.728298 12.0519067,4.728298 12.0587168,4.7294256 12.0645602,4.733073 12.0645602,4.733073 12.0676898,4.7382925 12.0702175,4.7437675 12.0733938,4.7555149 12.0733938,4.7555149 12.0791396,4.7820661 12.0860214,4.8082311 12.0902433,4.8210481 12.0951219,4.833642 12.1061018,4.858414 12.1061018,4.858414 12.1176342,4.8711149 12.1238664,4.8765818 12.130658,4.8809883 12.1381326,4.8841 12.1461655,4.8861533 12.1631619,4.8884957 12.1631619,4.8884957 12.1790518,4.8863693 12.1866454,4.884553 12.1938176,4.8818329 12.2004809,4.8780221 12.2067328,4.8733291 12.2185507,4.8624728 12.2185507,4.8624728 12.2292181,4.8438269 12.2335977,4.8342157 12.2368465,4.8242627 12.238922,4.8139552 12.240107,4.8033785 12.2409927,4.7817767 12.2409927,4.7817767 12.240403,4.7615623 12.2395399,4.7515916 12.2379948,4.7417847 12.2355481,4.7321943 12.2322141,4.722817 12.2240418,4.7044237 12.2240418,4.7044237 12.2137288,4.692557 12.2081838,4.687175 12.2021728,4.6824545 12.1956137,4.678512 12.1886193,4.6751871 12.1739054,4.6695669 12.1622069,4.7328341 12.1622069,4.7328341 12.1688345,4.7352894 12.1749506,4.7384898 12.1801902,4.7429667 12.1848876,4.7482331 12.1848876,4.7482331 12.1885798,4.7558705 12.1912486,4.7637753 12.1924185,4.7720718 12.1927662,4.7805832 12.1927662,4.7805832 12.1925848,4.7904385 12.1915854,4.8001149 12.1890449,4.809454 12.1853651,4.8185437 12.1853651,4.8185437 12.1826362,4.821676 12.179548,4.824156 12.1758434,4.8255167 12.1717567,4.8261836 12.1717567,4.8261836 12.1681462,4.8255722 12.1648554,4.8243628 12.162072,4.8222041 12.1595807,4.8194988 12.1595807,4.8194988 12.1533625,4.8043197 12.1482051,4.7887958 12.1407198,4.7568281 12.1407198,4.7568281 12.135911,4.7370009 12.129804,4.7177197 12.12586,4.7084538 12.1212483,4.6994686 12.1108767,4.6819814 12.1108767,4.6819814 12.100119,4.6727603 12.094438,4.6688482 12.0883947,4.6657739 12.0819293,4.663675 12.075131,4.6623462 12.060979,4.6609719 12.060979,4.6609719 12.0437193,4.6634885 12.035486,4.6655762 12.0277285,4.668659 12.020535,4.6729212 12.0137914,4.6781244 12.0010541,4.690099 12.0010541,4.690099 11.9893476,4.7099496 11.9845043,4.7201898 11.9808634,4.730805 11.9785034,4.7418195 11.9771211,4.753139 11.9759859,4.7762859 11.9759859,4.7762859 11.977046,4.7979244 11.9782483,4.8085615 11.9802574,4.8189799 11.9833165,4.8291136 11.9873385,4.8389864 11.9969954,4.8582948 11.9969954,4.8582948 12.0087376,4.8718113 12.0150397,4.8779479 12.0218591,4.8833385 12.0293087,4.8878203 12.0372721,4.8915609 12.0540554,4.8978069z" transform="matrix(1,0,0,-1,0.0000002,12.2)" fill="rgb(255,255,255)" stroke="rgb(0,0,0)" stroke-width="0.0010cm" stroke-linecap="round" stroke-linejoin="round" shaper:cutDepth="0" /><path d="M11.4354675,9.4108015 L11.7854675,9.4108015 11.7854675,9.3050376 11.5467226,9.2415314 11.7854675,9.1787416 11.7854675,9.0727388 11.4354675,9.0727388 11.4354675,9.1383937 11.7109791,9.1383937 11.4354675,9.2078684 11.4354675,9.2759107 11.7109791,9.3451467 11.4354675,9.3451467 11.4354675,9.4108015z" transform="matrix(1,0,0,-1,0.0000002,12.2)" fill="rgb(255,255,255)" stroke="rgb(0,0,0)" stroke-width="0.0010cm" stroke-linecap="round" stroke-linejoin="round" shaper:cutDepth="0" /><path d="M11.6083188,9.0168725 L11.6083188,9.0168725 11.6313426,9.0159945 11.6427603,9.0150506 11.6540651,9.0135007 11.6652239,9.0111673 11.6762514,9.0081296 11.6980869,9.0008766 11.6980869,9.0008766 11.7110783,8.9941946 11.723526,8.9867117 11.7350705,8.9778979 11.7460746,8.9682879 11.7460746,8.9682879 11.7555339,8.958072 11.7641476,8.9472704 11.7713148,8.9354673 11.7775889,8.9230458 11.7775889,8.9230458 11.783696,8.9046836 11.7883077,8.8860395 11.790552,8.8669492 11.7914361,8.8476024 11.7914361,8.8476024 11.7901524,8.8302535 11.788283,8.8131376 11.7852422,8.7964875 11.7804442,8.7805364 11.7734216,8.7654701 11.7644911,8.7511626 11.7542879,8.7373613 11.7434484,8.7238131 11.7434484,8.7238131 11.7285742,8.7130327 11.7134575,8.7029197 11.6978557,8.6941416 11.6897971,8.6904617 11.6815279,8.6873615 11.6643834,8.6828291 11.6466046,8.6800422 11.628403,8.6784188 11.60999,8.6773773 11.60999,8.6773773 11.5917012,8.678418 11.5736215,8.6800356 11.55596,8.6828067 11.538926,8.6873082 11.5307087,8.6903855 11.5226994,8.6940366 11.5071896,8.7027421 11.4921587,8.7127684 11.4773673,8.723455 11.4773673,8.723455 11.4665485,8.7369256 11.4563655,8.7506498 11.4474542,8.7648812 11.4404494,8.7798729 11.4356657,8.7957505 11.4326358,8.8123276 11.430775,8.8293709 11.4294989,8.8466474 11.4294989,8.8466474 11.4307375,8.8640276 11.4325602,8.8811771 11.4355508,8.8978655 11.4402935,8.913862 11.443498,8.9215314 11.4472615,8.92898 11.4561497,8.9433397 11.4663189,8.9571937 11.4771285,8.9707947 11.4771285,8.9707947 11.4917376,8.9814474 11.506586,8.9914457 11.5219131,9.0001356 11.5298308,9.0037854 11.5379567,9.0068662 11.5548111,9.0113805 11.5722964,9.0141696 11.5902025,9.0158086 11.6083188,9.0168725z" transform="matrix(1,0,0,-1,0.0000002,12.2)" fill="rgb(255,255,255)" stroke="rgb(0,0,0)" stroke-width="0.0010cm" stroke-linecap="round" stroke-linejoin="round" shaper:cutDepth="0" /><path d="M11.9817157,4.9403036 L11.9817157,5.0026162 12.0189599,5.0026162 12.0189599,5.0026162 12.0093283,5.0104256 12.0005203,5.0189564 11.9931264,5.0287257 11.98661,5.0392635 11.98661,5.0392635 11.9822299,5.0494931 11.9787736,5.0599501 11.9768942,5.0707952 11.9759859,5.0818794 11.9759859,5.0818794 11.9789558,5.1033023 11.9814508,5.1135443 11.9851576,5.1232231 11.9903126,5.132229 11.9966297,5.1406947 12.0112007,5.1567262 12.0112007,5.1567262 12.0336309,5.1709016 12.0452326,5.1768305 12.0572967,5.1813734 12.0698727,5.1843822 12.0828437,5.1862068 12.1094442,5.1878822 12.1094442,5.1878822 12.1359579,5.1864115 12.1488933,5.1847002 12.1614428,5.1818177 12.173489,5.1774069 12.1850693,5.171582 12.207449,5.1575616 12.207449,5.1575616 12.2216905,5.1409758 12.2278081,5.132242 12.2327219,5.1229792 12.2361749,5.1130743 12.2384404,5.1026476 12.2409927,5.0809243 12.2409927,5.0809243 12.2379295,5.0598147 12.2353928,5.0497347 12.2316502,5.0402246 12.22648,5.0313889 12.2201718,5.0230909 12.2056584,5.0073913 12.3317157,5.0073913 12.3317157,4.9403036 11.9817157,4.9403036z" transform="matrix(1,0,0,-1,0.0000002,12.2)" fill="rgb(255,255,255)" stroke="rgb(0,0,0)" stroke-width="0.0010cm" stroke-linecap="round" stroke-linejoin="round" shaper:cutDepth="0" /><path d="M12.0624115,6.6829026 L12.0511905,6.6160541 12.0511905,6.6160541 12.0349328,6.6231606 12.0271792,6.6272232 12.0198759,6.6318972 12.0131413,6.6373433 12.0068925,6.643449 11.9952048,6.65676 11.9952048,6.65676 11.9866564,6.6730895 11.9830485,6.6814445 11.9802391,6.6900275 11.9783427,6.6988713 11.9771604,6.707919 11.9759859,6.7263542 11.9759859,6.7263542 11.978559,6.7546116 11.98119,6.7681218 11.9854345,6.7808897 11.9917484,6.7927057 11.9998846,6.8036834 12.0092374,6.8141014 12.0191987,6.8242395 12.0191987,6.8242395 12.0395949,6.8353896 12.0500509,6.8400957 12.060816,6.8437601 12.0719344,6.8462337 12.0833292,6.8477758 12.1065793,6.8493078 12.1065793,6.8493078 12.1334871,6.8474503 12.1465795,6.8454863 12.1592382,6.84228 12.1713372,6.8374712 12.1829365,6.8312314 12.2053003,6.816361 12.2053003,6.816361 12.2205033,6.7982375 12.2270262,6.7887108 12.2322547,6.7786262 12.2359183,6.767867 12.2383141,6.7565613 12.2409927,6.7330392 12.2409927,6.7330392 12.2384919,6.7077862 12.2361059,6.6956462 12.2323571,6.68409 12.226888,6.6732708 12.2199509,6.6630806 12.2036291,6.6437486 12.2036291,6.6437486 12.1772337,6.6284462 12.1636184,6.6222001 12.1495074,6.6176219 12.134878,6.6147877 12.1198546,6.6132795 12.0891509,6.6124728 12.0891509,6.7805493 12.0891509,6.7805493 12.0764762,6.7794071 12.0703114,6.7783636 12.0643538,6.7767533 12.0586638,6.7744106 12.0532139,6.7714112 12.0427151,6.7643147 12.0427151,6.7643147 12.0356796,6.7558882 12.032656,6.7514623 12.0302253,6.7467812 12.0285153,6.7417899 12.0273918,6.7365462 12.0261223,6.725638 12.0261223,6.725638 12.0266988,6.7184917 12.0281109,6.7116223 12.0309643,6.7052307 12.0347171,6.6991373 12.0347171,6.6991373 12.040732,6.6935806 12.0472811,6.6889047 12.0546261,6.6855407 12.0624115,6.6829026z" transform="matrix(1,0,0,-1,0.0000002,12.2)" fill="rgb(255,255,255)" stroke="rgb(0,0,0)" stroke-width="0.0010cm" stroke-linecap="round" stroke-linejoin="round" shaper:cutDepth="0" /><path d="M12.1120705,8.5021387 L12.1120705,8.5021387 12.1289429,8.5007804 12.1454307,8.4979003 12.1612872,8.4925218 12.1767703,8.4856652 12.1767703,8.4856652 12.1911281,8.4764675 12.1978966,8.4714496 12.2041725,8.465929 12.2098422,8.4597895 12.2150122,8.4531399 12.2245193,8.4389906 12.2245193,8.4389906 12.2316046,8.4228623 12.2346337,8.4146712 12.2370465,8.4063279 12.2387228,8.3978027 12.2398078,8.3891313 12.2409927,8.3715452 12.2409927,8.3715452 12.2383661,8.3452663 12.2359294,8.3325791 12.2321447,8.3204345 12.226673,8.308969 12.2197809,8.2980753 12.2036291,8.277241 12.2036291,8.277241 12.182656,8.2613837 12.1717127,8.2546114 12.1602214,8.2492267 12.1480772,8.2454947 12.1354104,8.2430861 12.1092055,8.2404743 12.1092055,8.2404743 12.0827425,8.2431206 12.0699501,8.2455564 12.0576846,8.2493273 12.0460767,8.2547646 12.0350203,8.2615996 12.0138269,8.2775991 12.0138269,8.2775991 11.9976062,8.2982009 11.9906629,8.3089792 11.9851199,8.3203303 11.9812577,8.3323688 11.9787486,8.3449609 11.9759859,8.3710677 11.9759859,8.3710677 11.9772337,8.388327 11.9799534,8.4052381 11.9851175,8.421571 11.991743,8.4375582 11.991743,8.4375582 12.0006838,8.4520944 12.005597,8.4589365 12.0110416,8.4652673 12.0171393,8.4709699 12.0237744,8.4761556 12.0379402,8.4856652 12.0379402,8.4856652 12.0557272,8.4930219 12.0647539,8.496122 12.0739401,8.4985291 12.0833076,8.5001485 12.0928166,8.5011533 12.1120705,8.5021387z" transform="matrix(1,0,0,-1,0.0000002,12.2)" fill="rgb(255,255,255)" stroke="rgb(0,0,0)" stroke-width="0.0010cm" stroke-linecap="round" stroke-linejoin="round" shaper:cutDepth="0" /><path d="M11.9817157,9.0474319 L11.9817157,9.1145192 12.2352628,9.1145192 12.2352628,9.0522067 12.1992123,9.0522067 12.1992123,9.0522067 12.2086189,9.0461332 12.2175403,9.039512 12.2255469,9.0318578 12.2328754,9.023438 12.2328754,9.023438 12.2363596,9.0165975 12.2390393,9.0095295 12.2404036,9.0020896 12.2409927,8.9944305 12.2409927,8.9944305 12.239929,8.9827932 12.237703,8.9714856 12.2335795,8.9607158 12.2283392,8.9502627 12.1698467,8.9710335 12.1698467,8.9710335 12.1741284,8.9783981 12.1776196,8.9860273 12.1796933,8.9941306 12.180829,9.0025478 12.180829,9.0025478 12.1802986,9.0089834 12.179017,9.01517 12.1764443,9.020929 12.1730698,9.0264223 12.1730698,9.0264223 12.1669353,9.0317954 12.1602676,9.0362441 12.152846,9.0393856 12.1450172,9.0418213 12.1450172,9.0418213 12.1239016,9.044885 12.1026976,9.0468416 12.0813879,9.047476 12.0600241,9.0474319 11.9817157,9.0474319z" transform="matrix(1,0,0,-1,0.0000002,12.2)" fill="rgb(255,255,255)" stroke="rgb(0,0,0)" stroke-width="0.0010cm" stroke-linecap="round" stroke-linejoin="round" shaper:cutDepth="0" /><path d="M11.9817157,9.762234 L12.3317157,9.762234 12.3317157,9.6934755 12.0979845,9.5502286 12.3317157,9.5502286 12.3317157,9.4845737 11.9817157,9.4845737 11.9817157,9.555481 12.2099559,9.6965792 11.9817157,9.6965792 11.9817157,9.762234z" transform="matrix(1,0,0,-1,0.0000002,12.2)" fill="rgb(255,255,255)" stroke="rgb(0,0,0)" stroke-width="0.0010cm" stroke-linecap="round" stroke-linejoin="round" shaper:cutDepth="0" /><path d="M10.7276683,4.6856245 L10.7276683,4.6856245 10.7422075,4.6694833 10.7558078,4.6526725 10.7676967,4.6346409 10.778417,4.6157758 10.778417,4.6157758 10.7839176,4.6015847 10.7879236,4.5871354 10.7889305,4.5797387 10.7893131,4.572234 10.7890364,4.5570448 10.7890364,4.5570448 10.7852608,4.542861 10.7828275,4.5360631 10.77974,4.5296178 10.7758923,4.5235821 10.7714453,4.5178694 10.7615523,4.5069822 10.7615523,4.5069822 10.7530984,4.4998992 10.7441562,4.4936595 10.7343689,4.4888795 10.7240517,4.4850146 10.7240517,4.4850146 10.7137848,4.4831288 10.7035107,4.4822529 10.6932247,4.483035 10.6829317,4.4847979 10.6829317,4.4847979 10.6713455,4.4884766 10.6600725,4.4928652 10.6492905,4.4983671 10.6387889,4.5045046 10.6387889,4.5045046 10.6244093,4.5150988 10.6106277,4.5263845 10.5977077,4.5386667 10.5852567,4.5514912 10.5852567,4.5514912 10.5707923,4.5675549 10.557256,4.5842816 10.5454094,4.6022155 10.5347141,4.6209719 10.5347141,4.6209719 10.5291757,4.6351565 10.5251337,4.6496034 10.5241094,4.6570016 10.5237093,4.6645093 10.5239501,4.6797073 10.5239501,4.6797073 10.5277177,4.6939563 10.5301524,4.7007845 10.5332476,4.7072575 10.5371094,4.7133182 10.5415751,4.7190541 10.551513,4.7299846 10.551513,4.7299846 10.5673038,4.7418432 10.5755243,4.746795 10.584135,4.750574 10.5932337,4.7528861 10.6027428,4.7539642 10.6224454,4.7540639 10.6224454,4.7540639 10.6525802,4.743169 10.666908,4.7365211 10.6803669,4.7284628 10.6929571,4.7189946 10.7048917,4.7084624 10.7276683,4.6856245z" transform="matrix(1,0,0,-1,0.0000002,12.2)" fill="rgb(255,255,255)" stroke="rgb(0,0,0)" stroke-width="0.0010cm" stroke-linecap="round" stroke-linejoin="round" shaper:cutDepth="0" /><path d="M11.7282693,1.9220081 L11.7282693,1.9220081 11.7396857,1.9360577 11.7517745,1.9494206 11.7650887,1.9615316 11.7792397,1.972788 11.7792397,1.972788 11.7902149,1.9791447 11.8015952,1.9843042 11.8136848,1.9873678 11.826226,1.9890966 11.826226,1.9890966 11.8383901,1.9878151 11.8443003,1.9866874 11.8500046,1.9849757 11.8607458,1.9796599 11.8709837,1.9729173 11.8709837,1.9729173 11.8779043,1.9668694 11.8841935,1.960311 11.8893897,1.9528686 11.8939007,1.9448722 11.8939007,1.9448722 11.8967759,1.9366622 11.8988205,1.9283162 11.8995016,1.9197468 11.8993761,1.9110453 11.8993761,1.9110453 11.8978398,1.9010323 11.8956787,1.8911857 11.8888375,1.8721632 11.8888375,1.8721632 11.8819674,1.8589596 11.874451,1.8461592 11.8570484,1.8220366 11.8570484,1.8220366 11.8456861,1.8080587 11.8336585,1.7947593 11.8204192,1.7826956 11.8063544,1.7714739 11.8063544,1.7714739 11.7953895,1.7650868 11.7840158,1.759898 11.771927,1.7568051 11.7593832,1.7550457 11.7593832,1.7550457 11.7471664,1.7563121 11.741231,1.757437 11.7355029,1.7591515 11.7247179,1.7644881 11.7144385,1.7712622 11.7144385,1.7712622 11.702641,1.7827354 11.6975051,1.7888656 11.6932846,1.7954681 11.690209,1.8026614 11.6880964,1.8103516 11.6854764,1.8265602 11.6854764,1.8265602 11.6905645,1.8527741 11.6941922,1.8654268 11.699093,1.8775458 11.7052665,1.8891311 11.7124005,1.9003138 11.7282693,1.9220081z" transform="matrix(1,0,0,-1,0.0000002,12.2)" fill="rgb(255,255,255)" stroke="rgb(0,0,0)" stroke-width="0.0010cm" stroke-linecap="round" stroke-linejoin="round" shaper:cutDepth="0" /><path d="M7.7623707,2.9048628 L7.7623707,2.9048628 7.7818175,2.9145451 7.801658,2.9231433 7.822216,2.9297655 7.8432638,2.9350386 7.8432638,2.9350386 7.8584098,2.9365353 7.8734042,2.9365229 7.8808002,2.935511 7.8881329,2.9338686 7.9026926,2.9295318 7.9026926,2.9295318 7.9153458,2.9220935 7.9212431,2.9179276 7.9266254,2.9132259 7.9314093,2.9079016 7.9357215,2.9020864 7.9435595,2.8896379 7.9435595,2.8896379 7.9481181,2.8795951 7.9517335,2.8693079 7.953716,2.8585977 7.9546749,2.8476222 7.9546749,2.8476222 7.9537405,2.8372254 7.9518314,2.8270923 7.9483216,2.8173921 7.943865,2.8079479 7.943865,2.8079479 7.9372161,2.7977712 7.9299673,2.7880864 7.9217774,2.7791731 7.9130503,2.7707001 7.9130503,2.7707001 7.8989903,2.7596853 7.8844243,2.7494319 7.8691292,2.7402756 7.8534373,2.7317164 7.8534373,2.7317164 7.8340851,2.7220856 7.8143429,2.7135264 7.7938904,2.7069187 7.772954,2.7016406 7.772954,2.7016406 7.7578041,2.7001057 7.7428024,2.7000828 7.7354002,2.7010784 7.7280599,2.7027047 7.7134823,2.7070092 7.7134823,2.7070092 7.700764,2.7144573 7.6948378,2.7186327 7.689431,2.7233492 7.6846268,2.7286938 7.6802973,2.7345332 7.6724296,2.7470367 7.6724296,2.7470367 7.665236,2.7654276 7.662668,2.7746744 7.6613346,2.7839828 7.6615452,2.7933683 7.6630546,2.8028187 7.6682382,2.8218273 7.6682382,2.8218273 7.6868097,2.8479407 7.6970539,2.8599631 7.7084239,2.8707704 7.7209195,2.880363 7.7342647,2.8890389 7.7623707,2.9048628z" transform="matrix(1,0,0,-1,0.0000002,12.2)" fill="rgb(255,255,255)" stroke="rgb(0,0,0)" stroke-width="0.0010cm" stroke-linecap="round" stroke-linejoin="round" shaper:cutDepth="0" /><path d="M4.6993151,5.3947926 L4.6993151,5.3947926 4.713225,5.378106 4.726171,5.3607862 4.73736,5.3423122 4.7473494,5.3230501 4.7473494,5.3230501 4.7523021,5.3086587 4.7557513,5.2940665 4.756474,5.2866366 4.7565687,5.2791228 4.7557101,5.2639553 4.7557101,5.2639553 4.7513936,5.2499267 4.7487015,5.243227 4.7453693,5.2369047 4.7412931,5.2310209 4.7366304,5.2254828 4.7263274,5.2149829 4.7263274,5.2149829 4.7176082,5.2082291 4.7084335,5.2023366 4.6984701,5.1979353 4.6880124,5.1944687 4.6880124,5.1944687 4.6776808,5.1929778 4.6673806,5.1924962 4.6571322,5.193672 4.6469143,5.1958281 4.6469143,5.1958281 4.6354777,5.1999482 4.6243811,5.2047656 4.6138179,5.2106767 4.6035592,5.2172122 4.6035592,5.2172122 4.5895963,5.2283497 4.5762573,5.2401554 4.5638176,5.2529237 4.5518672,5.266216 4.5518672,5.266216 4.5380292,5.2828223 4.5251438,5.3000554 4.5139933,5.3184302 4.5040247,5.3375828 4.5040247,5.3375828 4.4990341,5.3519692 4.4955487,5.3665604 4.4948088,5.3739925 4.4946966,5.38151 4.4955197,5.3966875 4.4955197,5.3966875 4.4998307,5.4107816 4.5025253,5.4175116 4.5058664,5.4238612 4.5099576,5.4297694 4.5146399,5.4353299 4.5249894,5.4458715 4.5249894,5.4458715 4.541223,5.4571162 4.5496273,5.4617493 4.5583765,5.4651955 4.5675571,5.4671571 4.5771006,5.4678701 4.5967925,5.4672145 4.5967925,5.4672145 4.6264877,5.4551726 4.6405501,5.4479805 4.6536903,5.4394123 4.6659083,5.4294685 4.6774305,5.4184866 4.6993151,5.3947926z" transform="matrix(1,0,0,-1,0.0000002,12.2)" fill="rgb(255,255,255)" stroke="rgb(0,0,0)" stroke-width="0.0010cm" stroke-linecap="round" stroke-linejoin="round" shaper:cutDepth="0" /><path d="M2.65,11.2 a0.35,0.35 0 1,1 0.7,0 a0.35,0.35 0 1,1 -0.7,0z" transform="matrix(1,0,0,-1,0.0000002,12.2)" fill="rgb(255,255,255)" stroke="rgb(0,0,0)" stroke-width="0.0010cm" stroke-linecap="round" stroke-linejoin="round" shaper:cutDepth="0" /><path d="M5,2.05 a1.35,1.35 0 1,1 2.7,0 a1.35,1.35 0 1,1 -2.7,0z" transform="matrix(1,0,0,-1,0.0000002,12.2)" fill="rgb(255,255,255)" stroke="rgb(0,0,0)" stroke-width="0.0010cm" stroke-linecap="round" stroke-linejoin="round" shaper:cutDepth="0" /><path d="M0.7,2.5 a1.8,1.8 0 1,1 3.6,0 a1.8,1.8 0 1,1 -3.6,0z" transform="matrix(1,0,0,-1,0.0000002,12.2)" fill="rgb(255,255,255)" stroke="rgb(0,0,0)" stroke-width="0.0010cm" stroke-linecap="round" stroke-linejoin="round" shaper:cutDepth="0" /><path d="M8.4,1.6 a0.9,0.9 0 1,1 1.8,0 a0.9,0.9 0 1,1 -1.8,0z" transform="matrix(1,0,0,-1,0.0000002,12.2)" fill="rgb(255,255,255)" stroke="rgb(0,0,0)" stroke-width="0.0010cm" stroke-linecap="round" stroke-linejoin="round" shaper:cutDepth="0" /><path d="M10.9,1.3 a0.45,0.45 0 1,1 0.9,0 a0.45,0.45 0 1,1 -0.9,0z" transform="matrix(1,0,0,-1,0.0000002,12.2)" fill="rgb(255,255,255)" stroke="rgb(0,0,0)" stroke-width="0.0010cm" stroke-linecap="round" stroke-linejoin="round" shaper:cutDepth="0" /><path d="M0.7,7.25 a2.25,2.25 0 1,1 4.5,0 a2.25,2.25 0 1,1 -4.5,0z" transform="matrix(1,0,0,-1,0.0000002,12.2)" fill="rgb(255,255,255)" stroke="rgb(0,0,0)" stroke-width="0.0010cm" stroke-linecap="round" stroke-linejoin="round" shaper:cutDepth="0" /><path d="M5.9,6.8 a2.7,2.7 0 1,1 5.4,0 a2.7,2.7 0 1,1 -5.4,0z" transform="matrix(1,0,0,-1,0.0000002,12.2)" fill="rgb(255,255,255)" stroke="rgb(0,0,0)" stroke-width="0.0010cm" stroke-linecap="round" stroke-linejoin="round" shaper:cutDepth="0" /><path d="M4.8205142,5.6207758 L4.7963472,5.5904022 4.7963472,5.5904022 4.7860233,5.5966826 4.7752762,5.6016101 4.7696177,5.6031625 4.763773,5.6041198 4.7517725,5.6050393 4.7517725,5.6050393 4.7415349,5.6030337 4.7319428,5.5996974 4.7234133,5.5941706 4.7155137,5.5873452 4.7155137,5.5873452 4.7079182,5.5769584 4.7047227,5.5715526 4.7022497,5.5658922 4.7006541,5.5599224 4.6997716,5.5537013 4.6991952,5.54084 4.6991952,5.54084 4.7023266,5.5266417 4.704493,5.5198481 4.7073795,5.5134207 4.7110917,5.5074133 4.7154504,5.5017347 4.7252453,5.4909254 4.7252453,5.4909254 4.735919,5.4823113 4.7414855,5.4785437 4.7473276,5.4754235 4.7535229,5.4731328 4.7600286,5.4715712 4.7735579,5.4696647 4.7735579,5.4696647 4.7863489,5.4716626 4.7924775,5.4732391 4.7982862,5.4755085 4.8037181,5.4785933 4.808851,5.4823258 4.8186181,5.49087 4.8186181,5.49087 4.8239601,5.4973765 4.8286044,5.5042708 4.8320624,5.5118246 4.8347931,5.5197826 4.8347931,5.5197826 4.83616,5.5274692 4.8368181,5.5351586 4.8362728,5.5428529 4.8349907,5.5505501 4.8620034,5.5726097 4.9541156,5.4457069 4.8517158,5.3372201 4.8261195,5.3613803 4.9082922,5.4484376 4.8607555,5.5155377 4.8607555,5.5155377 4.8573395,5.5006408 4.8551487,5.4934197 4.8523787,5.4864715 4.8488829,5.4798653 4.8447747,5.4735475 4.8355375,5.4613928 4.8355375,5.4613928 4.8213146,5.4493415 4.8138465,5.4441076 4.8059503,5.4398237 4.7975275,5.4367087 4.7886707,5.4345569 4.7702339,5.4318584 4.7702339,5.4318584 4.7508836,5.4339996 4.7415557,5.4359348 4.7326445,5.4389073 4.7242254,5.4431054 4.7161983,5.4482795 4.7007974,5.4602541 4.7007974,5.4602541 4.6881361,5.4745717 4.6824675,5.48208 4.6775933,5.4900077 4.6737073,5.498457 4.6706461,5.5073417 4.6658988,5.5258371 4.6658988,5.5258371 4.6659135,5.5486802 4.6671124,5.559709 4.6697411,5.5702664 4.6740783,5.5802607 4.6797868,5.589803 4.693489,5.6081342 4.693489,5.6081342 4.7070557,5.6203644 4.71418,5.6258167 4.7217132,5.6304739 4.7297661,5.6341207 4.7382676,5.6368954 4.7560186,5.6409904 4.7560186,5.6409904 4.7734927,5.6403245 4.781995,5.6392288 4.7902157,5.6372178 4.798102,5.6341201 4.8057212,5.6301543 4.8205142,5.6207758z" transform="matrix(1,0,0,-1,0.0000002,12.2)" fill="rgb(255,255,255)" stroke="rgb(0,0,0)" stroke-width="0.0010cm" stroke-linecap="round" stroke-linejoin="round" shaper:cutDepth="0" /><path d="M4.4476737,2.6393242 L4.5621456,2.5621196 4.6650738,2.6375855 4.6659625,2.5915504 4.6156608,2.557217 4.6156608,2.557217 4.5916057,2.5416066 4.5916057,2.5416066 4.6158639,2.5254961 4.6679256,2.489864 4.6687748,2.4458749 4.565025,2.5189884 4.4515998,2.4359514 4.4507269,2.4811681 4.5173839,2.5270744 4.5353643,2.5392928 4.4485347,2.5947213 4.4476737,2.6393242z" transform="matrix(1,0,0,-1,0.0000002,12.2)" fill="rgb(255,255,255)" stroke="rgb(0,0,0)" stroke-width="0.0010cm" stroke-linecap="round" stroke-linejoin="round" shaper:cutDepth="0" /><path d="M4.2409129,3.4591477 L4.2107518,3.4406101 4.1069198,3.609547 4.1069198,3.609547 4.1184524,3.6156221 4.1309627,3.61928 4.1309627,3.61928 4.1426237,3.6207508 4.1542918,3.6214251 4.1659711,3.6208345 4.177657,3.6195156 4.177657,3.6195156 4.1939036,3.6161876 4.2099943,3.6122706 4.2415956,3.6022463 4.2415956,3.6022463 4.2633768,3.594857 4.2853545,3.5882587 4.3077055,3.5831629 4.3303393,3.5792052 4.3303393,3.5792052 4.3425204,3.5788408 4.3544473,3.5797627 4.3659177,3.5829946 4.3770851,3.5877593 4.3770851,3.5877593 4.3852948,3.5942275 4.3922021,3.6016221 4.3948132,3.6059187 4.3969336,3.6105645 4.4003565,3.6204377 4.4003565,3.6204377 4.4011909,3.6316737 4.4010849,3.6371911 4.4003515,3.642588 4.3968432,3.6529894 4.3917934,3.6630947 4.3917934,3.6630947 4.3847481,3.6725972 4.3809075,3.6769315 4.3766853,3.6807654 4.3719785,3.6839638 4.3668537,3.6866139 4.3559068,3.6909997 4.3559068,3.6909997 4.3437532,3.691934 4.3377878,3.6918151 4.3319558,3.690994 4.3262752,3.6893765 4.3207126,3.6871383 4.3097839,3.6816275 4.2932729,3.7159166 4.2932729,3.7159166 4.3103226,3.7228335 4.3189342,3.725526 4.32765,3.7272992 4.3364996,3.7278913 4.3454674,3.7274395 4.3636007,3.7247928 4.3636007,3.7247928 4.3802219,3.7167668 4.388,3.7121119 4.3951401,3.7066883 4.4015592,3.7003957 4.4074174,3.6934271 4.4181989,3.6783632 4.4181989,3.6783632 4.4267908,3.6616441 4.4303111,3.6531255 4.4329007,3.6444161 4.4342973,3.6354621 4.4346451,3.6262931 4.4335903,3.6075962 4.4335903,3.6075962 4.4281259,3.5917115 4.4247296,3.5842406 4.4205366,3.5773354 4.415375,3.5711179 4.409425,3.5654602 4.3962112,3.5550775 4.3962112,3.5550775 4.3881372,3.5508222 4.3798261,3.5472218 4.371125,3.5446995 4.3621926,3.5428162 4.3621926,3.5428162 4.3511507,3.5419836 4.3401313,3.5418725 4.3291463,3.5428622 4.3181806,3.5444695 4.3181806,3.5444695 4.2804961,3.5536329 4.2434653,3.5652036 4.2434653,3.5652036 4.2164132,3.5740398 4.1890113,3.5816967 4.1890113,3.5816967 4.1765123,3.5837559 4.1638693,3.5844992 4.2409129,3.4591477z" transform="matrix(1,0,0,-1,0.0000002,12.2)" fill="rgb(255,255,255)" stroke="rgb(0,0,0)" stroke-width="0.0010cm" stroke-linecap="round" stroke-linejoin="round" shaper:cutDepth="0" /><path d="M4.3385031,2.8353007 L4.6364702,2.8751045 4.6409139,2.8418393 4.6129224,2.8381001 4.6129224,2.8381001 4.6208604,2.8333462 4.6283285,2.8280292 4.63498,2.8217334 4.6411166,2.8148206 4.6411166,2.8148206 4.6459221,2.8067129 4.6498431,2.7982672 4.6523797,2.7892923 4.6541275,2.7800159 4.6541275,2.7800159 4.6548359,2.7669621 4.6541307,2.7541281 4.6510195,2.7416684 4.6464319,2.7294384 4.6464319,2.7294384 4.6394205,2.718286 4.6313304,2.7081639 4.6214903,2.6997134 4.6106257,2.6922416 4.6106257,2.6922416 4.5974478,2.6857577 4.5839164,2.6803309 4.5698109,2.6766213 4.555369,2.673918 4.555369,2.673918 4.5399395,2.6726783 4.52459,2.67262 4.5093779,2.6745938 4.4942513,2.6778313 4.4942513,2.6778313 4.4814381,2.6827527 4.4694407,2.6889324 4.4588325,2.6972551 4.4490776,2.7068944 4.4490776,2.7068944 4.4417284,2.7173203 4.4355839,2.728282 4.4314814,2.7401518 4.4286265,2.7525764 4.4286265,2.7525764 4.4280268,2.7611696 4.4281933,2.7696846 4.4296709,2.7780657 4.4319583,2.7863642 4.4319583,2.7863642 4.438727,2.8004336 4.4432229,2.8067798 4.4482469,2.8127987 4.3433803,2.7987901 4.3385031,2.8353007z" transform="matrix(1,0,0,-1,0.0000002,12.2)" fill="rgb(255,255,255)" stroke="rgb(0,0,0)" stroke-width="0.0010cm" stroke-linecap="round" stroke-linejoin="round" shaper:cutDepth="0" /><path d="M7.5573907,3.0717418 L7.5831023,3.042664 7.5831023,3.042664 7.5751233,3.0335886 7.5684032,3.0238614 7.565891,3.0185588 7.5639325,3.0129694 7.5609414,3.0013113 7.5609414,3.0013113 7.5611374,2.9908809 7.562756,2.980855 7.5667163,2.9714948 7.5720651,2.9625293 7.5720651,2.9625293 7.5809739,2.9532443 7.585742,2.9491579 7.5908866,2.9457389 7.5964882,2.9431301 7.6024613,2.9411799 7.6150267,2.9383771 7.6150267,2.9383771 7.6295531,2.9389934 7.6366199,2.9399462 7.6434511,2.9416718 7.6500122,2.9442835 7.6563619,2.947589 7.6687089,2.9553564 7.6687089,2.9553564 7.6790469,2.9643707 7.6837245,2.9691977 7.6878126,2.9744087 7.691145,2.9801116 7.6938135,2.9862469 7.6980421,2.9992391 7.6980421,2.9992391 7.6982976,3.0121826 7.6978101,3.018492 7.6965847,3.0246066 7.6944908,3.030492 7.6917072,3.0361954 7.6849903,3.0472988 7.6849903,3.0472988 7.6795112,3.0536902 7.6735289,3.059462 7.6666911,3.0641801 7.6593287,3.0682522 7.6593287,3.0682522 7.6519966,3.0709341 7.6445385,3.0729186 7.6368666,3.0737187 7.6290637,3.0737938 7.6120342,3.1042291 7.7530138,3.1728858 7.8420542,3.0531907 7.8138133,3.0321825 7.7423612,3.1282341 7.6680209,3.0930819 7.6680209,3.0930819 7.6820975,3.0871289 7.6888279,3.0837166 7.695189,3.0797813 7.7010872,3.0751905 7.7065949,3.0700469 7.7169594,3.058838 7.7169594,3.058838 7.7263555,3.0427372 7.7302119,3.0344731 7.7330584,3.0259526 7.7346622,3.0171166 7.7352421,3.0080206 7.7346955,2.9893954 7.7346955,2.9893954 7.7292241,2.9707117 7.7256973,2.9618621 7.7212213,2.9536029 7.715624,2.9460416 7.7091337,2.9390358 7.6946648,2.9259502 7.6946648,2.9259502 7.6783647,2.9159698 7.6699855,2.9116923 7.6613314,2.90827 7.6523354,2.9059115 7.6430538,2.904441 7.6240149,2.9029801 7.6240149,2.9029801 7.6015219,2.9069644 7.5908693,2.9100617 7.5809293,2.9144851 7.5718409,2.9204932 7.5634359,2.9277731 7.5477648,2.9444525 7.5477648,2.9444525 7.5380785,2.9599383 7.5339472,2.9679016 7.5306701,2.9761296 7.5284782,2.9846937 7.5272232,2.993548 7.5262754,3.0117405 7.5262754,3.0117405 7.5299679,3.0288331 7.5325245,3.0370156 7.5359336,3.0447617 7.5403546,3.0519897 7.5455842,3.0588037 7.5573907,3.0717418z" transform="matrix(1,0,0,-1,0.0000002,12.2)" fill="rgb(255,255,255)" stroke="rgb(0,0,0)" stroke-width="0.0010cm" stroke-linecap="round" stroke-linejoin="round" shaper:cutDepth="0" /><path d="M10.3297807,1.8218896 L10.4317873,1.7686561 10.5099671,1.8407668 10.5150052,1.8027293 10.4765602,1.7695977 10.4765602,1.7695977 10.4580995,1.754423 10.4580995,1.754423 10.4796928,1.7433493 10.5261338,1.7187086 10.530948,1.6823617 10.4382025,1.7332093 10.3520379,1.6538483 10.3470893,1.6912096 10.3979963,1.7354529 10.4117436,1.747251 10.3346621,1.7850355 10.3297807,1.8218896z" transform="matrix(1,0,0,-1,0.0000002,12.2)" fill="rgb(255,255,255)" stroke="rgb(0,0,0)" stroke-width="0.0010cm" stroke-linecap="round" stroke-linejoin="round" shaper:cutDepth="0" /><path d="M9.9336737,2.4378821 L9.9086216,2.4556197 10.0216493,2.6152574 10.0216493,2.6152574 10.0036921,2.6140104 9.9857001,2.6148007 9.9857001,2.6148007 9.9678031,2.616891 9.9501614,2.6205308 9.9673077,2.6447479 9.9673077,2.6447479 9.9806815,2.6428932 9.9940817,2.6417544 10.007527,2.6418371 10.021,2.6426715 10.021,2.6426715 10.0317708,2.6442388 10.042349,2.6464787 10.0525812,2.6499285 10.0625828,2.6541838 10.0787275,2.6427529 9.9336737,2.4378821z" transform="matrix(1,0,0,-1,0.0000002,12.2)" fill="rgb(255,255,255)" stroke="rgb(0,0,0)" stroke-width="0.0010cm" stroke-linecap="round" stroke-linejoin="round" shaper:cutDepth="0" /><path d="M10.2122315,1.9672703 L10.4510051,2.0430543 10.4594657,2.0163974 10.4370349,2.0092782 10.4370349,2.0092782 10.4442373,2.0065255 10.4511356,2.0032427 10.4575053,1.9990384 10.4635419,1.9942533 10.4635419,1.9942533 10.4686589,1.9882949 10.4730988,1.9819311 10.4764793,1.9749327 10.4792561,1.9675728 10.4792561,1.9675728 10.4817265,1.9569623 10.4830048,1.9463278 10.4822546,1.9356523 10.4802594,1.9249515 10.4802594,1.9249515 10.4761192,1.9147845 10.4709446,1.9053068 10.464092,1.8969478 10.4562569,1.8892437 10.4562569,1.8892437 10.4463804,1.8820156 10.4360608,1.8756039 10.4250216,1.8705184 10.4135607,1.8662099 10.4135607,1.8662099 10.4010776,1.8629599 10.3884891,1.8606908 10.3757193,1.8601093 10.3628368,1.8605773 10.3628368,1.8605773 10.3516093,1.862762 10.340869,1.8660974 10.3309588,1.8713925 10.3215584,1.8778916 10.3215584,1.8778916 10.3140184,1.8853845 10.3073895,1.8934913 10.3023051,1.9026388 10.2981642,1.9124222 10.2981642,1.9124222 10.2964285,1.9193876 10.295333,1.9263997 10.2953328,1.9334917 10.2960092,1.9406331 10.2960092,1.9406331 10.2995281,1.953159 10.3055515,1.9646842 10.2215175,1.9380128 10.2122315,1.9672703z" transform="matrix(1,0,0,-1,0.0000002,12.2)" fill="rgb(255,255,255)" stroke="rgb(0,0,0)" stroke-width="0.0010cm" stroke-linecap="round" stroke-linejoin="round" shaper:cutDepth="0" /><path d="M11.8027752,1.5863813 L12.0309777,1.6897239 12.0425149,1.6642472 12.0210773,1.6545391 12.0210773,1.6545391 12.0285534,1.6526527 12.0357899,1.650204 12.04261,1.6467781 12.0491674,1.6427362 12.0491674,1.6427362 12.0549497,1.6374211 12.0601074,1.6316237 12.0642876,1.6250715 12.0679107,1.6180892 12.0679107,1.6180892 12.071612,1.607843 12.0741323,1.5974327 12.074643,1.586743 12.0739203,1.5758819 12.0739203,1.5758819 12.0710046,1.5652984 12.0669807,1.5552779 12.0611589,1.5461709 12.0542843,1.5375987 12.0542843,1.5375987 12.0453266,1.5292591 12.0358328,1.5216781 12.0254684,1.5153294 12.0145937,1.5097029 12.0145937,1.5097029 12.0025795,1.5050071 11.9903453,1.5012731 11.9777326,1.4991937 11.9648845,1.4981432 11.9648845,1.4981432 11.9534779,1.4989921 11.9424199,1.501041 11.9319556,1.5051338 11.921856,1.5104821 11.921856,1.5104821 11.913487,1.5170361 11.9059506,1.5243069 11.8998256,1.532793 11.8945627,1.5420214 11.8945627,1.5420214 11.8920198,1.5487343 11.8901071,1.5555688 11.8892728,1.5626116 11.8891045,1.5697829 11.8891045,1.5697829 11.8911257,1.5826358 11.8957517,1.5947895 11.8154381,1.5584191 11.8027752,1.5863813z" transform="matrix(1,0,0,-1,0.0000002,12.2)" fill="rgb(255,255,255)" stroke="rgb(0,0,0)" stroke-width="0.0010cm" stroke-linecap="round" stroke-linejoin="round" shaper:cutDepth="0" /><path d="M10.8932853,4.8665061 L10.8932853,4.8665061 10.9090945,4.8516066 10.9240227,4.8359629 10.9373448,4.8189628 10.9495705,4.8010366 10.9495705,4.8010366 10.956212,4.7873423 10.961385,4.7732686 10.9629928,4.7659788 10.9639871,4.7585305 10.9649522,4.7433694 10.9649522,4.7433694 10.9623479,4.7289246 10.9604781,4.7219507 10.9579275,4.7152746 10.9545857,4.7089448 10.9506202,4.7028879 10.9416497,4.691229 10.9416497,4.691229 10.9338027,4.6834789 10.9254002,4.6765296 10.916036,4.670966 10.9060691,4.6662712 10.9060691,4.6662712 10.8959905,4.663553 10.8858223,4.6618407 10.8755068,4.6617799 10.8651042,4.662696 10.8651042,4.662696 10.8532562,4.665416 10.8416624,4.668869 10.830467,4.6734717 10.819499,4.6787308 10.819499,4.6787308 10.8043021,4.6881148 10.7896446,4.698237 10.7757644,4.7094226 10.7623073,4.7211872 10.7623073,4.7211872 10.746579,4.7360155 10.7317215,4.7515805 10.7184495,4.7684867 10.7062576,4.7863067 10.7062576,4.7863067 10.699579,4.7999914 10.6943703,4.8140598 10.692745,4.8213496 10.6917329,4.8287995 10.6907313,4.8439663 10.6907313,4.8439663 10.6933224,4.8584755 10.6951911,4.8654798 10.6977472,4.872184 10.7011009,4.87854 10.7050831,4.8846215 10.7140949,4.8963273 10.7140949,4.8963273 10.7288641,4.9094362 10.7366526,4.9150431 10.7449258,4.9195129 10.7538052,4.9225605 10.7631945,4.9244119 10.7828231,4.9261208 10.7828231,4.9261208 10.8137472,4.9177241 10.8285702,4.9122688 10.8426424,4.905337 10.855964,4.896929 10.8687191,4.8874069 10.8932853,4.8665061z" transform="matrix(1,0,0,-1,0.0000002,12.2)" fill="rgb(255,255,255)" stroke="rgb(0,0,0)" stroke-width="0.0010cm" stroke-linecap="round" stroke-linejoin="round" shaper:cutDepth="0" /><path d="M11.9817157,7.825058 L11.9817157,7.8921453 12.2352628,7.8921453 12.2352628,7.829833 12.1992123,7.829833 12.1992123,7.829833 12.2086189,7.8237594 12.2175404,7.8171382 12.2255469,7.809484 12.2328754,7.8010642 12.2328754,7.8010642 12.2363596,7.7942237 12.2390393,7.7871557 12.2404036,7.7797158 12.2409927,7.7720566 12.2409927,7.7720566 12.239929,7.7604194 12.237703,7.7491117 12.2335795,7.738342 12.2283392,7.7278889 12.1698467,7.7486597 12.1698467,7.7486597 12.1741285,7.7560243 12.1776197,7.7636534 12.1796933,7.7717568 12.180829,7.7801741 12.180829,7.7801741 12.1802986,7.7866096 12.1790169,7.7927962 12.1764443,7.7985552 12.1730698,7.8040485 12.1730698,7.8040485 12.1669353,7.8094216 12.1602677,7.8138703 12.152846,7.8170118 12.1450172,7.8194476 12.1450172,7.8194476 12.1239016,7.8225111 12.1026976,7.8244677 12.0813879,7.8251021 12.0600241,7.825058 11.9817157,7.825058z" transform="matrix(1,0,0,-1,0.0000002,12.2)" fill="rgb(255,255,255)" stroke="rgb(0,0,0)" stroke-width="0.0010cm" stroke-linecap="round" stroke-linejoin="round" shaper:cutDepth="0" /><path d="M12.2352629,7.4289804 L12.2352629,7.3664291 12.1980186,7.3664291 12.1980186,7.3664291 12.2071708,7.3595094 12.2155549,7.3518636 12.2226781,7.3430257 12.2290555,7.3334826 12.2290555,7.3334826 12.2341594,7.3225165 12.2380948,7.3112454 12.2401114,7.2994732 12.2409927,7.2874046 12.2409927,7.2874046 12.2381478,7.266002 12.2357251,7.2557589 12.232102,7.2460656 12.2270328,7.2370348 12.2207956,7.2285389 12.2063747,7.2124389 12.2063747,7.2124389 12.1843755,7.1984415 12.1729926,7.1925845 12.1611513,7.1880931 12.1488019,7.1851158 12.1360599,7.1833078 12.1099218,7.1816407 12.1099218,7.1816407 12.083216,7.1832859 12.0701895,7.1850939 12.0575548,7.1880844 12.0454282,7.1926086 12.0337622,7.198523 12.0112007,7.2126775 12.0112007,7.2126775 11.9965816,7.2287834 11.990251,7.2372901 11.9850951,7.2463412 11.9813987,7.2560687 11.9789186,7.26636 11.9759859,7.2878821 11.9759859,7.2878821 11.9765737,7.2977362 11.9779654,7.3074114 11.9807303,7.3167809 11.984342,7.3259619 11.984342,7.3259619 11.990354,7.3358457 11.9970413,7.3452007 12.0047369,7.3537657 12.0129913,7.361893 11.8852628,7.361893 11.8852628,7.4289804 12.2352629,7.4289804z" transform="matrix(1,0,0,-1,0.0000002,12.2)" fill="rgb(255,255,255)" stroke="rgb(0,0,0)" stroke-width="0.0010cm" stroke-linecap="round" stroke-linejoin="round" shaper:cutDepth="0" /><path d="M12.075065,6.4295943 L12.1421523,6.4295943 12.1421523,6.2978073 12.075065,6.2978073 12.075065,6.4295943z" transform="matrix(1,0,0,-1,0.0000002,12.2)" fill="rgb(255,255,255)" stroke="rgb(0,0,0)" stroke-width="0.0010cm" stroke-linecap="round" stroke-linejoin="round" shaper:cutDepth="0" /><path d="M12.1120705,5.7856992 L12.1120705,5.7856992 12.1289428,5.7843408 12.1454307,5.7814607 12.1612872,5.7760823 12.1767703,5.7692259 12.1767703,5.7692259 12.1911283,5.7600282 12.1978968,5.7550104 12.2041727,5.7494897 12.2098424,5.7433502 12.2150123,5.7367006 12.2245193,5.7225512 12.2245193,5.7225512 12.2316046,5.7064228 12.2346337,5.6982318 12.2370465,5.6898885 12.2387228,5.6813632 12.2398078,5.6726919 12.2409927,5.6551059 12.2409927,5.6551059 12.238366,5.6288269 12.2359294,5.6161396 12.2321447,5.603995 12.226673,5.5925295 12.2197809,5.5816357 12.2036291,5.5608013 12.2036291,5.5608013 12.182656,5.544944 12.1717127,5.5381717 12.1602214,5.532787 12.1480772,5.5290551 12.1354104,5.5266465 12.1092055,5.5240348 12.1092055,5.5240348 12.0827426,5.5266811 12.0699501,5.5291168 12.0576846,5.5328877 12.0460767,5.538325 12.0350203,5.5451599 12.0138269,5.5611594 12.0138269,5.5611594 11.9976062,5.5817612 11.9906629,5.5925395 11.9851199,5.6038906 11.9812577,5.6159292 11.9787486,5.6285213 11.9759859,5.6546281 11.9759859,5.6546281 11.9772337,5.6718874 11.9799534,5.6887985 11.9851175,5.7051315 11.991743,5.7211187 11.991743,5.7211187 12.0006837,5.735655 12.0055969,5.7424971 12.0110415,5.748828 12.0171392,5.7545307 12.0237743,5.7597163 12.0379402,5.7692259 12.0379402,5.7692259 12.0557272,5.7765828 12.0647538,5.7796829 12.07394,5.7820901 12.0833075,5.7837094 12.0928166,5.7847141 12.1120705,5.7856992z" transform="matrix(1,0,0,-1,0.0000002,12.2)" fill="rgb(255,255,255)" stroke="rgb(0,0,0)" stroke-width="0.0010cm" stroke-linecap="round" stroke-linejoin="round" shaper:cutDepth="0" /><path d="M11.4354675,9.4473295 L11.4354675,9.5242053 11.5149696,9.5547647 11.5149696,9.6946692 11.4354675,9.7235573 11.4354675,9.7985232 11.7854675,9.6621999 11.7854675,9.5874728 11.4354675,9.4473295z" transform="matrix(1,0,0,-1,0.0000002,12.2)" fill="rgb(255,255,255)" stroke="rgb(0,0,0)" stroke-width="0.0010cm" stroke-linecap="round" stroke-linejoin="round" shaper:cutDepth="0" /><path d="M11.564151,8.0451808 L11.5424252,7.976661 11.5424252,7.976661 11.5181393,7.9850007 11.5064853,7.9899447 11.4954182,7.9958177 11.485107,8.0028872 11.4754679,8.0110208 11.4573127,8.0290655 11.4573127,8.0290655 11.4449628,8.0506455 11.4397468,8.0617319 11.4356804,8.0731735 11.4329315,8.0850224 11.4312142,8.0971901 11.4294989,8.1220568 11.4294989,8.1220568 11.4309483,8.138274 11.4329659,8.1542524 11.4361198,8.1697535 11.4409782,8.1845384 11.4479548,8.1984332 11.4566979,8.2115859 11.4666188,8.2242438 11.4771285,8.2366542 11.4771285,8.2366542 11.4916974,8.2470313 11.5064951,8.2567709 11.5217502,8.2652359 11.5376902,8.2717921 11.5544051,8.2761893 11.571723,8.2789059 11.6073639,8.2815383 11.6073639,8.2815383 11.6259664,8.2805867 11.6443701,8.2790652 11.6623758,8.2764039 11.6797848,8.2720329 11.6882038,8.2690297 11.6964218,8.2654508 11.7123647,8.2568804 11.7278436,8.2469803 11.7430903,8.2364156 11.7430903,8.2364156 11.7538878,8.2235569 11.7640655,8.2104409 11.7730036,8.1968104 11.7800826,8.1824083 11.7849637,8.1670939 11.7880939,8.1510528 11.7900568,8.1345271 11.7914361,8.1177593 11.7914361,8.1177593 11.7889482,8.0890626 11.7865453,8.0751469 11.7827517,8.0617503 11.7771967,8.0490112 11.77013,8.0368364 11.7534757,8.0134278 11.7534757,8.0134278 11.7390995,8.0014188 11.7315971,7.9959666 11.7237186,7.9911753 11.7154209,7.9871206 11.706799,7.9836358 11.6890146,7.9776161 11.6723025,8.0475684 11.6723025,8.0475684 11.6845976,8.0514979 11.6960628,8.0567895 11.7012499,8.0603305 11.7061081,8.0644112 11.7152765,8.0734721 11.7152765,8.0734721 11.7221129,8.0844686 11.725026,8.0901361 11.7273332,8.0960065 11.7289241,8.1021169 11.7299443,8.1084186 11.7310337,8.1213404 11.7310337,8.1213404 11.7289732,8.1393247 11.7271126,8.1479463 11.7242557,8.156123 11.7201639,8.1637487 11.7150461,8.1709164 11.7031005,8.1844885 11.7031005,8.1844885 11.6821417,8.1961894 11.6713441,8.2009597 11.6601713,8.2044563 11.6486181,8.2066616 11.6367773,8.2078905 11.6126162,8.2087211 11.6126162,8.2087211 11.5875,8.2080212 11.5751704,8.206858 11.5631151,8.2047189 11.5514234,8.2012855 11.5400982,8.1965477 11.5180732,8.1848466 11.5180732,8.1848466 11.5060802,8.1715883 11.5009335,8.1645711 11.4968066,8.1570883 11.4939135,8.1490422 11.4920205,8.1405395 11.4899013,8.122773 11.4899013,8.122773 11.4912412,8.1094904 11.4924416,8.1030463 11.4942784,8.0968389 11.4969014,8.0909238 11.5001752,8.0852507 11.5078072,8.0743077 11.5078072,8.0743077 11.5202405,8.0639477 11.5267621,8.0593357 11.5336473,8.0554009 11.5409238,8.0521951 11.5484998,8.0495471 11.564151,8.0451808z" transform="matrix(1,0,0,-1,0.0000002,12.2)" fill="rgb(255,255,255)" stroke="rgb(0,0,0)" stroke-width="0.0010cm" stroke-linecap="round" stroke-linejoin="round" shaper:cutDepth="0" /><path d="M11.4354675,8.6219885 L11.7854675,8.6219885 11.7854675,8.4732504 11.7854675,8.4732504 11.7852637,8.4525869 11.784009,8.4320603 11.7807664,8.4117928 11.7760371,8.391719 11.7760371,8.391719 11.7700239,8.3795966 11.7666088,8.3738704 11.7627033,8.3685464 11.7582072,8.3637068 11.7532342,8.3592582 11.7424934,8.351013 11.7424934,8.351013 11.7294803,8.3444325 11.7160378,8.3393828 11.701896,8.3368259 11.6873434,8.3357333 11.6873434,8.3357333 11.6695399,8.3372923 11.6608939,8.3387748 11.6525548,8.3411009 11.6446027,8.3444909 11.6369803,8.3487874 11.6222854,8.3588917 11.6222854,8.3588917 11.6099206,8.374127 11.6045148,8.3821212 11.6000376,8.3905655 11.5965874,8.3995078 11.5939298,8.4088342 11.5899355,8.4281276 11.5899355,8.4281276 11.5835284,8.4179369 11.5766287,8.4081313 11.5688708,8.3989967 11.5605698,8.3902866 11.5605698,8.3902866 11.547005,8.3793404 11.5330354,8.3689561 11.5037486,8.3500581 11.4354675,8.3073228 11.4354675,8.3918384 11.5116271,8.4429298 11.5116271,8.4429298 11.5379406,8.4607534 11.5630767,8.480174 11.5630767,8.480174 11.5716422,8.4899303 11.5748957,8.4955042 11.5776401,8.5014223 11.5776401,8.5014223 11.5796101,8.510193 11.5809639,8.5190403 11.5815794,8.5369953 11.5815794,8.55132 11.4354675,8.55132 11.4354675,8.6219885z" transform="matrix(1,0,0,-1,0.0000002,12.2)" fill="rgb(255,255,255)" stroke="rgb(0,0,0)" stroke-width="0.0010cm" stroke-linecap="round" stroke-linejoin="round" shaper:cutDepth="0" /><path d="M11.4354675,7.9160198 L11.7854675,7.9160198 11.7854675,7.6565042 11.7262588,7.6565042 11.7262588,7.8453514 11.6486667,7.8453514 11.6486667,7.6696351 11.5896967,7.6696351 11.5896967,7.8453514 11.4944375,7.8453514 11.4944375,7.6498192 11.4354675,7.6498192 11.4354675,7.9160198z" transform="matrix(1,0,0,-1,0.0000002,12.2)" fill="rgb(255,255,255)" stroke="rgb(0,0,0)" stroke-width="0.0010cm" stroke-linecap="round" stroke-linejoin="round" shaper:cutDepth="0" /><path d="M12.3317157,7.0615519 L12.2030323,7.0615519 12.2030323,7.0615519 12.2186212,7.045087 12.2253974,7.0363649 12.2309517,7.0270551 12.2349732,7.0170081 12.2376994,7.0063382 12.2409927,6.98396 12.2409927,6.98396 12.2404019,6.9731888 12.2389801,6.9625915 12.2361314,6.9522929 12.2323979,6.9421795 12.2323979,6.9421795 12.2281581,6.9341706 12.2232631,6.9266831 12.2172169,6.9201117 12.2104333,6.9141269 12.2104333,6.9141269 12.2034871,6.9098605 12.1962921,6.9061647 12.188684,6.9034165 12.180829,6.9012347 12.180829,6.9012347 12.1557329,6.8983162 12.1304538,6.8977731 11.9817157,6.8977731 11.9817157,6.9648602 12.1156516,6.9648602 12.1156516,6.9648602 12.141106,6.9651975 12.1537236,6.9665347 12.1662655,6.9686802 12.1662655,6.9686802 12.1713141,6.9710628 12.1759356,6.9739866 12.1798477,6.9778092 12.1833358,6.9821692 12.1833358,6.9821692 12.1861629,6.9878901 12.1882784,6.9938038 12.1892853,7.0000175 12.1896625,7.0064018 12.1896625,7.0064018 12.1890792,7.0142605 12.1877189,7.0219054 12.1850372,7.0291867 12.1815452,7.0362449 12.1815452,7.0362449 12.1765751,7.0424941 12.1709633,7.0479357 12.1643188,7.0520778 12.1570739,7.0554641 12.1570739,7.0554641 12.1451881,7.0584322 12.1331792,7.0605134 12.1209994,7.0613627 12.108728,7.0615519 11.9817157,7.0615519 11.9817157,7.1286393 12.3317157,7.1286393 12.3317157,7.0615519z" transform="matrix(1,0,0,-1,0.0000002,12.2)" fill="rgb(255,255,255)" stroke="rgb(0,0,0)" stroke-width="0.0010cm" stroke-linecap="round" stroke-linejoin="round" shaper:cutDepth="0" /><path d="M12.1579095,7.6488643 L12.1688917,7.7097443 12.1688917,7.7097443 12.1846414,7.7041348 12.192166,7.7008027 12.1992702,7.6968377 12.205836,7.6920618 12.2119289,7.686574 12.2233256,7.6744102 12.2233256,7.6744102 12.2317259,7.6568131 12.2351743,7.6478211 12.2377317,7.6385998 12.2393651,7.6291408 12.2402972,7.6195014 12.2409927,7.5999218 12.2409927,7.5999218 12.2406729,7.5827991 12.2391976,7.5658795 12.2355633,7.5493393 12.2303685,7.5330732 12.2303685,7.5330732 12.2252498,7.5238924 12.2192868,7.5154654 12.2118256,7.5083757 12.2033904,7.5021556 12.2033904,7.5021556 12.1887947,7.4975155 12.1739321,7.4944185 12.1587281,7.4932958 12.143346,7.4932027 12.0650377,7.4939189 12.0650377,7.4939189 12.0403061,7.4934146 12.0157369,7.490696 12.0157369,7.490696 11.9983511,7.4857385 11.9817157,7.4786394 11.9817157,7.5450104 11.9817157,7.5450104 12.0015316,7.5514565 12.0015316,7.5514565 12.0094102,7.553844 12.0094102,7.553844 12.0019782,7.5622462 11.9951681,7.5710698 11.9894246,7.5806163 11.9843419,7.5906106 11.9843419,7.5906106 11.980781,7.6007596 11.9780294,7.6110714 11.9766117,7.6216516 11.9759859,7.632391 11.9759859,7.632391 11.9772305,7.6492783 11.9785159,7.6574842 11.980597,7.6654048 11.9837007,7.6729587 11.9877086,7.6801885 11.9972342,7.6941066 11.9972342,7.6941066 12.0089723,7.7037419 12.0151325,7.7078719 12.021642,7.7111768 12.0285725,7.7134871 12.0358432,7.7149939 12.0509518,7.7166679 12.0509518,7.7166679 12.0610291,7.7159356 12.0708393,7.7142188 12.0801946,7.7108254 12.0892703,7.7064019 12.0892703,7.7064019 12.0971735,7.7005199 12.1042754,7.6939173 12.1100569,7.6861276 12.1150548,7.6776331 12.1150548,7.6776331 12.1201393,7.6646483 12.1245121,7.6514484 12.1306926,7.6242736 12.1306926,7.6242736 12.1374587,7.5912981 12.1419641,7.5751056 12.1471659,7.5590964 12.1538508,7.5590964 12.1538508,7.5590964 12.1614959,7.5594873 12.1687623,7.5608844 12.1753342,7.5641271 12.1814258,7.5686462 12.1814258,7.5686462 12.185624,7.5770973 12.1884649,7.5859046 12.1895299,7.5951782 12.1896625,7.6046966 12.1896625,7.6046966 12.1893287,7.6120631 12.188267,7.6192341 12.1858873,7.6260512 12.1826196,7.6326297 12.1826196,7.6326297 12.1773534,7.6380245 12.1715451,7.6426245 12.1649445,7.6460628 12.1579095,7.6488643z" transform="matrix(1,0,0,-1,0.0000002,12.2)" fill="rgb(255,255,255)" stroke="rgb(0,0,0)" stroke-width="0.0010cm" stroke-linecap="round" stroke-linejoin="round" shaper:cutDepth="0" /><path d="M12.2352628,8.9263882 L12.2352628,8.8645533 12.2006448,8.8645533 12.2006448,8.8645533 12.2170845,8.8479698 12.22425,8.8391515 12.2301501,8.8297012 12.2344525,8.819453 12.2373908,8.8085236 12.2409927,8.7855287 12.2409927,8.7855287 12.2403442,8.7745119 12.2387133,8.7637342 12.2353765,8.7533718 12.2309654,8.7432709 12.2309654,8.7432709 12.2248142,8.7344679 12.2178637,8.7264823 12.2096279,8.7198116 12.2006448,8.7139053 12.2006448,8.7139053 12.2094719,8.7059311 12.2176415,8.6974092 12.2246655,8.6879335 12.2309654,8.6778548 12.2309654,8.6778548 12.2352041,8.66795 12.2384967,8.6578153 12.2402157,8.6472981 12.2409927,8.6365519 12.2409927,8.6365519 12.240304,8.6242015 12.2384904,8.6121301 12.2347024,8.6005487 12.2296523,8.5892804 12.2296523,8.5892804 12.2229566,8.5801896 12.2153597,8.5721315 12.2062884,8.5657636 12.1963474,8.5603923 12.1963474,8.5603923 12.1834749,8.5569213 12.1704405,8.5545407 12.1571893,8.5536191 12.1438235,8.5534688 11.9817157,8.5534688 11.9817157,8.620556 12.1266339,8.620556 12.1266339,8.620556 12.1391172,8.6205051 12.1514563,8.6212903 12.1635144,8.6237043 12.1753378,8.6274796 12.1753378,8.6274796 12.1815949,8.6332701 12.1842543,8.6364058 12.1863511,8.63983 12.1887034,8.6476224 12.1896625,8.6561289 12.1896625,8.6561289 12.1889438,8.6632133 12.1874343,8.6700437 12.1846319,8.676459 12.1810677,8.6826296 12.1810677,8.6826296 12.1758163,8.6885565 12.1699776,8.6936686 12.1632003,8.6974786 12.1558801,8.7005356 12.1558801,8.7005356 12.1429406,8.7032811 12.1299,8.7051682 12.1167237,8.7059025 12.1034756,8.7060267 11.9817157,8.7060267 11.9817157,8.773114 12.1206653,8.773114 12.1206653,8.773114 12.1446725,8.7734608 12.156577,8.7747121 12.1684142,8.7766952 12.1684142,8.7766952 12.1773335,8.7809445 12.1810551,8.7841117 12.1844101,8.7877968 12.1844101,8.7877968 12.1868232,8.7926006 12.1885933,8.7975794 12.1896625,8.8082095 12.1896625,8.8082095 12.1890338,8.815632 12.1876141,8.8228166 12.1848635,8.8296009 12.1813064,8.8361426 12.1813064,8.8361426 12.1763203,8.8419879 12.1707534,8.8470537 12.1642474,8.8508593 12.1571932,8.8539291 12.1571932,8.8539291 12.144284,8.856658 12.1312722,8.8585096 12.1181256,8.8592083 12.1049081,8.8593009 11.9817157,8.8593009 11.9817157,8.9263882 12.2352628,8.9263882z" transform="matrix(1,0,0,-1,0.0000002,12.2)" fill="rgb(255,255,255)" stroke="rgb(0,0,0)" stroke-width="0.0010cm" stroke-linecap="round" stroke-linejoin="round" shaper:cutDepth="0" /><path d="M12.1120705,9.4258425 L12.1120705,9.4258425 12.1289429,9.4244842 12.1454307,9.4216041 12.1612872,9.4162256 12.1767703,9.4093691 12.1767703,9.4093691 12.1911281,9.4001713 12.1978966,9.3951535 12.2041725,9.3896328 12.2098422,9.3834934 12.2150122,9.3768438 12.2245193,9.3626945 12.2245193,9.3626945 12.2316046,9.3465661 12.2346337,9.338375 12.2370465,9.3300317 12.2387228,9.3215065 12.2398078,9.3128351 12.2409927,9.295249 12.2409927,9.295249 12.2383661,9.2689701 12.2359294,9.2562829 12.2321447,9.2441383 12.226673,9.2326728 12.2197809,9.2217791 12.2036291,9.2009448 12.2036291,9.2009448 12.182656,9.1850874 12.1717127,9.1783152 12.1602214,9.1729304 12.1480772,9.1691985 12.1354104,9.1667898 12.1092055,9.1641781 12.1092055,9.1641781 12.0827425,9.1668244 12.0699501,9.1692602 12.0576846,9.1730311 12.0460766,9.1784684 12.0350203,9.1853033 12.0138269,9.2013029 12.0138269,9.2013029 11.9976062,9.2219047 11.9906628,9.232683 11.9851199,9.2440341 11.9812577,9.2560727 11.9787486,9.2686648 11.9759859,9.2947715 11.9759859,9.2947715 11.9772337,9.3120308 11.9799534,9.3289419 11.9851175,9.3452748 11.991743,9.361262 11.991743,9.361262 12.0006838,9.3757982 12.005597,9.3826402 12.0110416,9.3889711 12.0171393,9.3946737 12.0237744,9.3998594 12.0379402,9.4093691 12.0379402,9.4093691 12.0557272,9.4167258 12.0647539,9.4198259 12.0739401,9.422233 12.0833076,9.4238523 12.0928166,9.4248571 12.1120705,9.4258425z" transform="matrix(1,0,0,-1,0.0000002,12.2)" fill="rgb(255,255,255)" stroke="rgb(0,0,0)" stroke-width="0.0010cm" stroke-linecap="round" stroke-linejoin="round" shaper:cutDepth="0" /><path d="M10.9887835,5.1018579 L10.9703446,5.0695942 10.9703446,5.0695942 10.9585908,5.0747262 10.9465902,5.0785548 10.940422,5.0795823 10.9341381,5.0799984 10.9213754,5.0798011 10.9213754,5.0798011 10.9115977,5.0767481 10.9025933,5.0724607 10.8948551,5.0661523 10.887864,5.0586513 10.887864,5.0586513 10.8815165,5.0480699 10.8788975,5.042631 10.8769444,5.0370141 10.8758101,5.0311785 10.8753503,5.0251626 10.8755549,5.0128305 10.8755549,5.0128305 10.8787644,5.0007644 10.8808754,4.9950311 10.883594,4.9896577 10.887045,4.984718 10.8910879,4.9801288 10.9001603,4.9715346 10.9001603,4.9715346 10.9101402,4.965405 10.915273,4.9628562 10.920577,4.9609268 10.9260948,4.9597704 10.9317919,4.9592626 10.9434852,4.9593279 10.9434852,4.9593279 10.9548135,4.9624449 10.9601891,4.9644834 10.9652184,4.9670978 10.969836,4.970397 10.9741245,4.9742438 10.9821528,4.9828499 10.9821528,4.9828499 10.9891243,4.9940287 10.9946635,5.0059943 11.0178862,4.9831278 11.0178862,4.9831278 11.013961,4.9786581 11.013961,4.9786581 11.0078829,4.969184 11.0029373,4.9592736 10.9999021,4.948627 10.9980275,4.9375331 10.9980275,4.9375331 10.9991239,4.9263371 11.0002992,4.9210397 11.0022268,4.916103 11.0050342,4.9115882 11.0085378,4.9074071 11.0167054,4.8996013 11.0167054,4.8996013 11.0247797,4.8947029 11.033218,4.8911705 11.0422726,4.8899514 11.0517036,4.8901443 11.0517036,4.8901443 11.0611072,4.8929069 11.0697316,4.8969335 11.0771053,4.9029887 11.0837531,4.9102214 11.0837531,4.9102214 11.0889845,4.9186558 11.0928837,4.9274823 11.0945103,4.9369778 11.0947383,4.946885 11.0947383,4.946885 11.0918243,4.9579043 11.0875411,4.968215 11.0811939,4.9774575 11.0736971,4.9861051 11.1012467,5.0114174 11.1012467,5.0114174 11.1115745,4.9982047 11.1161497,4.9913359 11.1200186,4.9841524 11.1229883,4.9765681 11.1251793,4.9686368 11.1282621,4.9521951 11.1282621,4.9521951 11.1270817,4.936028 11.1258264,4.9281619 11.1237733,4.9205567 11.1207815,4.9132584 11.1170444,4.9062038 11.108328,4.8925009 11.108328,4.8925009 11.1005874,4.8836364 11.0921926,4.8755675 11.0826915,4.8688434 11.0725165,4.8629388 11.0725165,4.8629388 11.0623765,4.8589602 11.0520385,4.856084 11.041363,4.8550862 11.0304802,4.8552433 11.0304802,4.8552433 11.0204288,4.8571559 11.0107586,4.8600306 11.0017301,4.8645246 10.9930905,4.8699999 10.9930905,4.8699999 10.9861138,4.8763287 10.9799647,4.8832629 10.975202,4.8912115 10.9712755,4.8997717 10.9712755,4.8997717 10.9689291,4.9096777 10.967704,4.9196308 10.9682613,4.929659 10.9698455,4.9397304 10.9698455,4.9397304 10.9595651,4.9325915 10.9487236,4.9269389 10.9429332,4.9250917 10.9369187,4.9238382 10.924516,4.9223209 10.924516,4.9223209 10.9116549,4.9239552 10.9054024,4.9252632 10.8993636,4.9271598 10.887974,4.9328487 10.8771021,4.939964 10.8771021,4.939964 10.8635562,4.9531373 10.8575774,4.9601715 10.8525514,4.967743 10.8486876,4.9759695 10.8457727,4.9847309 10.8415243,5.0031453 10.8415243,5.0031453 10.8419403,5.023195 10.8430429,5.0329572 10.845219,5.0424044 10.8486671,5.0514782 10.85313,5.0602541 10.8637471,5.0773095 10.8637471,5.0773095 10.8759219,5.0906104 10.8824172,5.0966222 10.8894021,5.1018674 10.8970025,5.1061486 10.9051251,5.1096124 10.9222405,5.1151771 10.9222405,5.1151771 10.93975,5.1162974 10.9483537,5.1160883 10.9567762,5.1149561 10.9649816,5.1127184 10.9730125,5.109592 10.9887835,5.1018579z" transform="matrix(1,0,0,-1,0.0000002,12.2)" fill="rgb(255,255,255)" stroke="rgb(0,0,0)" stroke-width="0.0010cm" stroke-linecap="round" stroke-linejoin="round" shaper:cutDepth="0" /><path d="M10.1886488,4.431659 L10.1807151,4.2938133 10.2981569,4.2438458 10.2590287,4.2195764 10.2038244,4.2452965 10.2038244,4.2452965 10.1781198,4.2580091 10.1781198,4.2580091 10.1766537,4.2289255 10.1725988,4.1659681 10.1352096,4.1427774 10.1451002,4.269315 10.015789,4.3244424 10.0542216,4.3482803 10.1277275,4.3144066 10.1474138,4.3051853 10.1507379,4.4081447 10.1886488,4.431659z" transform="matrix(1,0,0,-1,0.0000002,12.2)" fill="rgb(255,255,255)" stroke="rgb(0,0,0)" stroke-width="0.0010cm" stroke-linecap="round" stroke-linejoin="round" shaper:cutDepth="0" /><path d="M11.4916763,1.9554569 L11.523001,1.9473936 11.523001,1.9473936 11.5217317,1.9374038 11.5216356,1.9275519 11.5236361,1.9179465 11.5270156,1.9085032 11.5270156,1.9085032 11.5320215,1.9013956 11.5378204,1.8952314 11.5449248,1.8906203 11.5528031,1.8869299 11.5528031,1.8869299 11.5632878,1.8846814 11.568487,1.8840875 11.5736344,1.88413 11.5787189,1.8849451 11.5837523,1.8863883 11.5937338,1.8903214 11.5937338,1.8903214 11.6034723,1.8975301 11.6079049,1.9014877 11.611814,1.9058687 11.615123,1.9107351 11.6179621,1.9159817 11.622857,1.9271085 11.622857,1.9271085 11.625783,1.9381576 11.6271457,1.9491792 11.6267827,1.9546716 11.6257596,1.9601523 11.6226113,1.9710942 11.6226113,1.9710942 11.6167435,1.9801472 11.6134608,1.9842744 11.6097596,1.9879225 11.6009815,1.9936436 11.5911606,1.9981707 11.5911606,1.9981707 11.5843943,2.0000236 11.5775701,2.0012137 11.5706474,2.0012772 11.5636643,2.0006499 11.5636643,2.0006499 11.5512769,1.9969641 11.545608,1.9939338 11.5401874,1.990342 11.5142212,2.0033965 11.5794662,2.1166165 11.6968161,2.0755808 11.6871341,2.0478933 11.5929645,2.0808232 11.5580691,2.0218465 11.5580691,2.0218465 11.5705647,2.024311 11.5830317,2.0253528 11.5954497,2.0239602 11.6078376,2.0210636 11.6078376,2.0210636 11.6218414,2.0143384 11.6283621,2.0104352 11.6343056,2.0058835 11.6395386,2.0005338 11.6441864,1.9945265 11.6525064,1.981416 11.6525064,1.981416 11.6574547,1.9659653 11.6591529,1.9582103 11.6599203,1.9504197 11.6595879,1.942587 11.6583797,1.9347208 11.6545036,1.9189326 11.6545036,1.9189326 11.6479136,1.9044324 11.6441277,1.8975673 11.6397527,1.891164 11.6346449,1.8853353 11.6289253,1.8799861 11.6164667,1.8700873 11.6164667,1.8700873 11.5990813,1.8623339 11.5902825,1.8594973 11.5813562,1.8579087 11.5722777,1.8578115 11.5630771,1.8589113 11.5444721,1.8631058 11.5444721,1.8631058 11.5305552,1.8692709 11.5239851,1.8728381 11.517881,1.8769869 11.5123691,1.8818744 11.5073681,1.8873996 11.4982187,1.8995137 11.4982187,1.8995137 11.4927857,1.9130354 11.4907293,1.9198769 11.4894651,1.9268152 11.4891414,1.9338685 11.4895689,1.9410136 11.4916763,1.9554569z" transform="matrix(1,0,0,-1,0.0000002,12.2)" fill="rgb(255,255,255)" stroke="rgb(0,0,0)" stroke-width="0.0010cm" stroke-linecap="round" stroke-linejoin="round" shaper:cutDepth="0" /><path d="M11.9358744,1.454708 L12.0371343,1.4000676 12.1163048,1.4710892 12.1208159,1.4329855 12.0819159,1.4003893 12.0819159,1.4003893 12.063247,1.3854716 12.063247,1.3854716 12.0846849,1.3741001 12.1307804,1.3488189 12.135091,1.3124088 12.0430582,1.3645354 11.9558033,1.2863747 11.9513724,1.3238009 12.002887,1.3673353 12.0167962,1.378942 11.9402451,1.4177898 11.9358744,1.454708z" transform="matrix(1,0,0,-1,0.0000002,12.2)" fill="rgb(255,255,255)" stroke="rgb(0,0,0)" stroke-width="0.0010cm" stroke-linecap="round" stroke-linejoin="round" shaper:cutDepth="0" /><path d="M10.0850516,2.4758658 L10.0850516,2.4758658 10.0983286,2.4881722 10.1121748,2.4997042 10.1270585,2.5098246 10.1426505,2.5189813 10.1426505,2.5189813 10.1544099,2.5237331 10.1664022,2.5272426 10.1788023,2.5285773 10.191462,2.5285271 10.191462,2.5285271 10.2033254,2.5255494 10.2090186,2.5236025 10.2144259,2.5211064 10.2243137,2.5143343 10.2335028,2.5062202 10.2335028,2.5062202 10.2395051,2.4992601 10.2448105,2.4918831 10.2489096,2.4837846 10.2522525,2.4752337 10.2522525,2.4752337 10.2539457,2.4667012 10.2547975,2.4581507 10.2542679,2.4495706 10.2529212,2.440973 10.2529212,2.440973 10.2499934,2.4312752 10.2464705,2.4218299 10.2370246,2.4039572 10.2370246,2.4039572 10.2283677,2.3918497 10.2191275,2.3802322 10.1985085,2.3587938 10.1985085,2.3587938 10.1852952,2.3465507 10.1715184,2.335073 10.1567156,2.324989 10.1412138,2.3158545 10.1412138,2.3158545 10.1294603,2.3110712 10.1174704,2.3075317 10.105067,2.3061678 10.0924004,2.3061881 10.0924004,2.3061881 10.0804827,2.3091583 10.0747642,2.311106 10.0693338,2.3136082 10.0594055,2.320407 10.0501797,2.3285581 10.0501797,2.3285581 10.0401111,2.3415749 10.0358874,2.3483658 10.0326363,2.3554958 10.0306018,2.3630499 10.0295905,2.3709606 10.0292736,2.3873765 10.0292736,2.3873765 10.0379941,2.4126157 10.0433634,2.4246332 10.0499181,2.4359434 10.057658,2.4465466 10.0662923,2.4566161 10.0850516,2.4758658z" transform="matrix(1,0,0,-1,0.0000002,12.2)" fill="rgb(255,255,255)" stroke="rgb(0,0,0)" stroke-width="0.0010cm" stroke-linecap="round" stroke-linejoin="round" shaper:cutDepth="0" /><path d="M7.7001568,2.4882417 L7.9913376,2.5629577 7.9996789,2.5304501 7.972325,2.5234312 7.972325,2.5234312 7.9807689,2.5196481 7.9888127,2.5152503 7.9961611,2.5097841 8.0030713,2.5036445 8.0030713,2.5036445 8.0088007,2.4961611 8.0136916,2.4882375 8.0172705,2.479625 8.0201016,2.4706199 8.0201016,2.4706199 8.0223468,2.4577412 8.0231622,2.4449138 8.0215444,2.4321738 8.0184332,2.4194875 8.0184332,2.4194875 8.012788,2.4075851 8.00595,2.3965784 7.9971768,2.3870249 7.9872707,2.3783223 7.9872707,2.3783223 7.9749508,2.3703274 7.962155,2.3633405 7.9485863,2.357991 7.9345647,2.3536009 7.9345647,2.3536009 7.9193897,2.3505477 7.9041544,2.3486769 7.8888157,2.3488403 7.8734126,2.3502686 7.8734126,2.3502686 7.8601079,2.3536423 7.8474646,2.3583618 7.8359477,2.3653735 7.8251227,2.3737932 7.8251227,2.3737932 7.8165936,2.3832782 7.8091974,2.3934375 7.8037218,2.4047397 7.7994195,2.4167401 7.7994195,2.4167401 7.7978091,2.4252024 7.7969688,2.4336774 7.7974463,2.4421744 7.7987376,2.4506849 7.7987376,2.4506849 7.8037972,2.4654553 7.8075121,2.472288 7.8117901,2.4788582 7.709312,2.4525626 7.7001568,2.4882417z" transform="matrix(1,0,0,-1,0.0000002,12.2)" fill="rgb(255,255,255)" stroke="rgb(0,0,0)" stroke-width="0.0010cm" stroke-linecap="round" stroke-linejoin="round" shaper:cutDepth="0" /><path d="M4.4662032,3.238434 L4.4662032,3.238434 4.4870212,3.2446418 4.5080413,3.2497142 4.5294298,3.2527169 4.5510698,3.2543065 4.5510698,3.2543065 4.5662483,3.2531865 4.5810189,3.2506057 4.5881323,3.2483418 4.5950752,3.2454675 4.6086768,3.2387008 4.6086768,3.2387008 4.6198688,3.2292049 4.6249652,3.2240903 4.6294626,3.2185361 4.6332637,3.212471 4.636516,3.2060031 4.6421056,3.1923959 4.6421056,3.1923959 4.6448766,3.1817207 4.6466763,3.1709662 4.6467948,3.1600747 4.6458593,3.1490971 4.6458593,3.1490971 4.6431578,3.1390141 4.639541,3.1293578 4.6344215,3.1204022 4.6284129,3.1118611 4.6284129,3.1118611 4.620119,3.1029738 4.6113183,3.0946739 4.6017226,3.0872953 4.591673,3.0804425 4.591673,3.0804425 4.575934,3.0719991 4.5598269,3.0643924 4.5431894,3.0579915 4.5262632,3.052247 4.5262632,3.052247 4.5055473,3.0460735 4.4846307,3.0410228 4.4633486,3.0380164 4.4418175,3.0364027 4.4418175,3.0364027 4.4266286,3.0374858 4.4118447,3.040033 4.4047225,3.0422819 4.3977693,3.0451416 4.3841445,3.0518796 4.3841445,3.0518796 4.3728901,3.0613963 4.3677668,3.0665251 4.3632478,3.0720982 4.3594302,3.0781868 4.356165,3.0846815 4.3505555,3.0983479 4.3505555,3.0983479 4.3466186,3.1176993 4.3456726,3.1272493 4.3459535,3.1366485 4.3477688,3.1458592 4.3508747,3.1549113 4.3592379,3.172751 4.3592379,3.172751 4.3820082,3.195297 4.3941604,3.2053868 4.4072137,3.2140867 4.4211679,3.221397 4.4358019,3.2276586 4.4662032,3.238434z" transform="matrix(1,0,0,-1,0.0000002,12.2)" fill="rgb(255,255,255)" stroke="rgb(0,0,0)" stroke-width="0.0010cm" stroke-linecap="round" stroke-linejoin="round" shaper:cutDepth="0" /><path d="M4.8169482,5.683281 L4.7889681,5.7049707 4.9104557,5.8616919 4.9104557,5.8616919 4.9202063,5.8530413 4.9280397,5.8426237 4.9280397,5.8426237 4.9335268,5.8322299 4.9382712,5.8215486 4.9418359,5.8104108 4.9447212,5.7990102 4.9447212,5.7990102 4.9473342,5.7826334 4.9493412,5.7661949 4.9511007,5.7330885 4.9511007,5.7330885 4.9518643,5.7101007 4.9534374,5.6872078 4.9565481,5.6644953 4.9608236,5.6419194 4.9608236,5.6419194 4.9647768,5.6303918 4.9698441,5.6195556 4.9769121,5.6099609 4.9853078,5.6011901 4.9853078,5.6011901 4.9942548,5.5957878 5.0036097,5.5919307 5.008551,5.5910019 5.013646,5.5906554 5.0240921,5.5909328 5.0240921,5.5909328 5.0349008,5.594113 5.0400267,5.5961573 5.0448186,5.5987461 5.0533155,5.605696 5.0609917,5.613984 5.0609917,5.613984 5.0674006,5.6239269 5.0701027,5.629049 5.072202,5.6343516 5.0735358,5.6398838 5.0742091,5.6456138 5.0744542,5.657404 5.0744542,5.657404 5.0710441,5.6691068 5.0688298,5.6746473 5.0660055,5.6798154 5.0624892,5.684561 5.0584337,5.6889775 5.049424,5.6972619 5.0756912,5.7248008 5.0756912,5.7248008 5.0881746,5.7112841 5.0937301,5.7041745 5.098462,5.6966434 5.1021359,5.6885707 5.1048745,5.6800193 5.1087901,5.6621171 5.1087901,5.6621171 5.1071389,5.6437336 5.1055249,5.6348139 5.1029665,5.6262202 5.0993408,5.6179948 5.0948848,5.6100561 5.0845888,5.5946563 5.0845888,5.5946563 5.0719719,5.580722 5.0652412,5.5744246 5.0580038,5.568931 5.050117,5.5644675 5.0416592,5.5609097 5.0237908,5.5553056 5.0237908,5.5553056 5.0069995,5.5548194 4.998811,5.5553639 4.9908709,5.5568535 4.983233,5.5594919 4.9758409,5.5630654 4.9614666,5.5717707 4.9614666,5.5717707 4.9546381,5.5778262 4.948339,5.5843345 4.9429112,5.5915878 4.9379999,5.5992829 4.9379999,5.5992829 4.9333282,5.6093224 4.9293395,5.6195952 4.9263932,5.6302239 4.9240316,5.6410522 4.9240316,5.6410522 4.9193218,5.6795477 4.9170953,5.7182802 4.9170953,5.7182802 4.9158276,5.7467106 4.913333,5.7750526 4.913333,5.7750526 4.9108537,5.7874751 4.9070923,5.7995685 4.8169482,5.683281z" transform="matrix(1,0,0,-1,0.0000002,12.2)" fill="rgb(255,255,255)" stroke="rgb(0,0,0)" stroke-width="0.0010cm" stroke-linecap="round" stroke-linejoin="round" shaper:cutDepth="0" /><path d="M4.1469964,5.167323 L4.1286344,5.0304756 4.2419496,4.9717476 4.201094,4.9505148 4.1479986,4.9803463 4.1479986,4.9803463 4.1233319,4.9949712 4.1233319,4.9949712 4.1196649,4.9660824 4.1108484,4.9036137 4.0718085,4.8833246 4.0912645,5.008748 3.9665052,5.0735209 4.0066345,5.0943763 4.0773606,5.055027 4.0962911,5.0443397 4.1074118,5.1467507 4.1469964,5.167323z" transform="matrix(1,0,0,-1,0.0000002,12.2)" fill="rgb(255,255,255)" stroke="rgb(0,0,0)" stroke-width="0.0010cm" stroke-linecap="round" stroke-linejoin="round" shaper:cutDepth="0" /></svg>