<?xml version="1.0" encoding="UTF-8" standalone="no"?>
<!-- Created with Inkscape (http://www.inkscape.org/) -->

<svg
   width="360mm"
   height="255mm"
   viewBox="0 0 360 255"
   version="1.1"
   id="svg5"
   sodipodi:docname="toile_araignee_V1_decoupe.svg"
   inkscape:version="1.1.2 (0a00cf5339, 2022-02-04)"
   xmlns:inkscape="http://www.inkscape.org/namespaces/inkscape"
   xmlns:sodipodi="http://sodipodi.sourceforge.net/DTD/sodipodi-0.dtd"
   xmlns="http://www.w3.org/2000/svg"
   xmlns:svg="http://www.w3.org/2000/svg">
  <sodipodi:namedview
     id="namedview7"
     pagecolor="#ffffff"
     bordercolor="#666666"
     borderopacity="1.0"
     inkscape:pageshadow="2"
     inkscape:pageopacity="0.0"
     inkscape:pagecheckerboard="0"
     inkscape:document-units="mm"
     showgrid="false"
     inkscape:snap-center="true"
     inkscape:zoom="0.96901597"
     inkscape:cx="604.22121"
     inkscape:cy="352.41937"
     inkscape:window-width="1870"
     inkscape:window-height="1016"
     inkscape:window-x="0"
     inkscape:window-y="0"
     inkscape:window-maximized="1"
     inkscape:current-layer="layer1"
     inkscape:snap-bbox="true"
     inkscape:snap-bbox-midpoints="true" />
  <defs
     id="defs2">
    <rect
       x="378.25"
       y="660.37891"
       width="230.43359"
       height="128.26562"
       id="rect154858" />
    <rect
       x="1151.493"
       y="842.01226"
       width="652.77005"
       height="155.3729"
       id="rect96516" />
    <rect
       x="245.77734"
       y="177.51953"
       width="309.78515"
       height="187.02735"
       id="rect73400" />
    <rect
       x="828.31069"
       y="521.48089"
       width="55.866615"
       height="33.817865"
       id="rect24927" />
    <rect
       x="828.31067"
       y="521.4809"
       width="55.866615"
       height="33.817863"
       id="rect24927-5" />
    <rect
       x="828.31067"
       y="521.4809"
       width="55.866615"
       height="33.817863"
       id="rect24927-4" />
    <rect
       x="828.31067"
       y="521.4809"
       width="55.866615"
       height="33.817863"
       id="rect24927-7" />
    <rect
       x="828.31067"
       y="521.4809"
       width="55.866615"
       height="33.817863"
       id="rect24927-72" />
    <rect
       x="828.31067"
       y="521.4809"
       width="55.866615"
       height="33.817863"
       id="rect24927-72-2" />
    <rect
       x="828.31067"
       y="521.4809"
       width="55.866615"
       height="33.817863"
       id="rect24927-72-6" />
    <rect
       x="828.31067"
       y="521.4809"
       width="55.866615"
       height="33.817863"
       id="rect24927-72-0" />
    <rect
       x="828.31067"
       y="521.4809"
       width="55.866615"
       height="33.817863"
       id="rect24927-72-1" />
    <rect
       x="245.77734"
       y="177.51953"
       width="345.5625"
       height="126.88282"
       id="rect73400-9" />
    <rect
       x="245.77734"
       y="177.51953"
       width="263.13344"
       height="138.84072"
       id="rect73400-9-9" />
    <rect
       x="245.77734"
       y="177.51953"
       width="263.13345"
       height="138.84071"
       id="rect73400-9-9-9" />
    <rect
       x="245.77734"
       y="177.51953"
       width="263.13345"
       height="138.84071"
       id="rect73400-9-9-9-7" />
    <rect
       x="245.77734"
       y="177.51953"
       width="361.84077"
       height="181.13666"
       id="rect73400-9-1" />
    <rect
       x="245.77734"
       y="177.51953"
       width="361.84076"
       height="181.13666"
       id="rect73400-9-1-5" />
    <rect
       x="716.11237"
       y="89.152382"
       width="403.69339"
       height="131.24007"
       id="rect116635" />
  </defs>
  <g
     inkscape:label="Calque 1"
     inkscape:groupmode="layer"
     id="layer1">
    <path
       sodipodi:type="star"
       style="fill:none;stroke:#0000ff;stroke-width:0.522692;stroke-linecap:round;stroke-linejoin:round;stroke-miterlimit:4;stroke-dasharray:none;stroke-opacity:1"
       id="path879-2"
       inkscape:flatsided="true"
       sodipodi:sides="6"
       sodipodi:cx="180.9073"
       sodipodi:cy="248.87238"
       sodipodi:r1="280.29199"
       sodipodi:r2="242.73997"
       sodipodi:arg1="0.52359878"
       sodipodi:arg2="1.0471976"
       inkscape:rounded="0"
       inkscape:randomized="0"
       transform="matrix(0.33137149,0.19131742,-0.19131742,0.33137149,153.94826,12.052854)"
       d="m 423.64729,389.01837 -242.73999,140.146 -242.739983,-140.146 1e-6,-280.29199 L 180.9073,-31.419617 423.64729,108.72638 Z" />
    <path
       sodipodi:type="star"
       style="fill:none;stroke:#00fd00;stroke-width:1.40671;stroke-linecap:round;stroke-linejoin:round;stroke-miterlimit:4;stroke-dasharray:none;stroke-opacity:1"
       id="path879-2-92"
       inkscape:flatsided="true"
       sodipodi:sides="6"
       sodipodi:cx="180.9073"
       sodipodi:cy="248.87238"
       sodipodi:r1="280.29199"
       sodipodi:r2="242.73997"
       sodipodi:arg1="0.52359878"
       sodipodi:arg2="1.0471976"
       inkscape:rounded="0"
       inkscape:randomized="0"
       transform="matrix(0.36938454,0.21326426,-0.21326426,0.36938454,152.53338,-1.3778891)"
       d="m 423.64729,389.01837 -242.73999,140.146 -242.739983,-140.146 1e-6,-280.29199 L 180.9073,-31.419617 423.64729,108.72638 Z" />
    <path
       sodipodi:type="star"
       style="fill:none;stroke:#0000ff;stroke-width:0.586662;stroke-linecap:round;stroke-linejoin:round;stroke-miterlimit:4;stroke-dasharray:none;stroke-opacity:1"
       id="path879-2-9"
       inkscape:flatsided="true"
       sodipodi:sides="6"
       sodipodi:cx="180.9073"
       sodipodi:cy="248.87238"
       sodipodi:r1="280.29199"
       sodipodi:r2="242.73997"
       sodipodi:arg1="0.52359878"
       sodipodi:arg2="1.0471976"
       inkscape:rounded="0"
       inkscape:randomized="0"
       transform="matrix(0.29523811,0.1704558,-0.1704558,0.29523811,155.29317,24.819476)"
       d="m 423.64729,389.01837 -242.73999,140.146 -242.739983,-140.146 1e-6,-280.29199 L 180.9073,-31.419617 423.64729,108.72638 Z" />
    <path
       sodipodi:type="star"
       style="fill:none;stroke:#0000ff;stroke-width:0.670471;stroke-linecap:round;stroke-linejoin:round;stroke-miterlimit:4;stroke-dasharray:none;stroke-opacity:1"
       id="path879-2-1"
       inkscape:flatsided="true"
       sodipodi:sides="6"
       sodipodi:cx="180.9073"
       sodipodi:cy="248.87238"
       sodipodi:r1="280.29199"
       sodipodi:r2="242.73997"
       sodipodi:arg1="0.52359878"
       sodipodi:arg2="1.0471976"
       inkscape:rounded="0"
       inkscape:randomized="0"
       transform="matrix(0.25833334,0.14914882,-0.14914882,0.25833334,156.66679,37.858637)"
       d="m 423.64729,389.01837 -242.73999,140.146 -242.739983,-140.146 1e-6,-280.29199 L 180.9073,-31.419617 423.64729,108.72638 Z" />
    <path
       sodipodi:type="star"
       style="fill:none;stroke:#0000ff;stroke-width:0.782216;stroke-linecap:round;stroke-linejoin:round;stroke-miterlimit:4;stroke-dasharray:none;stroke-opacity:1"
       id="path879-2-9-2"
       inkscape:flatsided="true"
       sodipodi:sides="6"
       sodipodi:cx="180.9073"
       sodipodi:cy="248.87238"
       sodipodi:r1="280.29199"
       sodipodi:r2="242.73997"
       sodipodi:arg1="0.52359878"
       sodipodi:arg2="1.0471976"
       inkscape:rounded="0"
       inkscape:randomized="0"
       transform="matrix(0.22142858,0.12784185,-0.12784185,0.22142858,158.04041,50.897798)"
       d="m 423.64729,389.01837 -242.73999,140.146 -242.739983,-140.146 1e-6,-280.29199 L 180.9073,-31.419617 423.64729,108.72638 Z" />
    <path
       sodipodi:type="star"
       style="fill:none;stroke:#00ff00;stroke-width:2.81598;stroke-linecap:round;stroke-linejoin:round;stroke-miterlimit:4;stroke-dasharray:none;stroke-opacity:1"
       id="path879-2-9-2-2"
       inkscape:flatsided="true"
       sodipodi:sides="6"
       sodipodi:cx="180.9073"
       sodipodi:cy="248.87238"
       sodipodi:r1="280.29199"
       sodipodi:r2="242.73997"
       sodipodi:arg1="0.52359878"
       sodipodi:arg2="1.0471976"
       inkscape:rounded="0"
       inkscape:randomized="0"
       transform="matrix(0.18452382,0.10653487,-0.10653487,0.18452382,159.41403,63.936959)"
       d="m 423.64729,389.01837 -242.73999,140.146 -242.739983,-140.146 1e-6,-280.29199 L 180.9073,-31.419617 423.64729,108.72638 Z" />
    <path
       sodipodi:type="star"
       style="fill:none;stroke:#0000ff;stroke-width:1.17332;stroke-linecap:round;stroke-linejoin:round;stroke-miterlimit:4;stroke-dasharray:none;stroke-opacity:1"
       id="path879-2-9-2-2-6"
       inkscape:flatsided="true"
       sodipodi:sides="6"
       sodipodi:cx="180.9073"
       sodipodi:cy="248.87238"
       sodipodi:r1="280.29199"
       sodipodi:r2="242.73997"
       sodipodi:arg1="0.52359878"
       sodipodi:arg2="1.0471976"
       inkscape:rounded="0"
       inkscape:randomized="0"
       transform="matrix(0.14761905,0.0852279,-0.0852279,0.14761905,160.78765,76.976121)"
       d="m 423.64729,389.01837 -242.73999,140.146 -242.739983,-140.146 1e-6,-280.29199 L 180.9073,-31.419617 423.64729,108.72638 Z" />
    <path
       sodipodi:type="star"
       style="fill:none;stroke:#0000ff;stroke-width:1.56443;stroke-linecap:round;stroke-linejoin:round;stroke-miterlimit:4;stroke-dasharray:none;stroke-opacity:1"
       id="path879-2-9-2-2-6-1"
       inkscape:flatsided="true"
       sodipodi:sides="6"
       sodipodi:cx="180.9073"
       sodipodi:cy="248.87238"
       sodipodi:r1="280.29199"
       sodipodi:r2="242.73997"
       sodipodi:arg1="0.52359878"
       sodipodi:arg2="1.0471976"
       inkscape:rounded="0"
       inkscape:randomized="0"
       transform="matrix(0.11071429,0.06392093,-0.06392093,0.11071429,162.16127,90.015282)"
       d="m 423.64729,389.01837 -242.73999,140.146 -242.739983,-140.146 1e-6,-280.29199 L 180.9073,-31.419617 423.64729,108.72638 Z" />
    <path
       sodipodi:type="star"
       style="fill:none;stroke:#0000ff;stroke-width:2.34665;stroke-linecap:round;stroke-linejoin:round;stroke-miterlimit:4;stroke-dasharray:none;stroke-opacity:1"
       id="path879-2-9-2-2-6-1-8"
       inkscape:flatsided="true"
       sodipodi:sides="6"
       sodipodi:cx="180.9073"
       sodipodi:cy="248.87238"
       sodipodi:r1="280.29199"
       sodipodi:r2="242.73997"
       sodipodi:arg1="0.52359878"
       sodipodi:arg2="1.0471976"
       inkscape:rounded="0"
       inkscape:randomized="0"
       transform="matrix(0.07380953,0.04261395,-0.04261395,0.07380953,163.53488,103.05445)"
       d="m 423.64729,389.01837 -242.73999,140.146 -242.739983,-140.146 1e-6,-280.29199 L 180.9073,-31.419617 423.64729,108.72638 Z" />
    <path
       sodipodi:type="star"
       style="fill:none;stroke:#0000ff;stroke-width:4.6933;stroke-linecap:round;stroke-linejoin:round;stroke-miterlimit:4;stroke-dasharray:none;stroke-opacity:1"
       id="path879-2-9-2-2-6-1-8-7"
       inkscape:flatsided="true"
       sodipodi:sides="6"
       sodipodi:cx="180.9073"
       sodipodi:cy="248.87238"
       sodipodi:r1="280.29199"
       sodipodi:r2="242.73997"
       sodipodi:arg1="0.52359878"
       sodipodi:arg2="1.0471976"
       inkscape:rounded="0"
       inkscape:randomized="0"
       transform="matrix(0.03690476,0.02130697,-0.02130697,0.03690476,164.90851,116.09361)"
       d="m 423.64729,389.01837 -242.73999,140.146 -242.739983,-140.146 1e-6,-280.29199 L 180.9073,-31.419617 423.64729,108.72638 Z" />
    <path
       style="fill:none;stroke:#00ff00;stroke-width:0.8;stroke-linecap:butt;stroke-linejoin:miter;stroke-miterlimit:4;stroke-dasharray:none;stroke-opacity:1"
       d="m 46.618117,129.13278 239.328083,1e-5"
       id="path1119"
       sodipodi:nodetypes="cc" />
    <path
       style="fill:none;stroke:#00fd00;stroke-width:0.8;stroke-linecap:butt;stroke-linejoin:miter;stroke-miterlimit:4;stroke-dasharray:none;stroke-opacity:1"
       d="M 106.45014,25.500684 226.11418,232.76488"
       id="path1154" />
    <path
       style="fill:none;stroke:#00ff00;stroke-width:0.8;stroke-linecap:butt;stroke-linejoin:miter;stroke-miterlimit:4;stroke-dasharray:none;stroke-opacity:1"
       d="M 226.11417,25.500681 106.45013,232.76488"
       id="path1156" />
    <circle
       style="fill:none;stroke:#ff0000;stroke-width:0.1;stroke-linecap:round;stroke-linejoin:round;stroke-miterlimit:4;stroke-dasharray:none;stroke-opacity:1"
       id="path2274"
       cx="105.03545"
       cy="88.467453"
       r="1.4648849"
       transform="rotate(30)" />
    <circle
       style="fill:none;stroke:#ff0000;stroke-width:0.1;stroke-linecap:round;stroke-linejoin:round;stroke-miterlimit:4;stroke-dasharray:none;stroke-opacity:1"
       id="path2274-0"
       cx="115.69019"
       cy="82.315933"
       r="1.4648849"
       transform="rotate(30)" />
    <circle
       style="fill:none;stroke:#ff0000;stroke-width:0.1;stroke-linecap:round;stroke-linejoin:round;stroke-miterlimit:4;stroke-dasharray:none;stroke-opacity:1"
       id="path2274-0-2"
       cx="125.81809"
       cy="76.468582"
       r="1.4648849"
       transform="rotate(30)" />
    <circle
       style="fill:none;stroke:#ff0000;stroke-width:0.1;stroke-linecap:round;stroke-linejoin:round;stroke-miterlimit:4;stroke-dasharray:none;stroke-opacity:1"
       id="path2274-0-3"
       cx="136.16219"
       cy="70.496414"
       r="1.4648849"
       transform="rotate(30)" />
    <circle
       style="fill:none;stroke:#ff0000;stroke-width:0.1;stroke-linecap:round;stroke-linejoin:round;stroke-miterlimit:4;stroke-dasharray:none;stroke-opacity:1"
       id="path2274-0-7"
       cx="146.50629"
       cy="64.524246"
       r="1.4648849"
       transform="rotate(30)" />
    <circle
       style="fill:none;stroke:#ff0000;stroke-width:0.1;stroke-linecap:round;stroke-linejoin:round;stroke-miterlimit:4;stroke-dasharray:none;stroke-opacity:1"
       id="path2274-4"
       cx="-312.10651"
       cy="88.467453"
       r="1.4648849"
       transform="matrix(-0.8660254,-0.5,-0.5,0.8660254,0,0)" />
    <circle
       style="fill:none;stroke:#ff0000;stroke-width:0.1;stroke-linecap:round;stroke-linejoin:round;stroke-miterlimit:4;stroke-dasharray:none;stroke-opacity:1"
       id="path2274-0-4"
       cx="-301.45175"
       cy="82.315933"
       r="1.4648849"
       transform="matrix(-0.8660254,-0.5,-0.5,0.8660254,0,0)" />
    <circle
       style="fill:none;stroke:#ff0000;stroke-width:0.1;stroke-linecap:round;stroke-linejoin:round;stroke-miterlimit:4;stroke-dasharray:none;stroke-opacity:1"
       id="path2274-0-2-30"
       cx="-291.32385"
       cy="76.468582"
       r="1.4648849"
       transform="matrix(-0.8660254,-0.5,-0.5,0.8660254,0,0)" />
    <circle
       style="fill:none;stroke:#ff0000;stroke-width:0.1;stroke-linecap:round;stroke-linejoin:round;stroke-miterlimit:4;stroke-dasharray:none;stroke-opacity:1"
       id="path2274-0-3-786"
       cx="-280.97974"
       cy="70.496414"
       r="1.4648849"
       transform="matrix(-0.8660254,-0.5,-0.5,0.8660254,0,0)" />
    <circle
       style="fill:none;stroke:#ff0000;stroke-width:0.1;stroke-linecap:round;stroke-linejoin:round;stroke-miterlimit:4;stroke-dasharray:none;stroke-opacity:1"
       id="path2274-0-7-8"
       cx="-270.63565"
       cy="64.524246"
       r="1.4648849"
       transform="matrix(-0.8660254,-0.5,-0.5,0.8660254,0,0)" />
    <circle
       style="fill:none;stroke:#ff0000;stroke-width:0.1;stroke-linecap:round;stroke-linejoin:round;stroke-miterlimit:4;stroke-dasharray:none;stroke-opacity:1"
       id="path2274-4-8"
       cx="-260.2915"
       cy="58.552063"
       r="1.4648849"
       transform="matrix(-0.8660254,-0.5,-0.5,0.8660254,0,0)" />
    <circle
       style="fill:none;stroke:#ff0000;stroke-width:0.1;stroke-linecap:round;stroke-linejoin:round;stroke-miterlimit:4;stroke-dasharray:none;stroke-opacity:1"
       id="path2274-0-4-4"
       cx="-249.63673"
       cy="52.400543"
       r="1.4648849"
       transform="matrix(-0.8660254,-0.5,-0.5,0.8660254,0,0)" />
    <circle
       style="fill:none;stroke:#ff0000;stroke-width:0.1;stroke-linecap:round;stroke-linejoin:round;stroke-miterlimit:4;stroke-dasharray:none;stroke-opacity:1"
       id="path2274-0-2-30-3"
       cx="-239.50883"
       cy="46.553192"
       r="1.4648849"
       transform="matrix(-0.8660254,-0.5,-0.5,0.8660254,0,0)" />
    <circle
       style="fill:none;stroke:#ff0000;stroke-width:0.1;stroke-linecap:round;stroke-linejoin:round;stroke-miterlimit:4;stroke-dasharray:none;stroke-opacity:1"
       id="path2274-0-3-786-1"
       cx="-229.16472"
       cy="40.581024"
       r="1.4648849"
       transform="matrix(-0.8660254,-0.5,-0.5,0.8660254,0,0)" />
    <circle
       style="fill:none;stroke:#ff0000;stroke-width:0.1;stroke-linecap:round;stroke-linejoin:round;stroke-miterlimit:4;stroke-dasharray:none;stroke-opacity:1"
       id="path2274-0-7-8-4"
       cx="-218.82063"
       cy="34.608856"
       r="1.4648849"
       transform="matrix(-0.8660254,-0.5,-0.5,0.8660254,0,0)" />
    <circle
       style="fill:none;stroke:#ff0000;stroke-width:0.1;stroke-linecap:round;stroke-linejoin:round;stroke-miterlimit:4;stroke-dasharray:none;stroke-opacity:1"
       id="path2274-2"
       cx="167.1945"
       cy="52.579895"
       r="1.4648849"
       transform="rotate(30)" />
    <circle
       style="fill:none;stroke:#ff0000;stroke-width:0.1;stroke-linecap:round;stroke-linejoin:round;stroke-miterlimit:4;stroke-dasharray:none;stroke-opacity:1"
       id="path2274-0-28"
       cx="177.84926"
       cy="46.428375"
       r="1.4648849"
       transform="rotate(30)" />
    <circle
       style="fill:none;stroke:#ff0000;stroke-width:0.1;stroke-linecap:round;stroke-linejoin:round;stroke-miterlimit:4;stroke-dasharray:none;stroke-opacity:1"
       id="path2274-0-2-9"
       cx="187.97716"
       cy="40.581024"
       r="1.4648849"
       transform="rotate(30)" />
    <circle
       style="fill:none;stroke:#ff0000;stroke-width:0.1;stroke-linecap:round;stroke-linejoin:round;stroke-miterlimit:4;stroke-dasharray:none;stroke-opacity:1"
       id="path2274-0-3-7"
       cx="198.32126"
       cy="34.608856"
       r="1.4648849"
       transform="rotate(30)" />
    <circle
       style="fill:none;stroke:#ff0000;stroke-width:0.1;stroke-linecap:round;stroke-linejoin:round;stroke-miterlimit:4;stroke-dasharray:none;stroke-opacity:1"
       id="path2274-0-7-5"
       cx="156.85039"
       cy="58.552063"
       r="1.4648849"
       transform="rotate(30)" />
    <circle
       style="fill:none;stroke:#ff0000;stroke-width:0.1;stroke-linecap:round;stroke-linejoin:round;stroke-miterlimit:4;stroke-dasharray:none;stroke-opacity:1"
       id="path2274-6"
       cx="218.91504"
       cy="22.719019"
       r="1.4648849"
       transform="rotate(30)" />
    <circle
       style="fill:none;stroke:#ff0000;stroke-width:0.1;stroke-linecap:round;stroke-linejoin:round;stroke-miterlimit:4;stroke-dasharray:none;stroke-opacity:1"
       id="path2274-0-1"
       cx="229.25916"
       cy="16.746853"
       r="1.4648849"
       transform="rotate(30)" />
    <circle
       style="fill:none;stroke:#ff0000;stroke-width:0.1;stroke-linecap:round;stroke-linejoin:round;stroke-miterlimit:4;stroke-dasharray:none;stroke-opacity:1"
       id="path2274-0-2-2"
       cx="239.60327"
       cy="10.77467"
       r="1.4648849"
       transform="rotate(30)" />
    <circle
       style="fill:none;stroke:#ff0000;stroke-width:0.1;stroke-linecap:round;stroke-linejoin:round;stroke-miterlimit:4;stroke-dasharray:none;stroke-opacity:1"
       id="path2274-0-3-9"
       cx="249.94739"
       cy="4.8024936"
       r="1.4648849"
       transform="rotate(30)" />
    <circle
       style="fill:none;stroke:#ff0000;stroke-width:0.1;stroke-linecap:round;stroke-linejoin:round;stroke-miterlimit:4;stroke-dasharray:none;stroke-opacity:1"
       id="path2274-0-7-3"
       cx="260.2915"
       cy="-1.1696841"
       r="1.4648849"
       transform="rotate(30)" />
    <circle
       style="fill:none;stroke:#ff0000;stroke-width:0.1;stroke-linecap:round;stroke-linejoin:round;stroke-miterlimit:4;stroke-dasharray:none;stroke-opacity:1"
       id="path2274-1"
       cx="270.63562"
       cy="-7.1418557"
       r="1.4648849"
       transform="rotate(30)" />
    <circle
       style="fill:none;stroke:#ff0000;stroke-width:0.1;stroke-linecap:round;stroke-linejoin:round;stroke-miterlimit:4;stroke-dasharray:none;stroke-opacity:1"
       id="path2274-0-9"
       cx="280.97974"
       cy="-13.114032"
       r="1.4648849"
       transform="rotate(30)" />
    <circle
       style="fill:none;stroke:#ff0000;stroke-width:0.1;stroke-linecap:round;stroke-linejoin:round;stroke-miterlimit:4;stroke-dasharray:none;stroke-opacity:1"
       id="path2274-0-2-4"
       cx="291.32385"
       cy="-19.086205"
       r="1.4648849"
       transform="rotate(30)" />
    <circle
       style="fill:none;stroke:#ff0000;stroke-width:0.1;stroke-linecap:round;stroke-linejoin:round;stroke-miterlimit:4;stroke-dasharray:none;stroke-opacity:1"
       id="path2274-0-3-78"
       cx="301.45175"
       cy="-24.933552"
       r="1.4648849"
       transform="rotate(30)" />
    <circle
       style="fill:none;stroke:#ff0000;stroke-width:0.1;stroke-linecap:round;stroke-linejoin:round;stroke-miterlimit:4;stroke-dasharray:none;stroke-opacity:1"
       id="path2274-0-7-4"
       cx="312.01205"
       cy="-31.03054"
       r="1.4648849"
       transform="rotate(30)" />
    <circle
       style="fill:none;stroke:#ff0000;stroke-width:0.1;stroke-linecap:round;stroke-linejoin:round;stroke-miterlimit:4;stroke-dasharray:none;stroke-opacity:1"
       id="path2274-5"
       cx="141.50284"
       cy="159.14029"
       r="1.4648849"
       transform="rotate(-30)" />
    <circle
       style="fill:none;stroke:#ff0000;stroke-width:0.1;stroke-linecap:round;stroke-linejoin:round;stroke-miterlimit:4;stroke-dasharray:none;stroke-opacity:1"
       id="path2274-0-0"
       cx="152.15758"
       cy="152.98877"
       r="1.4648849"
       transform="rotate(-30)" />
    <circle
       style="fill:none;stroke:#ff0000;stroke-width:0.1;stroke-linecap:round;stroke-linejoin:round;stroke-miterlimit:4;stroke-dasharray:none;stroke-opacity:1"
       id="path2274-0-2-3"
       cx="162.28549"
       cy="147.14143"
       r="1.4648849"
       transform="rotate(-30)" />
    <circle
       style="fill:none;stroke:#ff0000;stroke-width:0.1;stroke-linecap:round;stroke-linejoin:round;stroke-miterlimit:4;stroke-dasharray:none;stroke-opacity:1"
       id="path2274-0-3-6"
       cx="172.62959"
       cy="141.16925"
       r="1.4648849"
       transform="rotate(-30)" />
    <circle
       style="fill:none;stroke:#ff0000;stroke-width:0.1;stroke-linecap:round;stroke-linejoin:round;stroke-miterlimit:4;stroke-dasharray:none;stroke-opacity:1"
       id="path2274-0-7-1"
       cx="182.97369"
       cy="135.1971"
       r="1.4648849"
       transform="rotate(-30)" />
    <circle
       style="fill:none;stroke:#ff0000;stroke-width:0.1;stroke-linecap:round;stroke-linejoin:round;stroke-miterlimit:4;stroke-dasharray:none;stroke-opacity:1"
       id="path2274-5-0"
       cx="89.471642"
       cy="189.1805"
       r="1.4648849"
       transform="rotate(-30)" />
    <circle
       style="fill:none;stroke:#ff0000;stroke-width:0.1;stroke-linecap:round;stroke-linejoin:round;stroke-miterlimit:4;stroke-dasharray:none;stroke-opacity:1"
       id="path2274-0-0-6"
       cx="100.12638"
       cy="183.02898"
       r="1.4648849"
       transform="rotate(-30)" />
    <circle
       style="fill:none;stroke:#ff0000;stroke-width:0.1;stroke-linecap:round;stroke-linejoin:round;stroke-miterlimit:4;stroke-dasharray:none;stroke-opacity:1"
       id="path2274-0-2-3-3"
       cx="110.2543"
       cy="177.18164"
       r="1.4648849"
       transform="rotate(-30)" />
    <circle
       style="fill:none;stroke:#ff0000;stroke-width:0.1;stroke-linecap:round;stroke-linejoin:round;stroke-miterlimit:4;stroke-dasharray:none;stroke-opacity:1"
       id="path2274-0-3-6-2"
       cx="120.5984"
       cy="171.20946"
       r="1.4648849"
       transform="rotate(-30)" />
    <circle
       style="fill:none;stroke:#ff0000;stroke-width:0.1;stroke-linecap:round;stroke-linejoin:round;stroke-miterlimit:4;stroke-dasharray:none;stroke-opacity:1"
       id="path2274-0-7-1-0"
       cx="130.94249"
       cy="165.2373"
       r="1.4648849"
       transform="rotate(-30)" />
    <circle
       style="fill:none;stroke:#ff0000;stroke-width:0.1;stroke-linecap:round;stroke-linejoin:round;stroke-miterlimit:4;stroke-dasharray:none;stroke-opacity:1"
       id="path2274-5-6"
       cx="27.623194"
       cy="224.8887"
       r="1.4648849"
       transform="rotate(-30)" />
    <circle
       style="fill:none;stroke:#ff0000;stroke-width:0.1;stroke-linecap:round;stroke-linejoin:round;stroke-miterlimit:4;stroke-dasharray:none;stroke-opacity:1"
       id="path2274-0-0-1"
       cx="38.277935"
       cy="218.73718"
       r="1.4648849"
       transform="rotate(-30)" />
    <circle
       style="fill:none;stroke:#ff0000;stroke-width:0.1;stroke-linecap:round;stroke-linejoin:round;stroke-miterlimit:4;stroke-dasharray:none;stroke-opacity:1"
       id="path2274-0-2-3-5"
       cx="48.405849"
       cy="212.88983"
       r="1.4648849"
       transform="rotate(-30)" />
    <circle
       style="fill:none;stroke:#ff0000;stroke-width:0.1;stroke-linecap:round;stroke-linejoin:round;stroke-miterlimit:4;stroke-dasharray:none;stroke-opacity:1"
       id="path2274-0-3-6-5"
       cx="58.749958"
       cy="206.91766"
       r="1.4648849"
       transform="rotate(-30)" />
    <circle
       style="fill:none;stroke:#ff0000;stroke-width:0.1;stroke-linecap:round;stroke-linejoin:round;stroke-miterlimit:4;stroke-dasharray:none;stroke-opacity:1"
       id="path2274-0-7-1-4"
       cx="69.094055"
       cy="200.9455"
       r="1.4648849"
       transform="rotate(-30)" />
    <circle
       style="fill:none;stroke:#ff0000;stroke-width:0.1;stroke-linecap:round;stroke-linejoin:round;stroke-miterlimit:4;stroke-dasharray:none;stroke-opacity:1"
       id="path2274-5-7"
       cx="-24.097343"
       cy="254.74959"
       r="1.4648849"
       transform="rotate(-30)" />
    <circle
       style="fill:none;stroke:#ff0000;stroke-width:0.1;stroke-linecap:round;stroke-linejoin:round;stroke-miterlimit:4;stroke-dasharray:none;stroke-opacity:1"
       id="path2274-0-0-65"
       cx="-13.442605"
       cy="248.59807"
       r="1.4648849"
       transform="rotate(-30)" />
    <circle
       style="fill:none;stroke:#ff0000;stroke-width:0.1;stroke-linecap:round;stroke-linejoin:round;stroke-miterlimit:4;stroke-dasharray:none;stroke-opacity:1"
       id="path2274-0-2-3-6"
       cx="-3.3146911"
       cy="242.75075"
       r="1.4648849"
       transform="rotate(-30)" />
    <circle
       style="fill:none;stroke:#ff0000;stroke-width:0.1;stroke-linecap:round;stroke-linejoin:round;stroke-miterlimit:4;stroke-dasharray:none;stroke-opacity:1"
       id="path2274-0-3-6-9"
       cx="7.0294099"
       cy="236.77855"
       r="1.4648849"
       transform="rotate(-30)" />
    <circle
       style="fill:none;stroke:#ff0000;stroke-width:0.1;stroke-linecap:round;stroke-linejoin:round;stroke-miterlimit:4;stroke-dasharray:none;stroke-opacity:1"
       id="path2274-0-7-1-3"
       cx="17.373514"
       cy="230.80641"
       r="1.4648849"
       transform="rotate(-30)" />
    <circle
       style="fill:none;stroke:#ff0000;stroke-width:0.1;stroke-linecap:round;stroke-linejoin:round;stroke-miterlimit:4;stroke-dasharray:none;stroke-opacity:1"
       id="path2274-4-9"
       cx="-146.5063"
       cy="-7.1418676"
       r="1.4648849"
       transform="matrix(-0.8660254,-0.5,-0.5,0.8660254,0,0)" />
    <circle
       style="fill:none;stroke:#ff0000;stroke-width:0.1;stroke-linecap:round;stroke-linejoin:round;stroke-miterlimit:4;stroke-dasharray:none;stroke-opacity:1"
       id="path2274-0-4-2"
       cx="-135.85155"
       cy="-13.293387"
       r="1.4648849"
       transform="matrix(-0.8660254,-0.5,-0.5,0.8660254,0,0)" />
    <circle
       style="fill:none;stroke:#ff0000;stroke-width:0.1;stroke-linecap:round;stroke-linejoin:round;stroke-miterlimit:4;stroke-dasharray:none;stroke-opacity:1"
       id="path2274-0-2-30-0"
       cx="-125.72366"
       cy="-19.140738"
       r="1.4648849"
       transform="matrix(-0.8660254,-0.5,-0.5,0.8660254,0,0)" />
    <circle
       style="fill:none;stroke:#ff0000;stroke-width:0.1;stroke-linecap:round;stroke-linejoin:round;stroke-miterlimit:4;stroke-dasharray:none;stroke-opacity:1"
       id="path2274-0-3-786-6"
       cx="-115.37952"
       cy="-25.112906"
       r="1.4648849"
       transform="matrix(-0.8660254,-0.5,-0.5,0.8660254,0,0)" />
    <circle
       style="fill:none;stroke:#ff0000;stroke-width:0.1;stroke-linecap:round;stroke-linejoin:round;stroke-miterlimit:4;stroke-dasharray:none;stroke-opacity:1"
       id="path2274-0-7-8-8"
       cx="-105.03545"
       cy="-31.085073"
       r="1.4648849"
       transform="matrix(-0.8660254,-0.5,-0.5,0.8660254,0,0)" />
    <circle
       style="fill:none;stroke:#ff0000;stroke-width:0.1;stroke-linecap:round;stroke-linejoin:round;stroke-miterlimit:4;stroke-dasharray:none;stroke-opacity:1"
       id="path2274-4-92"
       cx="-198.32124"
       cy="22.773529"
       r="1.4648849"
       transform="matrix(-0.8660254,-0.5,-0.5,0.8660254,0,0)" />
    <circle
       style="fill:none;stroke:#ff0000;stroke-width:0.1;stroke-linecap:round;stroke-linejoin:round;stroke-miterlimit:4;stroke-dasharray:none;stroke-opacity:1"
       id="path2274-0-4-6"
       cx="-187.66649"
       cy="16.622009"
       r="1.4648849"
       transform="matrix(-0.8660254,-0.5,-0.5,0.8660254,0,0)" />
    <circle
       style="fill:none;stroke:#ff0000;stroke-width:0.1;stroke-linecap:round;stroke-linejoin:round;stroke-miterlimit:4;stroke-dasharray:none;stroke-opacity:1"
       id="path2274-0-2-30-6"
       cx="-177.53859"
       cy="10.774659"
       r="1.4648849"
       transform="matrix(-0.8660254,-0.5,-0.5,0.8660254,0,0)" />
    <circle
       style="fill:none;stroke:#ff0000;stroke-width:0.1;stroke-linecap:round;stroke-linejoin:round;stroke-miterlimit:4;stroke-dasharray:none;stroke-opacity:1"
       id="path2274-0-3-786-4"
       cx="-167.19449"
       cy="4.8024912"
       r="1.4648849"
       transform="matrix(-0.8660254,-0.5,-0.5,0.8660254,0,0)" />
    <circle
       style="fill:none;stroke:#ff0000;stroke-width:0.1;stroke-linecap:round;stroke-linejoin:round;stroke-miterlimit:4;stroke-dasharray:none;stroke-opacity:1"
       id="path2274-0-7-8-9"
       cx="-156.85039"
       cy="-1.1696768"
       r="1.4648849"
       transform="matrix(-0.8660254,-0.5,-0.5,0.8660254,0,0)" />
    <text
       xml:space="preserve"
       transform="matrix(0.26458333,0,0,0.26458333,-50.62772,0.78520653)"
       id="text24925"
       style="font-style:normal;font-variant:normal;font-weight:normal;font-stretch:normal;font-size:21.3333px;line-height:32.2394px;font-family:Montserrat;-inkscape-font-specification:Montserrat;letter-spacing:0px;word-spacing:0px;white-space:pre;shape-inside:url(#rect24927);fill:#000000;fill-opacity:1;stroke:none"><tspan
         x="828.31055"
         y="543.87415"
         id="tspan2445">1</tspan></text>
    <text
       xml:space="preserve"
       transform="matrix(0.26458333,0,0,0.26458333,-45.393355,11.684663)"
       id="text24925-0"
       style="font-style:normal;font-variant:normal;font-weight:normal;font-stretch:normal;font-size:21.3333px;line-height:32.2394px;font-family:Montserrat;-inkscape-font-specification:Montserrat;letter-spacing:0px;word-spacing:0px;white-space:pre;shape-inside:url(#rect24927-5);fill:#000000;fill-opacity:1;stroke:none"><tspan
         x="828.31055"
         y="543.87415"
         id="tspan2447">2</tspan></text>
    <text
       xml:space="preserve"
       transform="matrix(0.26458333,0,0,0.26458333,-39.361239,22.304034)"
       id="text24925-8"
       style="font-style:normal;font-variant:normal;font-weight:normal;font-stretch:normal;font-size:21.3333px;line-height:32.2394px;font-family:Montserrat;-inkscape-font-specification:Montserrat;letter-spacing:0px;word-spacing:0px;white-space:pre;shape-inside:url(#rect24927-4);fill:#000000;fill-opacity:1;stroke:none"><tspan
         x="828.31055"
         y="543.87415"
         id="tspan2449">3</tspan></text>
    <text
       xml:space="preserve"
       transform="matrix(0.26458333,0,0,0.26458333,-33.533063,32.469284)"
       id="text24925-1"
       style="font-style:normal;font-variant:normal;font-weight:normal;font-stretch:normal;font-size:21.3333px;line-height:32.2394px;font-family:Montserrat;-inkscape-font-specification:Montserrat;letter-spacing:0px;word-spacing:0px;white-space:pre;shape-inside:url(#rect24927-7);fill:#000000;fill-opacity:1;stroke:none"><tspan
         x="828.31055"
         y="543.87415"
         id="tspan2451">4</tspan></text>
    <text
       xml:space="preserve"
       transform="matrix(0.26458333,0,0,0.26458333,-27.144278,42.829439)"
       id="text24925-7"
       style="font-style:normal;font-variant:normal;font-weight:normal;font-stretch:normal;font-size:21.3333px;line-height:32.2394px;font-family:Montserrat;-inkscape-font-specification:Montserrat;letter-spacing:0px;word-spacing:0px;white-space:pre;shape-inside:url(#rect24927-72);fill:#000000;fill-opacity:1;stroke:none"><tspan
         x="828.31055"
         y="543.87415"
         id="tspan2453">5</tspan></text>
    <text
       xml:space="preserve"
       transform="matrix(0.26458333,0,0,0.26458333,-21.966897,53.328283)"
       id="text24925-7-2"
       style="font-style:normal;font-variant:normal;font-weight:normal;font-stretch:normal;font-size:21.3333px;line-height:32.2394px;font-family:Montserrat;-inkscape-font-specification:Montserrat;letter-spacing:0px;word-spacing:0px;white-space:pre;shape-inside:url(#rect24927-72-2);fill:#000000;fill-opacity:1;stroke:none"><tspan
         x="828.31055"
         y="543.87415"
         id="tspan2455">6</tspan></text>
    <text
       xml:space="preserve"
       transform="matrix(0.26458333,0,0,0.26458333,-14.908781,64.006041)"
       id="text24925-7-1"
       style="font-style:normal;font-variant:normal;font-weight:normal;font-stretch:normal;font-size:21.3333px;line-height:32.2394px;font-family:Montserrat;-inkscape-font-specification:Montserrat;letter-spacing:0px;word-spacing:0px;white-space:pre;shape-inside:url(#rect24927-72-6);fill:#000000;fill-opacity:1;stroke:none"><tspan
         x="828.31055"
         y="543.87415"
         id="tspan2457">7</tspan></text>
    <text
       xml:space="preserve"
       transform="matrix(0.26458333,0,0,0.26458333,-9.6665055,74.32832)"
       id="text24925-7-6"
       style="font-style:normal;font-variant:normal;font-weight:normal;font-stretch:normal;font-size:21.3333px;line-height:32.2394px;font-family:Montserrat;-inkscape-font-specification:Montserrat;letter-spacing:0px;word-spacing:0px;white-space:pre;shape-inside:url(#rect24927-72-0);fill:#000000;fill-opacity:1;stroke:none"><tspan
         x="828.31055"
         y="543.87415"
         id="tspan2459">8</tspan></text>
    <text
       xml:space="preserve"
       transform="matrix(0.26458333,0,0,0.26458333,-3.3991625,84.167331)"
       id="text24925-7-5"
       style="font-style:normal;font-variant:normal;font-weight:normal;font-stretch:normal;font-size:21.3333px;line-height:32.2394px;font-family:Montserrat;-inkscape-font-specification:Montserrat;letter-spacing:0px;word-spacing:0px;white-space:pre;shape-inside:url(#rect24927-72-1);fill:#000000;fill-opacity:1;stroke:none"><tspan
         x="828.31055"
         y="543.87415"
         id="tspan2461">9</tspan></text>
    <text
       xml:space="preserve"
       transform="matrix(0.26458333,0,0,0.26458333,42.914367,-42.293685)"
       id="text73398"
       style="font-style:normal;font-variant:normal;font-weight:normal;font-stretch:normal;font-size:29.3333px;line-height:0;font-family:Montserrat;-inkscape-font-specification:Montserrat;letter-spacing:0px;word-spacing:0px;white-space:pre;shape-inside:url(#rect73400);fill:#000000;fill-opacity:1;stroke:none"
       inkscape:transform-center-x="-4.0326378"
       inkscape:transform-center-y="-0.74835468"><tspan
         x="245.77734"
         y="203.64626"
         id="tspan2465"><tspan
           style="font-weight:bold;line-height:35px;-inkscape-font-specification:'Montserrat Bold'"
           id="tspan2463">Investissement
</tspan></tspan><tspan
         x="245.77734"
         y="238.64626"
         id="tspan2469"><tspan
           style="font-weight:bold;line-height:35px;-inkscape-font-specification:'Montserrat Bold'"
           id="tspan2467">en temps </tspan></tspan></text>
    <text
       xml:space="preserve"
       transform="matrix(0.13367446,0.22833194,-0.22833194,0.13367446,252.73441,-68.467527)"
       id="text73398-4"
       style="font-style:normal;font-variant:normal;font-weight:bold;font-stretch:normal;font-size:29.3333px;line-height:44.3292px;font-family:Montserrat;-inkscape-font-specification:'Montserrat Bold';letter-spacing:0px;word-spacing:0px;white-space:pre;shape-inside:url(#rect73400-9);fill:#000000;fill-opacity:1;stroke:none"
       inkscape:transform-center-x="-1.6191938"
       inkscape:transform-center-y="3.3346165"><tspan
         x="245.77734"
         y="208.31087"
         id="tspan2471">
</tspan><tspan
         x="245.77734"
         y="252.64006"
         id="tspan2473">Autonomie</tspan></text>
    <text
       xml:space="preserve"
       transform="matrix(0.13367446,0.22833194,-0.22833194,0.13367446,63.759367,69.812343)"
       id="text73398-4-1"
       style="font-style:normal;font-variant:normal;font-weight:bold;font-stretch:normal;font-size:29.3333px;line-height:35px;font-family:Montserrat;-inkscape-font-specification:'Montserrat Bold';text-align:end;letter-spacing:0px;word-spacing:0px;white-space:pre;shape-inside:url(#rect73400-9-1);fill:#000000;fill-opacity:1;stroke:none"
       inkscape:transform-center-x="1.2895489"
       inkscape:transform-center-y="3.1893216"
       x="251.15132"
       y="0"><tspan
         x="472.2443"
         y="203.64626"
         id="tspan2475">Impact à </tspan><tspan
         x="353.88455"
         y="238.64626"
         id="tspan2477">l'environnement</tspan></text>
    <text
       xml:space="preserve"
       transform="matrix(0.26457849,-0.00159951,0.00159951,0.26457849,65.220977,188.1695)"
       id="text73398-4-1-9"
       style="font-style:normal;font-variant:normal;font-weight:bold;font-stretch:normal;font-size:29.3333px;line-height:35px;font-family:Montserrat;-inkscape-font-specification:'Montserrat Bold';letter-spacing:0px;word-spacing:0px;white-space:pre;shape-inside:url(#rect73400-9-1-5);fill:#000000;fill-opacity:1;stroke:none"
       inkscape:transform-center-x="-3.9419266"
       inkscape:transform-center-y="-0.50023604"
       x="237.92192"
       y="0"><tspan
         x="368.60994"
         y="203.64626"
         id="tspan2481"><tspan
           style="text-align:end;text-anchor:end"
           id="tspan2479">Fonctionnalités </tspan></tspan><tspan
         x="464.52974"
         y="238.64626"
         id="tspan2485"><tspan
           style="text-align:end;text-anchor:end"
           id="tspan2483">avancées</tspan></tspan></text>
    <text
       xml:space="preserve"
       transform="matrix(0.1291679,-0.23091121,0.23091121,0.1291679,193.31972,203.60679)"
       id="text73398-4-0"
       style="font-style:normal;font-variant:normal;font-weight:bold;font-stretch:normal;font-size:29.3333px;line-height:35px;font-family:Montserrat;-inkscape-font-specification:'Montserrat Bold';letter-spacing:0px;word-spacing:0px;white-space:pre;shape-inside:url(#rect73400-9-9);fill:#000000;fill-opacity:1;stroke:none"
       inkscape:transform-center-x="-1.0338773"
       inkscape:transform-center-y="-4.1710592"><tspan
         x="245.77734"
         y="203.64626"
         id="tspan2487">Technicité à </tspan><tspan
         x="245.77734"
         y="238.64626"
         id="tspan2489">maîtriser</tspan></text>
    <text
       xml:space="preserve"
       transform="matrix(0.1291679,-0.23091121,0.23091121,0.1291679,-34.018124,156.228)"
       id="text73398-4-0-1"
       style="font-style:normal;font-variant:normal;font-weight:bold;font-stretch:normal;font-size:29.3333px;line-height:33.6233px;font-family:Montserrat;-inkscape-font-specification:'Montserrat Bold';letter-spacing:0px;word-spacing:0px;white-space:pre;shape-inside:url(#rect73400-9-9-9);fill:#000000;fill-opacity:1;stroke:none"
       inkscape:transform-center-x="-1.0338773"
       inkscape:transform-center-y="-4.1710592"><tspan
         x="245.77734"
         y="202.95791"
         id="tspan2491">Coût</tspan></text>
    <path
       style="fill:#000000;stroke-width:0.0305057"
       d="m 41.850027,133.53316 c -0.76617,1.07376 -1.950649,1.89064 -3.192411,2.20163 -1.280638,0.32073 -2.406004,0.13379 -3.418099,-0.56785 -1.78867,-1.24 -3.473288,-3.67163 -4.125894,-5.95551 l -0.144853,-0.50688 0.890648,-1.53665 0.890648,-1.53665 0.212981,-0.0504 c 1.484442,-0.35141 3.348536,-0.45922 4.828371,-0.27923 1.917863,0.23327 3.282779,0.81343 4.050919,1.72188 0.77741,0.91938 1.16997,2.25512 1.05824,3.60069 -0.0887,1.06797 -0.44874,2.06417 -1.05126,2.90858 z m -1.926847,-2.51011 c 0.249496,-0.90298 -0.01582,-1.89581 -0.686543,-2.56907 -0.251445,-0.25244 -0.788814,-0.56269 -1.133151,-0.65422 -0.913573,-0.24295 -1.899863,0.0208 -2.569819,0.68711 -0.25467,0.2533 -0.56384,0.7888 -0.65587,1.136 -0.139111,0.52483 -0.106817,1.1633 0.08341,1.64908 0.115048,0.29383 0.378484,0.69501 0.604339,0.92035 0.255284,0.25478 0.791645,0.56375 1.137,0.65414 1.004148,0.26507 2.025325,-0.0504 2.701099,-0.83456 0.202975,-0.23556 0.432,-0.67145 0.519892,-0.98948 z m -1.085555,0.39288 c -0.400733,0.35481 -0.86393,0.41803 -1.526329,0.20834 l -0.08191,-0.0259 -0.144615,0.25048 c -0.07954,0.13776 -0.148074,0.24847 -0.15327,0.24547 -0.0043,-0.002 -0.05943,-0.0587 -0.121852,-0.1245 l -0.113434,-0.11965 0.113805,-0.19712 0.113805,-0.19711 -0.158517,-0.0915 -0.158509,-0.0915 -0.137275,0.23777 c -0.0755,0.13077 -0.147061,0.23212 -0.159012,0.22522 -0.01195,-0.007 -0.06639,-0.0636 -0.121002,-0.12598 l -0.09929,-0.11345 0.124605,-0.21582 0.124605,-0.21582 -0.119952,-0.11256 c -0.308901,-0.28988 -0.529254,-0.78178 -0.500861,-1.11822 0.04625,-0.54806 0.432239,-1.02258 0.910198,-1.11893 0.223094,-0.045 0.366513,-0.0416 0.598747,0.0141 0.252755,0.0606 0.251014,0.0575 0.138584,0.25225 -0.0842,0.14584 -0.106099,0.16776 -0.145541,0.14528 -0.08097,-0.0462 -0.378002,-0.0574 -0.518908,-0.0196 -0.195246,0.0523 -0.31318,0.15089 -0.440999,0.3686 -0.230508,0.39325 -0.157745,0.76392 0.233256,1.18419 l 0.04886,0.0526 0.328965,-0.56978 c 0.18093,-0.31338 0.33778,-0.56446 0.348562,-0.55793 0.01079,0.007 0.06382,0.0587 0.117952,0.11602 l 0.09838,0.10414 -0.305394,0.55956 -0.305482,0.55951 0.14741,0.0955 0.147409,0.0955 0.34516,-0.59784 0.34516,-0.59783 0.07502,0.0683 c 0.193834,0.17612 0.205141,0.11753 -0.139029,0.71365 l -0.30713,0.53197 0.109515,0.0391 c 0.195326,0.0696 0.485224,0.081 0.661505,0.026 0.224998,-0.0702 0.349563,-0.16974 0.471971,-0.3771 0.216319,-0.36667 0.128918,-0.73747 -0.262362,-1.11197 l -0.113444,-0.10857 0.08901,-0.17216 0.08901,-0.17217 0.103455,0.0832 c 0.414445,0.33304 0.647155,0.8082 0.606496,1.23822 -0.02073,0.2189 -0.208142,0.60611 -0.357419,0.73827 z m -8.205434,-2.93933 c -0.123898,0.0332 -0.228924,-0.021 -0.259078,-0.13365 -0.02182,-0.0814 -0.002,-0.11856 0.846503,-1.58818 l 0.868815,-1.50483 0.08895,-0.0205 c 0.118886,-0.0273 0.207502,0.0292 0.240899,0.15363 l 0.02747,0.10223 -0.85555,1.48186 -0.855545,1.48184 z m -0.49,-0.63994 c -0.01688,6.5e-4 -0.136796,-0.0182 -0.266511,-0.0418 -0.129757,-0.0234 -0.422992,-0.0579 -0.65166,-0.0764 l -0.415769,-0.0338 0.06432,-0.0766 c 0.380555,-0.45306 0.544816,-0.75565 0.500411,-0.92154 -0.03496,-0.13045 -0.08825,-0.15683 -0.51466,-0.25522 -0.248437,-0.0573 -0.398458,-0.10817 -0.480198,-0.16281 -0.108335,-0.0729 -0.118375,-0.0906 -0.11298,-0.20784 0.01288,-0.27888 0.24589,-0.62869 0.752171,-1.12919 0.28143,-0.27823 0.789705,-0.71179 1.09834,-0.9369 l 0.154396,-0.11262 0.188284,0.27012 c 0.253835,0.36416 0.73394,0.95048 0.932785,1.13915 l 0.162009,0.15381 -0.690155,1.19538 c -0.37959,0.65747 -0.703912,1.19581 -0.720721,1.19633 z"
       id="path75336" />
    <text
       xml:space="preserve"
       transform="matrix(0,-0.26458333,0.26458333,0,65.084768,557.65758)"
       id="text96514"
       style="font-style:normal;font-variant:normal;font-weight:normal;font-stretch:normal;font-size:17.3333px;line-height:107.813%;font-family:Montserrat;-inkscape-font-specification:Montserrat;letter-spacing:0px;word-spacing:0px;white-space:pre;shape-inside:url(#rect96516);fill:#000000;fill-opacity:1;stroke:none"><tspan
         x="1151.4922"
         y="856.68535"
         id="tspan2495"><tspan
           style="font-family:ubuntu;-inkscape-font-specification:ubuntu"
           id="tspan2493">credit icons from flaticon.com : 
</tspan></tspan><tspan
         x="1151.4922"
         y="875.60515"
         id="tspan2499"><tspan
           style="font-family:ubuntu;-inkscape-font-specification:ubuntu"
           id="tspan2497">Freepik / Ayub Irawan / Orvipixel /
</tspan></tspan><tspan
         x="1151.4922"
         y="894.52495"
         id="tspan2503"><tspan
           style="font-family:ubuntu;-inkscape-font-specification:ubuntu"
           id="tspan2501">Octopocto / muhammad atho'</tspan></tspan></text>
    <path
       style="fill:#000000;stroke-width:0.0327371"
       d="m 223.97726,13.443279 1.30034,-0.881608 -0.0392,-0.299705 c -0.14509,-1.108769 0.0928,-1.836948 0.90133,-2.7585283 l 0.12714,-0.144921 0.92188,-0.222935 c 0.50704,-0.122619 0.97667,-0.222744 1.04361,-0.222508 0.0669,1.93e-4 0.17312,0.02762 0.23591,0.06083 0.10562,0.05587 0.16903,0.141268 0.84531,1.1387473 0.60998,0.899658 0.72646,1.085044 0.70303,1.118676 -0.049,0.07044 -0.37455,0.194334 -0.60829,0.231625 -0.44333,0.07069 -1.04425,-0.119559 -1.30717,-0.413869 -0.11629,-0.130188 -0.14795,-0.11011 -0.0745,0.04711 0.0753,0.16106 0.11475,0.48924 0.0872,0.725393 -0.0308,0.264056 -0.2076,0.666115 -0.39618,0.900896 -0.17542,0.21844 -0.20692,0.331522 -0.12563,0.451402 0.0658,0.09707 0.25115,0.139951 0.34117,0.07891 0.20204,-0.137005 0.51975,-0.666919 0.6346,-1.058521 l 0.0712,-0.242814 0.20967,0.0288 c 0.1153,0.01585 0.28704,0.02635 0.38161,0.02333 0.15052,-0.0048 0.17532,0.0047 0.19897,0.07588 0.0148,0.04472 0.0894,0.172536 0.16557,0.284026 0.16274,0.238241 0.37616,0.384495 0.6633,0.454854 l 0.17697,0.04335 -0.0252,0.180463 c -0.0432,0.309214 0.0133,0.544677 0.19501,0.812724 0.14042,0.207113 0.17872,0.243555 0.37214,0.353629 0.11857,0.0675 0.21386,0.129288 0.21175,0.137312 -0.002,0.0079 -0.031,0.06391 -0.0643,0.124148 -0.10605,0.192141 -0.15602,0.508806 -0.11738,0.743516 0.0319,0.193811 0.058,0.253486 0.20645,0.47247 0.19811,0.292207 0.2251,0.24271 -0.26122,0.479167 -1.16167,0.56482 -2.14667,0.702573 -2.83003,0.395771 l -0.2064,-0.09267 -1.29675,0.879235 -1.29676,0.87924 -1.32273,-1.950932 -1.32274,-1.950937 z m 7.55019,1.725353 c -0.0479,-0.162171 0.011,-0.420905 0.12695,-0.557414 0.0702,-0.08268 0.3375,-0.274199 0.95651,-0.68527 0.77776,-0.5166 0.87206,-0.572377 0.99692,-0.589262 0.17493,-0.02376 0.3488,0.03434 0.50328,0.168103 0.22157,0.19186 0.28461,0.536668 0.14373,0.786188 -0.062,0.109652 -0.14863,0.176688 -0.91663,0.707728 -0.95503,0.660937 -1.03592,0.70175 -1.29672,0.651576 -0.24911,-0.04781 -0.43841,-0.225205 -0.51422,-0.481886 z m -1.59058,-3.243025 c -0.0153,-0.04359 7.4e-4,-0.0626 0.0801,-0.0938 0.0546,-0.02161 0.17386,-0.0904 0.26483,-0.153068 0.12982,-0.08962 0.17665,-0.141967 0.21713,-0.245427 0.0532,-0.1353 0.0522,-0.370324 -0.002,-0.450002 -0.0278,-0.04095 0.0311,-0.08582 0.65897,-0.501029 0.6113,-0.404021 0.70531,-0.457937 0.82752,-0.474499 0.17499,-0.02368 0.34881,0.03434 0.50329,0.168107 0.22157,0.191847 0.28461,0.536664 0.14373,0.786192 -0.062,0.109651 -0.14863,0.176685 -0.91662,0.707723 -0.61102,0.422845 -0.88794,0.6002 -0.9907,0.634861 -0.30403,0.102392 -0.68108,-0.07948 -0.78679,-0.37948 z m 0.99532,1.431686 c -0.0479,-0.162171 0.011,-0.420902 0.12695,-0.557406 0.0702,-0.08276 0.33751,-0.274203 0.95645,-0.685351 0.77776,-0.5166 0.87206,-0.572377 0.99693,-0.589254 0.28395,-0.0385 0.58093,0.147684 0.67715,0.424537 0.0671,0.193016 0.0567,0.376017 -0.0301,0.529755 -0.0619,0.109703 -0.14863,0.176685 -0.91663,0.707726 -0.95503,0.660937 -1.03592,0.701748 -1.29672,0.651574 -0.24909,-0.0478 -0.4384,-0.225198 -0.51422,-0.481887 z m -0.79124,-4.4014743 c 0.59799,-0.3949323 0.69206,-0.4487646 0.814,-0.4652861 0.17493,-0.023762 0.34881,0.034343 0.50329,0.1681078 0.22156,0.1918525 0.2846,0.5366643 0.14373,0.7861843 -0.0605,0.107137 -0.14532,0.174641 -0.73358,0.5839133 l -0.66515,0.46278 -0.36923,-0.5445823 -0.36922,-0.544574 z"
       id="path121400" />
    <path
       style="fill:#000000;stroke-width:0.0314713"
       d="m 289.77287,121.28899 c -0.35928,-0.0559 -0.56298,-0.11004 -1.23901,-0.32886 -0.31157,-0.10086 -0.89396,-0.2838 -1.29421,-0.40659 l -0.72771,-0.22321 h -0.44459 -0.44459 v -2.51771 -2.5177 h 1.05224 c 0.67069,0 1.08434,0.0122 1.14074,0.0337 0.0487,0.0185 0.30097,0.24454 0.56067,0.50228 l 0.47216,0.46862 1.38474,0.01 c 1.34986,0.008 1.38791,0.0109 1.51063,0.0771 0.25157,0.13574 0.42315,0.40762 0.42386,0.67164 8.3e-4,0.29352 -0.25104,0.63534 -0.52956,0.71879 -0.0825,0.0246 -0.47848,0.0365 -1.22338,0.0365 -1.06667,0 -1.10408,0.002 -1.18439,0.0652 -0.11825,0.093 -0.11717,0.28093 0.002,0.37477 0.0838,0.066 0.1017,0.0668 1.28417,0.0574 l 1.19912,-0.01 0.24012,-0.11874 c 0.35429,-0.17516 0.61615,-0.50493 0.67306,-0.84757 l 0.0193,-0.11656 1.6162,-0.86828 c 0.88891,-0.47756 1.69798,-0.90639 1.79794,-0.95295 0.15493,-0.0722 0.22354,-0.0847 0.46499,-0.0847 0.24077,0 0.31022,0.0126 0.46319,0.0838 0.25088,0.11693 0.47622,0.33796 0.59925,0.58782 0.0925,0.18785 0.10194,0.23374 0.10122,0.49112 -9.6e-4,0.35947 -0.0959,0.58998 -0.33978,0.82553 -0.191,0.18444 -5.24243,3.53663 -5.58248,3.7046 -0.58708,0.28999 -1.30445,0.3922 -1.99611,0.28443 z m -6.16427,-3.47637 v -3.02506 l 0.59264,0.01 c 0.58826,0.01 0.59346,0.0109 0.70368,0.0946 0.22649,0.17291 0.2143,0.007 0.2143,2.92075 0,2.9139 0.0122,2.74782 -0.2143,2.92073 -0.11028,0.0842 -0.11548,0.0848 -0.70368,0.0946 l -0.59264,0.01 z m 8.9341,-1.307 c -0.11149,-0.23721 -0.32039,-0.44106 -0.58708,-0.57291 l -0.23972,-0.11849 -1.3229,-0.01 -1.32289,-0.01 -0.42549,-0.41712 c -0.58694,-0.57539 -0.56905,-0.56791 -1.39,-0.58092 l -0.64982,-0.0109 -0.0933,-0.2102 c -0.0512,-0.11559 -0.11728,-0.28363 -0.1467,-0.37342 l -0.0535,-0.16324 -0.44659,-0.14762 c -0.73723,-0.24368 -0.74558,-0.25616 -0.74558,-1.1152 0,-0.85904 0.008,-0.87154 0.74552,-1.1152 l 0.44653,-0.14759 0.0811,-0.24194 c 0.0446,-0.13306 0.12892,-0.33992 0.18738,-0.45969 l 0.1063,-0.21774 -0.21693,-0.43901 c -0.22558,-0.45657 -0.26453,-0.62506 -0.18205,-0.78767 0.0499,-0.0984 0.84559,-0.89833 0.94706,-0.95211 0.17688,-0.0937 0.33351,-0.06 0.80598,0.17342 l 0.44211,0.21844 0.21466,-0.10508 c 0.11801,-0.0577 0.32377,-0.14354 0.45713,-0.19056 l 0.24249,-0.0855 0.14705,-0.44489 c 0.24303,-0.73529 0.25587,-0.74386 1.11463,-0.74386 0.85873,0 0.87163,0.008 1.11458,0.74365 l 0.14698,0.44467 0.21108,0.0704 c 0.11607,0.0388 0.32349,0.12378 0.46088,0.18896 l 0.24979,0.11849 0.43844,-0.21663 c 0.46863,-0.23157 0.62578,-0.26517 0.80232,-0.17161 0.10147,0.0538 0.89713,0.85369 0.94705,0.95211 0.0825,0.16262 0.0435,0.33111 -0.18204,0.78767 l -0.21693,0.43901 0.1063,0.21775 c 0.0585,0.1197 0.14278,0.32662 0.18738,0.45968 l 0.0811,0.24194 0.44653,0.14759 c 0.73716,0.24366 0.74552,0.25616 0.74552,1.1152 0,0.85904 -0.008,0.87154 -0.74555,1.11519 l -0.44655,0.14761 -0.0695,0.21046 c -0.0382,0.11571 -0.12276,0.32301 -0.18795,0.46058 l -0.1185,0.25013 0.12236,0.24335 0.12236,0.24334 -1.11737,0.60015 c -0.61455,0.33009 -1.12397,0.60017 -1.13205,0.60017 -0.008,0 -0.0448,-0.0641 -0.0817,-0.14257 z m -1.23936,-1.29026 c 0.84766,-0.22722 1.56387,-0.94764 1.79817,-1.80872 0.0774,-0.28466 0.0774,-0.97419 0,-1.25886 -0.19305,-0.70946 -0.69995,-1.3215 -1.35513,-1.63615 -0.39563,-0.19 -0.598,-0.23341 -1.08821,-0.23341 -0.4902,0 -0.69258,0.0434 -1.0882,0.23341 -0.65518,0.31465 -1.1621,0.92669 -1.35513,1.63615 -0.0774,0.28467 -0.0774,0.9742 0,1.25886 0.25779,0.94742 1.05591,1.68411 2.01022,1.85548 0.22941,0.0412 0.85066,0.0143 1.07828,-0.0467 z m -0.99135,-0.4536 c -0.40711,-0.0762 -0.76714,-0.26814 -1.06868,-0.56968 -0.23775,-0.23774 -0.38062,-0.46454 -0.49806,-0.79064 -0.0731,-0.20302 -0.0831,-0.27823 -0.0831,-0.62423 0,-0.346 0.01,-0.4212 0.0831,-0.62422 0.11741,-0.32611 0.26031,-0.5529 0.49806,-0.79065 0.23775,-0.23775 0.46454,-0.3806 0.79065,-0.49805 0.20301,-0.0731 0.27822,-0.0831 0.62421,-0.0831 0.346,0 0.42121,0.01 0.62422,0.0831 0.32611,0.11741 0.5529,0.2603 0.79065,0.49805 1.23259,1.23259 0.41695,3.34107 -1.32045,3.41347 -0.16444,0.007 -0.36271,4.8e-4 -0.4406,-0.014 z"
       id="path137512" />
    <path
       style="fill:#000000;stroke-width:0.0284404"
       d="m 94.814597,20.207398 c -0.11526,-0.09336 -0.1242,-0.150574 -0.1242,-0.794614 0,-0.528306 0.007,-0.631137 0.0464,-0.687446 0.0818,-0.116743 0.20451,-0.145527 0.62052,-0.145527 0.44249,0 0.38596,0.04897 0.44323,-0.383947 0.0753,-0.569429 0.29574,-1.23999 0.57024,-1.734869 0.32974,-0.594458 0.62514,-0.930023 1.86526,-2.118818 0.51935,-0.497855 0.59284,-0.609143 0.59162,-0.895876 -5.1e-4,-0.152237 -0.0164,-0.228632 -0.067,-0.324659 -0.0703,-0.133534 -0.43278,-0.505497 -1.1245,-1.153964 -0.52074,-0.488175 -0.78984,-0.791452 -1.04752,-1.180564 -0.42525,-0.642152 -0.72137,-1.4491368 -0.80359,-2.1899178 -0.0348,-0.313461 0.009,-0.284404 -0.42777,-0.284404 -0.41601,0 -0.53875,-0.02878 -0.62052,-0.145527 -0.0396,-0.05649 -0.0464,-0.160982 -0.0464,-0.711829 v -0.645615 l 0.0875,-0.08751 0.0875,-0.08751 h 4.7327 4.732713 l 0.0929,0.08297 0.0929,0.08297 v 0.637898 c 0,0.879868 0.0183,0.854646 -0.6303,0.86937 l -0.43121,0.0098 -0.0194,0.175248 c -0.0579,0.524207 -0.20952,1.093925 -0.41575,1.5625598 -0.32585,0.740476 -0.76329,1.3023 -1.61761,2.077582 -0.85878,0.779331 -1.02792,0.994696 -1.02792,1.308856 0,0.318798 0.15826,0.524183 0.98526,1.278634 0.75091,0.685036 1.11435,1.106675 1.43111,1.660261 0.33765,0.590104 0.56604,1.304986 0.64491,2.018611 l 0.0194,0.175247 0.43121,0.0098 c 0.64859,0.01472 0.6303,-0.0105 0.6303,0.869369 v 0.637899 l -0.0929,0.08297 -0.0929,0.08297 -4.727783,-6.18e-4 c -4.43656,-6.18e-4 -4.73153,-0.0037 -4.78845,-0.04977 z m 3.246,-2.497039 c 0.58694,-0.496817 1.08616,-0.897459 1.16985,-0.938847 0.29289,-0.144849 0.63877,-0.112631 0.894273,0.0833 0.0692,0.05306 0.55998,0.462888 1.09065,0.910734 l 0.96485,0.814265 h 0.3363 c 0.26937,0 0.3363,-0.0079 0.3363,-0.03984 0,-0.130246 -0.12498,-0.733979 -0.20121,-0.971952 -0.30048,-0.93802 -0.68028,-1.474274 -1.71524,-2.421754 -0.28336,-0.259415 -0.60859,-0.575257 -0.72273,-0.70187 -0.18885,-0.209511 -0.403953,-0.561282 -0.403953,-0.660634 0,-0.02914 -0.0499,-0.03884 -0.19997,-0.03884 -0.16596,0 -0.20246,0.0085 -0.21452,0.04977 -0.008,0.02738 -0.0615,0.145357 -0.11886,0.262184 -0.11532,0.2348 -0.40989,0.549398 -1.14464,1.222467 -0.81315,0.744881 -1.2282,1.316413 -1.50873,2.077522 -0.10527,0.285603 -0.21558,0.752556 -0.24263,1.027098 l -0.0193,0.195843 0.33785,-0.0014 0.33785,-0.0014 1.02386,-0.86665 z m 1.35519,-1.363896 c -0.11113,-0.09351 -0.13601,-0.208719 -0.0735,-0.340437 0.0965,-0.203289 0.33736,-0.237438 0.47991,-0.06803 0.12455,0.148024 0.0921,0.354158 -0.0688,0.437383 -0.12244,0.06332 -0.23993,0.05325 -0.33759,-0.02892 z m 0.0526,-0.817993 c -0.0391,-0.01969 -0.0955,-0.08107 -0.12531,-0.13638 -0.067,-0.124282 -0.0464,-0.228438 0.0677,-0.342545 0.17802,-0.178019 0.48422,-0.04257 0.48422,0.214198 0,0.22362 -0.22769,0.364912 -0.42661,0.264727 z m 0.0853,-0.835111 c -0.26551,-0.08747 -0.33516,-0.340871 -0.13905,-0.50589 0.18967,-0.159595 0.48034,-0.03709 0.48034,0.202451 0,0.135613 -0.0629,0.230179 -0.18767,0.282327 -0.0522,0.02181 -0.0985,0.03865 -0.10293,0.03741 -0.005,-0.0012 -0.0272,-0.0086 -0.0507,-0.0163 z m 2.865253,-4.7807898 c 0.2221,-0.472063 0.3519,-0.920313 0.42001,-1.450465 l 0.0192,-0.149312 h -3.254403 -3.25439 l 0.0234,0.177753 c 0.0703,0.533356 0.22753,1.054623 0.45451,1.507346 l 0.11051,0.2204128 h 2.66864 2.668643 z"
       id="path155426" />
    <text
       xml:space="preserve"
       transform="scale(0.26458333)"
       id="text154856"
       style="fill:black;fill-opacity:1;stroke:none;font-family:Montserrat;font-style:normal;font-weight:normal;font-size:21.33333333px;line-height:32.23936844px;letter-spacing:0px;word-spacing:0px;-inkscape-font-specification:Montserrat;font-stretch:normal;font-variant:normal;white-space:pre;shape-inside:url(#rect154858)" />
    <path
       style="fill:#000000;stroke-width:0.0428335"
       d="m 94.196427,239.96045 c 0.0162,-0.0631 0.0867,-0.15311 0.15642,-0.19988 0.20316,-0.13647 0.31846,-0.0782 0.67707,0.34331 0.43991,0.51687 1.03582,1.10928 1.61965,1.60987 0.27609,0.23667 0.51494,0.43512 0.53087,0.441 0.0171,0.006 0.0901,-0.14448 0.16492,-0.33367 0.46148,-1.16925 1.27963,-2.03362 2.43335,-2.5708 0.633453,-0.29511 1.126873,-0.43204 1.842213,-0.51148 1.42027,-0.15785 2.82162,0.0399 4.41999,0.62364 0.93305,0.34079 1.46886,0.5953 2.5191,1.19648 1.00154,0.57332 1.66007,0.89016 2.59422,1.24819 1.42768,0.54718 2.84497,0.8675 4.03278,0.91143 0.52971,0.0196 0.66572,0.0764 0.70723,0.29553 0.0536,0.28254 -1.18864,2.02212 -2.20888,3.09332 -0.82966,0.87107 -1.75269,1.63463 -2.76491,2.28714 -0.64829,0.41792 -2.16521,1.11906 -2.87715,1.32991 -3.33538,0.98757 -6.6873,0.55892 -8.851813,-1.13192 -0.68939,-0.53857 -1.19946,-1.12349 -1.59523,-1.82935 -0.62067,-1.10712 -0.834,-2.30787 -0.6374,-3.58743 l 0.0409,-0.26518 0.64076,0.43559 c 0.35248,0.23955 0.84147,0.54991 1.08682,0.68962 l 0.44607,0.25401 1.251053,1.82219 c 0.68804,1.00227 1.28076,1.8446 1.31704,1.87195 0.0356,0.0277 0.13019,0.0471 0.20865,0.0439 0.17311,-0.007 0.28115,-0.11282 0.30926,-0.30624 0.0182,-0.12286 -0.0215,-0.18781 -0.86391,-1.41471 -0.48567,-0.70719 -0.8942,-1.30937 -0.90777,-1.33816 -0.0135,-0.0288 0.32545,0.073 0.75335,0.22597 0.8357,0.29896 1.68176,0.53088 2.50386,0.68636 0.28243,0.0535 0.52122,0.11402 0.53079,0.13472 0.0199,0.043 1.29691,1.90918 1.38893,2.02967 0.16146,0.21146 0.50434,0.16075 0.5867,-0.0866 0.0572,-0.1714 0.0123,-0.25854 -0.5727,-1.11249 -0.26991,-0.3943 -0.48904,-0.72311 -0.48639,-0.73098 0.002,-0.007 0.32241,-1.3e-4 0.71093,0.017 1.19743,0.0528 2.20589,9.3e-4 3.26975,-0.16821 1.22516,-0.19481 2.93908,-0.67081 3.10337,-0.86189 0.0972,-0.11315 0.0993,-0.2925 0.005,-0.40996 -0.14434,-0.17897 -0.23511,-0.1758 -0.86685,0.0286 -1.17909,0.38168 -2.43276,0.62492 -3.66642,0.71139 -0.75332,0.0528 -2.2528,0.0239 -2.22359,-0.0428 0.0113,-0.0252 0.63464,-0.44271 1.38488,-0.92516 0.75021,-0.48247 1.41285,-0.92128 1.47253,-0.97507 0.23166,-0.20837 0.0641,-0.60704 -0.24366,-0.57628 -0.0945,0.009 -0.5718,0.30175 -1.95329,1.19727 l -1.82823,1.18494 -0.46471,-0.0859 c -0.72468,-0.134 -1.48797,-0.33803 -2.21759,-0.59278 -0.67421,-0.2354 -1.46976,-0.56513 -1.49495,-0.61961 -0.008,-0.0164 0.94707,-0.64995 2.12122,-1.40839 1.17418,-0.7584 2.17781,-1.41862 2.23033,-1.46702 0.0531,-0.0474 0.10458,-0.12933 0.11584,-0.18026 0.024,-0.10925 -0.05,-0.29088 -0.14923,-0.36585 -0.16512,-0.12456 -0.21952,-0.094 -2.68048,1.50227 -1.29781,0.84182 -2.372123,1.53723 -2.387363,1.54525 -0.0161,0.008 -0.26011,-0.12744 -0.54433,-0.30102 -0.45706,-0.27918 -0.78962,-0.50279 -1.4803,-0.99523 l -0.19451,-0.13864 -0.0629,0.16034 c -0.0346,0.0882 -0.0753,0.23631 -0.0909,0.32927 -0.0155,0.0931 -0.0408,0.17526 -0.0568,0.18265 -0.0372,0.0177 -0.50326,-0.35462 -1.01035,-0.80665 -0.63683,-0.56769 -1.68847,-1.68637 -1.78834,-1.90236 -0.0192,-0.0416 -0.0217,-0.12724 -0.005,-0.19013 z"
       id="path182125" />
    <path
       style="fill:#000000;stroke-width:0.0311504"
       d="m 228.91835,250.60885 c -0.17501,-0.0629 -0.29994,-0.16623 -0.39347,-0.32533 l -0.0858,-0.14593 v -7.46293 -7.46294 l 0.0943,-0.15249 c 0.0584,-0.0945 0.15225,-0.18833 0.24673,-0.24675 l 0.15247,-0.0943 2.31696,-0.009 c 1.50826,-0.006 2.35826,0.002 2.43527,0.0233 0.5206,0.14019 0.71061,0.80169 0.33935,1.18142 -0.21159,0.21642 -0.0866,0.20397 -2.22083,0.22118 l -1.93132,0.0155 v 2.89697 2.89698 l 4.83609,0.008 4.83608,0.008 3.4e-4,-1.97035 3.5e-4,-1.97036 0.0736,-0.15795 c 0.21569,-0.46319 0.8135,-0.56413 1.16249,-0.19629 0.21041,0.22178 0.19634,-0.11589 0.19558,4.69092 -6.8e-4,4.15682 -0.003,4.3599 -0.0579,4.47886 -0.1635,0.35641 -0.60194,0.52241 -0.9556,0.36177 -0.15554,-0.0706 -0.33434,-0.27402 -0.38264,-0.43524 -0.0255,-0.0849 -0.0361,-0.60229 -0.0361,-1.74465 v -1.624 h -1.21486 -1.21486 l -6.8e-4,1.65876 c -6.9e-4,1.85112 0.006,1.79216 -0.22136,2.00762 -0.21676,0.20566 -0.082,0.19626 -2.81511,0.19626 -2.68169,0 -2.57126,0.007 -2.78153,-0.17052 -0.16187,-0.13648 -0.23756,-0.31022 -0.2389,-0.54838 -8.1e-4,-0.17488 0.0127,-0.22727 0.0931,-0.3574 0.0584,-0.0945 0.15225,-0.18834 0.24674,-0.24676 l 0.15245,-0.0943 2.06617,-0.008 2.06618,-0.008 v -1.21437 -1.21438 l -2.90477,0.008 -2.90476,0.008 v 2.89697 2.89698 l 3.37981,0.0155 c 3.06976,0.0142 3.38843,0.0203 3.4739,0.0672 0.33888,0.1859 0.47883,0.58769 0.32381,0.92962 -0.079,0.17437 -0.16435,0.2673 -0.32445,0.35346 l -0.12461,0.0671 -3.78476,0.007 c -3.04021,0.006 -3.80691,-0.002 -3.89736,-0.0339 z m 10.15072,-0.002 c -0.18682,-0.0673 -0.33558,-0.20071 -0.41572,-0.37283 -0.1312,-0.28177 -0.0861,-0.57655 0.12144,-0.79286 0.20993,-0.21884 0.0818,-0.20595 2.21788,-0.22317 l 1.93131,-0.0156 v -6.52594 -6.52598 h -2.89697 -2.89698 l -0.0155,1.68211 -0.0156,1.68212 -0.0838,0.14262 c -0.1044,0.17758 -0.28871,0.30231 -0.50614,0.3425 -0.10316,0.019 -1.01547,0.0275 -2.3895,0.0221 -2.06372,-0.008 -2.23152,-0.0128 -2.34722,-0.0649 -0.57256,-0.25809 -0.58854,-1.03822 -0.027,-1.31697 0.11416,-0.0566 0.21967,-0.0602 2.02838,-0.0685 l 1.90796,-0.009 6.8e-4,-1.64226 c 6.9e-4,-1.58567 0.003,-1.64709 0.0642,-1.78243 0.079,-0.17439 0.16436,-0.26731 0.32446,-0.35348 l 0.12461,-0.0671 h 3.83392 3.83393 l 0.15249,0.0943 c 0.0945,0.0584 0.18832,0.15225 0.24675,0.24676 l 0.0943,0.15249 v 7.46537 7.46539 l -0.0943,0.15248 c -0.0584,0.0945 -0.15225,0.18834 -0.24674,0.24676 l -0.15245,0.0943 -2.33874,0.007 c -1.89969,0.006 -2.36068,-8.1e-4 -2.45562,-0.0353 z"
       id="path193756" />
    <text
       xml:space="preserve"
       transform="matrix(0,0.26458333,-0.26458333,0,75.885748,-184.45667)"
       id="text116633"
       style="font-style:normal;font-variant:normal;font-weight:normal;font-stretch:normal;font-size:21.3333px;line-height:25.54px;font-family:Montserrat;-inkscape-font-specification:Montserrat;letter-spacing:0px;word-spacing:0px;white-space:pre;shape-inside:url(#rect116635);fill:#000000;fill-opacity:1;stroke:none"><tspan
         x="716.11328"
         y="109.76485"
         id="tspan2509"><tspan
           style="font-weight:bold;font-size:26.6667px;-inkscape-font-specification:'Montserrat Bold'"
           id="tspan2505">La toile de l'Amorce</tspan><tspan
           style="font-weight:bold;-inkscape-font-specification:'Montserrat Bold'"
           id="tspan2507">
</tspan></tspan><tspan
         x="716.11328"
         y="135.30485"
         id="tspan2513"><tspan
           style="font-weight:bold;-inkscape-font-specification:'Montserrat Bold'"
           id="tspan2511">
</tspan></tspan><tspan
         x="716.11328"
         y="160.84486"
         id="tspan2515">Phase 1.1 : Identifier son profil web 
</tspan><tspan
         x="716.11328"
         y="186.38487"
         id="tspan2517">
</tspan></text>
    <rect
       style="fill:none;stroke:#ff0000;stroke-width:0.1;stroke-linecap:round;stroke-linejoin:round;stroke-miterlimit:4;stroke-dasharray:none;stroke-opacity:1"
       id="rect229160"
       width="279.57446"
       height="254.57448"
       x="26.494915"
       y="0.85354602"
       ry="8.9831791" />
  </g>
</svg>
