<?xml version="1.0" encoding="utf-8"?>
<!-- Generator: Fusion 360, Shaper Origin Export Add-In, Version 1.7.0  -->
<svg xmlns="http://www.w3.org/2000/svg" xmlns:xlink="http://www.w3.org/1999/xlink" xmlns:shaper="http://www.shapertools.com/namespaces/shaper" shaper:fusionaddin="version:1.7.0" width="42cm" height="9.75cm" version="1.1" x="0cm" y="0cm" viewBox="0 0 42 9.75" enable-background="new 0 0 42 9.75" xml:space="preserve"><path d="M-20,4.875 L-20,1.7916667 -21,1.7916667 -21,-4.875 21,-4.875 21,1.7916667 20,1.7916667 20,4.875 -20,4.875z" transform="matrix(1,0,0,-1,21,4.875)" fill="rgb(0,0,0)" stroke-linecap="round" stroke-linejoin="round" /><path d="M-15,-4.375 L-18,-4.375 -18,-3.875 -15,-3.875 -15,-4.375z" transform="matrix(1,0,0,-1,21,4.875)" fill="rgb(255,255,255)" stroke="rgb(0,0,0)" stroke-width="0.0010cm" stroke-linecap="round" stroke-linejoin="round" /><path d="M-9,-4.375 L-12,-4.375 -12,-3.875 -9,-3.875 -9,-4.375z" transform="matrix(1,0,0,-1,21,4.875)" fill="rgb(255,255,255)" stroke="rgb(0,0,0)" stroke-width="0.0010cm" stroke-linecap="round" stroke-linejoin="round" /><path d="M18,-4.375 L15,-4.375 15,-3.875 18,-3.875 18,-4.375z" transform="matrix(1,0,0,-1,21,4.875)" fill="rgb(255,255,255)" stroke="rgb(0,0,0)" stroke-width="0.0010cm" stroke-linecap="round" stroke-linejoin="round" /><path d="M12,-4.375 L9,-4.375 9,-3.875 12,-3.875 12,-4.375z" transform="matrix(1,0,0,-1,21,4.875)" fill="rgb(255,255,255)" stroke="rgb(0,0,0)" stroke-width="0.0010cm" stroke-linecap="round" stroke-linejoin="round" /></svg>