<?xml version="1.0" encoding="utf-8"?>
<!-- Generator: Fusion 360, Shaper Origin Export Add-In, Version 1.7.0  -->
<svg xmlns="http://www.w3.org/2000/svg" xmlns:xlink="http://www.w3.org/1999/xlink" xmlns:shaper="http://www.shapertools.com/namespaces/shaper" shaper:fusionaddin="version:1.7.0" width="42cm" height="23cm" version="1.1" x="0cm" y="0cm" viewBox="0 0 42 23" enable-background="new 0 0 42 23" xml:space="preserve"><path d="M-3.03,-7.44 L3.03,-7.44 6.075,-11.5 21,-11.5 21,-4.8333333 20,-4.8333333 20,-1.75 20.5,-1.75 20.5,1.3333333 21,1.3333333 21,7 6,7 6,7.5 3,11.5 -3,11.5 -6,7.5 -6,7 -21,7 -21,1.3333333 -20.5,1.3333333 -20.5,-1.75 -20,-1.75 -20,-4.8333333 -21,-4.8333333 -21,-11.5 -6.075,-11.5 -3.03,-7.44z" transform="matrix(1,0,0,-1,21,11.5)" fill="rgb(0,0,0)" stroke-linecap="round" stroke-linejoin="round" /><path d="M-12,-10.5 L-9,-10.5 -9,-11 -12,-11 -12,-10.5z" transform="matrix(1,0,0,-1,21,11.5)" fill="rgb(255,255,255)" stroke="rgb(0,0,0)" stroke-width="0.0010cm" stroke-linecap="round" stroke-linejoin="round" /><path d="M-18,-10.5 L-15,-10.5 -15,-11 -18,-11 -18,-10.5z" transform="matrix(1,0,0,-1,21,11.5)" fill="rgb(255,255,255)" stroke="rgb(0,0,0)" stroke-width="0.0010cm" stroke-linecap="round" stroke-linejoin="round" /><path d="M15,-10.5 L18,-10.5 18,-11 15,-11 15,-10.5z" transform="matrix(1,0,0,-1,21,11.5)" fill="rgb(255,255,255)" stroke="rgb(0,0,0)" stroke-width="0.0010cm" stroke-linecap="round" stroke-linejoin="round" /><path d="M9,-10.5 L12,-10.5 12,-11 9,-11 9,-10.5z" transform="matrix(1,0,0,-1,21,11.5)" fill="rgb(255,255,255)" stroke="rgb(0,0,0)" stroke-width="0.0010cm" stroke-linecap="round" stroke-linejoin="round" /></svg>