<?xml version="1.0" encoding="UTF-8" standalone="no"?>
<!-- Generator: Fusion 360, Shaper Origin Export Add-In, Version 1.7.0  -->

<svg
   shaper:fusionaddin="version:1.7.0"
   width="29cm"
   height="20.75cm"
   version="1.1"
   x="0cm"
   y="0cm"
   viewBox="0 0 29 20.75"
   enable-background="new 0 0 29 20.75"
   xml:space="preserve"
   id="svg10"
   sodipodi:docname="cote_G_ext_h190_ep5_v2.svg"
   inkscape:version="1.1.2 (0a00cf5339, 2022-02-04)"
   xmlns:inkscape="http://www.inkscape.org/namespaces/inkscape"
   xmlns:sodipodi="http://sodipodi.sourceforge.net/DTD/sodipodi-0.dtd"
   xmlns="http://www.w3.org/2000/svg"
   xmlns:svg="http://www.w3.org/2000/svg"
   xmlns:shaper="http://www.shapertools.com/namespaces/shaper"><defs
     id="defs14" /><sodipodi:namedview
     id="namedview12"
     pagecolor="#ffffff"
     bordercolor="#666666"
     borderopacity="1.0"
     inkscape:pageshadow="2"
     inkscape:pageopacity="0.0"
     inkscape:pagecheckerboard="0"
     inkscape:document-units="cm"
     showgrid="false"
     inkscape:zoom="0.99712851"
     inkscape:cx="548.07379"
     inkscape:cy="392.62742"
     inkscape:window-width="1870"
     inkscape:window-height="1016"
     inkscape:window-x="0"
     inkscape:window-y="0"
     inkscape:window-maximized="1"
     inkscape:current-layer="svg10" /><g
     id="g943"><path
       d="M-14.5,-3.8926231 L-13.5,-3.8926231 -13.5,-10.5592898 8.9854529,-10.5592898 A2.03,2.03 172.9259104 0,0 13.0145471,-10.5592898 L13.5,-10.5592898 13.5,-3.8926231 14.5,-3.8926231 14.5,2.2740435 14,2.2740435 14,7.9407102 12.9843135,7.9407102 A2,2 352.8192442 1,1 9.0156865,7.9407102 L-14,7.9407102 -14,2.2740435 -14.5,2.2740435 -14.5,-3.8926231z"
       transform="matrix(1,0,0,-1,14.5,10.1907102)"
       fill="rgb(0,0,0)"
       stroke-linecap="round"
       stroke-linejoin="round"
       id="path2"
       style="fill:none;stroke:#ff0000;stroke-opacity:1;stroke-width:0.1;stroke-miterlimit:4;stroke-dasharray:none" /><path
       d="M-2.4166667,-9.5592898 L-2.4166667,-10.0592898 -7.25,-10.0592898 -7.25,-9.5592898 -2.4166667,-9.5592898z"
       transform="matrix(1,0,0,-1,14.5,10.1907102)"
       fill="rgb(255,255,255)"
       stroke="rgb(0,0,0)"
       stroke-width="0.0010cm"
       stroke-linecap="round"
       stroke-linejoin="round"
       id="path4"
       style="fill:none;stroke:#ff0000;stroke-opacity:1;stroke-width:0.1;stroke-miterlimit:4;stroke-dasharray:none" /><path
       d="M2.4166667,-10.0592898 L2.4166667,-9.5592898 7.25,-9.5592898 7.25,-10.0592898 2.4166667,-10.0592898z"
       transform="matrix(1,0,0,-1,14.5,10.1907102)"
       fill="rgb(255,255,255)"
       stroke="rgb(0,0,0)"
       stroke-width="0.0010cm"
       stroke-linecap="round"
       stroke-linejoin="round"
       id="path6"
       style="fill:none;stroke:#ff0000;stroke-opacity:1;stroke-width:0.1;stroke-miterlimit:4;stroke-dasharray:none" /><path
       d="M9.6,8.1907102 a1.4,1.4 0 1,1 2.8,0 a1.4,1.4 0 1,1 -2.8,0z"
       transform="matrix(1,0,0,-1,14.5,10.1907102)"
       fill="rgb(255,255,255)"
       stroke="rgb(0,0,0)"
       stroke-width="0.0010cm"
       stroke-linecap="round"
       stroke-linejoin="round"
       id="path8"
       style="fill:none;stroke:#ff0000;stroke-opacity:1;stroke-width:0.1;stroke-miterlimit:4;stroke-dasharray:none" /></g></svg>
