<?xml version="1.0" encoding="utf-8"?>
<!-- Generator: Fusion 360, Shaper Origin Export Add-In, Version 1.7.0  -->
<svg xmlns="http://www.w3.org/2000/svg" xmlns:xlink="http://www.w3.org/1999/xlink" xmlns:shaper="http://www.shapertools.com/namespaces/shaper" shaper:fusionaddin="version:1.7.0" width="29cm" height="20.75cm" version="1.1" x="0cm" y="0cm" viewBox="0 0 29 20.75" enable-background="new 0 0 29 20.75" xml:space="preserve"><path d="M-14.5,-3.8926231 L-13.5,-3.8926231 -13.5,-10.5592898 8.9854529,-10.5592898 A2.03,2.03 172.9259104 0,0 13.0145471,-10.5592898 L13.5,-10.5592898 13.5,-3.8926231 14.5,-3.8926231 14.5,2.2740435 14,2.2740435 14,7.9407102 12.9843135,7.9407102 A2,2 352.8192442 1,1 9.0156865,7.9407102 L-14,7.9407102 -14,2.2740435 -14.5,2.2740435 -14.5,-3.8926231z" transform="matrix(1,0,0,-1,14.5,10.1907102)" fill="rgb(0,0,0)" stroke-linecap="round" stroke-linejoin="round" /><path d="M-2.4166667,-9.5592898 L-2.4166667,-10.0592898 -7.25,-10.0592898 -7.25,-9.5592898 -2.4166667,-9.5592898z" transform="matrix(1,0,0,-1,14.5,10.1907102)" fill="rgb(255,255,255)" stroke="rgb(0,0,0)" stroke-width="0.0010cm" stroke-linecap="round" stroke-linejoin="round" /><path d="M2.4166667,-10.0592898 L2.4166667,-9.5592898 7.25,-9.5592898 7.25,-10.0592898 2.4166667,-10.0592898z" transform="matrix(1,0,0,-1,14.5,10.1907102)" fill="rgb(255,255,255)" stroke="rgb(0,0,0)" stroke-width="0.0010cm" stroke-linecap="round" stroke-linejoin="round" /><path d="M9.6,8.1907102 a1.4,1.4 0 1,1 2.8,0 a1.4,1.4 0 1,1 -2.8,0z" transform="matrix(1,0,0,-1,14.5,10.1907102)" fill="rgb(255,255,255)" stroke="rgb(0,0,0)" stroke-width="0.0010cm" stroke-linecap="round" stroke-linejoin="round" /></svg>