<?xml version="1.0" encoding="utf-8"?>
<!-- Generator: Fusion 360, Shaper Origin Export Add-In, Version 1.7.0  -->
<svg xmlns="http://www.w3.org/2000/svg" xmlns:xlink="http://www.w3.org/1999/xlink" xmlns:shaper="http://www.shapertools.com/namespaces/shaper" shaper:fusionaddin="version:1.7.0" width="29cm" height="9.75cm" version="1.1" x="0cm" y="0cm" viewBox="0 0 29 9.75" enable-background="new 0 0 29 9.75" xml:space="preserve"><path d="M13.5,4.875 L-13.5,4.875 -13.5,-1.7916667 -14.5,-1.7916667 -14.5,-4.875 14.5,-4.875 14.5,-1.7916667 13.5,-1.7916667 13.5,4.875z" transform="matrix(1,0,0,-1,14.5,4.875)" fill="rgb(0,0,0)" stroke-linecap="round" stroke-linejoin="round" /><path d="M-2.4166667,3.875 L-7.25,3.875 -7.25,4.375 -2.4166667,4.375 -2.4166667,3.875z" transform="matrix(1,0,0,-1,14.5,4.875)" fill="rgb(255,255,255)" stroke="rgb(0,0,0)" stroke-width="0.0010cm" stroke-linecap="round" stroke-linejoin="round" /><path d="M7.25,4.375 L7.25,3.875 2.4166667,3.875 2.4166667,4.375 7.25,4.375z" transform="matrix(1,0,0,-1,14.5,4.875)" fill="rgb(255,255,255)" stroke="rgb(0,0,0)" stroke-width="0.0010cm" stroke-linecap="round" stroke-linejoin="round" /></svg>