<?xml version="1.0" encoding="UTF-8" standalone="no"?>
<!-- Created with Inkscape (http://www.inkscape.org/) -->

<svg
   width="600mm"
   height="400mm"
   viewBox="0 0 600 400"
   version="1.1"
   id="svg5"
   inkscape:version="1.1.2 (0a00cf5339, 2022-02-04)"
   sodipodi:docname="planche_decoupe_N1-400-600_h120_ep5_v2.svg"
   inkscape:export-filename="/media/guillaume/D-PC/Autoentreprise/amorce/git/amorce/docs/Boites/images/nomenclature_pieces.png"
   inkscape:export-xdpi="94"
   inkscape:export-ydpi="94"
   xmlns:inkscape="http://www.inkscape.org/namespaces/inkscape"
   xmlns:sodipodi="http://sodipodi.sourceforge.net/DTD/sodipodi-0.dtd"
   xmlns="http://www.w3.org/2000/svg"
   xmlns:svg="http://www.w3.org/2000/svg">
  <sodipodi:namedview
     id="namedview7"
     pagecolor="#ffffff"
     bordercolor="#666666"
     borderopacity="1.0"
     inkscape:pageshadow="2"
     inkscape:pageopacity="0.0"
     inkscape:pagecheckerboard="0"
     inkscape:document-units="mm"
     showgrid="false"
     inkscape:zoom="0.25449098"
     inkscape:cx="1337.9649"
     inkscape:cy="931.27073"
     inkscape:window-width="1390"
     inkscape:window-height="863"
     inkscape:window-x="0"
     inkscape:window-y="0"
     inkscape:window-maximized="1"
     inkscape:current-layer="layer1" />
  <defs
     id="defs2">
    <rect
       x="174.33005"
       y="311.63858"
       width="284.87366"
       height="444.09555"
       id="rect3170" />
    <rect
       x="174.33005"
       y="311.63858"
       width="284.87366"
       height="444.09555"
       id="rect3170-3" />
    <rect
       x="174.33005"
       y="311.63858"
       width="284.87366"
       height="444.09555"
       id="rect3170-5" />
    <rect
       x="174.33005"
       y="311.63858"
       width="284.87366"
       height="444.09555"
       id="rect3170-2" />
    <rect
       x="174.33005"
       y="311.63858"
       width="284.87366"
       height="444.09555"
       id="rect3170-2-9" />
    <rect
       x="174.33005"
       y="311.63858"
       width="284.87366"
       height="444.09555"
       id="rect3170-36" />
    <rect
       x="174.33005"
       y="311.63858"
       width="284.87366"
       height="444.09555"
       id="rect3170-29" />
  </defs>
  <g
     inkscape:label="Calque 1"
     inkscape:groupmode="layer"
     id="layer1">
    <rect
       style="fill:#ffffff;stroke:#fffb00;stroke-width:0.875352;stroke-linecap:round;stroke-linejoin:round;stroke-miterlimit:4;stroke-dasharray:none;stroke-opacity:1;fill-opacity:1"
       id="rect1719"
       width="599.12469"
       height="399.12463"
       x="0.43767601"
       y="0.43767601"
       ry="0" />
    <text
       xml:space="preserve"
       transform="matrix(0.26458333,0,0,0.26458333,-12.852177,128.8466)"
       id="text3168"
       style="font-style:normal;font-variant:normal;font-weight:normal;font-stretch:normal;font-size:133.333px;line-height:201.496px;font-family:Montserrat;-inkscape-font-specification:Montserrat;letter-spacing:0px;word-spacing:0px;white-space:pre;shape-inside:url(#rect3170);fill:#ff00ff;fill-opacity:1;stroke:none"><tspan
         x="174.33008"
         y="451.59904"
         id="tspan1157"><tspan
           style="font-weight:bold;-inkscape-font-specification:'Montserrat Bold'"
           id="tspan1155">1A</tspan></tspan></text>
    <text
       xml:space="preserve"
       transform="matrix(0.26458333,0,0,0.26458333,285.88375,128.8466)"
       id="text3168-9"
       style="font-style:normal;font-variant:normal;font-weight:normal;font-stretch:normal;font-size:133.333px;line-height:201.496px;font-family:Montserrat;-inkscape-font-specification:Montserrat;letter-spacing:0px;word-spacing:0px;white-space:pre;shape-inside:url(#rect3170-5);fill:#ff00ff;fill-opacity:1;stroke:none"><tspan
         x="174.33008"
         y="451.59904"
         id="tspan1161"><tspan
           style="font-weight:bold;-inkscape-font-specification:'Montserrat Bold'"
           id="tspan1159">1B</tspan></tspan></text>
    <text
       xml:space="preserve"
       transform="matrix(0.26458333,0,0,0.26458333,287.36942,-69.367866)"
       id="text3168-8-7"
       style="font-style:normal;font-variant:normal;font-weight:normal;font-stretch:normal;font-size:133.333px;line-height:201.496px;font-family:Montserrat;-inkscape-font-specification:Montserrat;letter-spacing:0px;word-spacing:0px;white-space:pre;shape-inside:url(#rect3170-2-9);fill:#ff00ff;fill-opacity:1;stroke:none"><tspan
         x="174.33008"
         y="451.59904"
         id="tspan1165"><tspan
           style="font-weight:bold;-inkscape-font-specification:'Montserrat Bold'"
           id="tspan1163">2B</tspan></tspan></text>
    <text
       xml:space="preserve"
       transform="matrix(0.26458333,0,0,0.26458333,75.132237,32.887034)"
       id="text3168-1"
       style="font-style:normal;font-variant:normal;font-weight:normal;font-stretch:normal;font-size:133.333px;line-height:201.496px;font-family:Montserrat;-inkscape-font-specification:Montserrat;letter-spacing:0px;word-spacing:0px;white-space:pre;shape-inside:url(#rect3170-36);fill:#ff00ff;fill-opacity:1;stroke:none"><tspan
         x="174.33008"
         y="451.59904"
         id="tspan1169"><tspan
           style="font-weight:bold;-inkscape-font-specification:'Montserrat Bold'"
           id="tspan1167">3A</tspan></tspan></text>
    <g
       id="g1061"
       transform="matrix(-10,0,0,-10,296.82296,393.96549)">
      <path
         d="m -13.5,3.8926231 h -1 V -2.2740435 H -14 V -7.9407102 H 9.0156865 a 2,2 172.81924 1 1 3.9686275,0 H 14 v 5.6666667 h 0.5 v 6.1666666 h -1 V 10.55929 h -0.485453 a 2.03,2.03 -7.0740896 0 0 -4.0290941,0 H -13.5 Z"
         transform="matrix(1,0,0,-1,14.5,10.55929)"
         fill="rgb(0,0,0)"
         stroke-linecap="round"
         stroke-linejoin="round"
         id="path2"
         style="fill:none;stroke:#ff0000;stroke-width:0.1;stroke-miterlimit:4;stroke-dasharray:none;stroke-opacity:1" />
      <path
         d="M -2.4166667,10.05929 V 9.5592898 H -7.25 V 10.05929 Z"
         transform="matrix(1,0,0,-1,14.5,10.55929)"
         fill="rgb(255,255,255)"
         stroke="rgb(0,0,0)"
         stroke-width="0.0010cm"
         stroke-linecap="round"
         stroke-linejoin="round"
         id="path4"
         style="fill:none;stroke:#ff0000;stroke-width:0.1;stroke-miterlimit:4;stroke-dasharray:none;stroke-opacity:1" />
      <path
         d="M 2.4166667,9.5592898 V 10.05929 H 7.25 V 9.5592898 Z"
         transform="matrix(1,0,0,-1,14.5,10.55929)"
         fill="rgb(255,255,255)"
         stroke="rgb(0,0,0)"
         stroke-width="0.0010cm"
         stroke-linecap="round"
         stroke-linejoin="round"
         id="path6"
         style="fill:none;stroke:#ff0000;stroke-width:0.1;stroke-miterlimit:4;stroke-dasharray:none;stroke-opacity:1" />
      <path
         d="m 9.6,-8.1907102 a 1.4,1.4 0 1 1 2.8,0 1.4,1.4 0 1 1 -2.8,0 z"
         transform="matrix(1,0,0,-1,14.5,10.55929)"
         fill="rgb(255,255,255)"
         stroke="rgb(0,0,0)"
         stroke-width="0.0010cm"
         stroke-linecap="round"
         stroke-linejoin="round"
         id="path8"
         style="fill:none;stroke:#ff0000;stroke-width:0.1;stroke-miterlimit:4;stroke-dasharray:none;stroke-opacity:1" />
    </g>
    <g
       id="g943"
       transform="matrix(10,0,0,10,302.99132,185.31826)">
      <path
         d="m -14.5,-3.8926231 h 1 V -10.55929 H 8.9854529 a 2.03,2.03 172.92591 0 0 4.0290941,0 H 13.5 v 6.6666669 h 1 V 2.2740435 H 14 v 5.6666667 h -1.015686 a 2,2 -7.1807558 1 1 -3.9686275,0 H -14 V 2.2740435 h -0.5 z"
         transform="matrix(1,0,0,-1,14.5,10.19071)"
         fill="rgb(0,0,0)"
         stroke-linecap="round"
         stroke-linejoin="round"
         id="path2-3"
         style="fill:none;stroke:#ff0000;stroke-width:0.1;stroke-miterlimit:4;stroke-dasharray:none;stroke-opacity:1" />
      <path
         d="M -2.4166667,-9.5592898 V -10.05929 H -7.25 v 0.5000002 z"
         transform="matrix(1,0,0,-1,14.5,10.19071)"
         fill="rgb(255,255,255)"
         stroke="rgb(0,0,0)"
         stroke-width="0.0010cm"
         stroke-linecap="round"
         stroke-linejoin="round"
         id="path4-6"
         style="fill:none;stroke:#ff0000;stroke-width:0.1;stroke-miterlimit:4;stroke-dasharray:none;stroke-opacity:1" />
      <path
         d="m 2.4166667,-10.05929 v 0.5000002 H 7.25 V -10.05929 Z"
         transform="matrix(1,0,0,-1,14.5,10.19071)"
         fill="rgb(255,255,255)"
         stroke="rgb(0,0,0)"
         stroke-width="0.0010cm"
         stroke-linecap="round"
         stroke-linejoin="round"
         id="path6-7"
         style="fill:none;stroke:#ff0000;stroke-width:0.1;stroke-miterlimit:4;stroke-dasharray:none;stroke-opacity:1" />
      <path
         d="m 9.6,8.1907102 a 1.4,1.4 0 1 1 2.8,0 1.4,1.4 0 1 1 -2.8,0 z"
         transform="matrix(1,0,0,-1,14.5,10.19071)"
         fill="rgb(255,255,255)"
         stroke="rgb(0,0,0)"
         stroke-width="0.0010cm"
         stroke-linecap="round"
         stroke-linejoin="round"
         id="path8-5"
         style="fill:none;stroke:#ff0000;stroke-width:0.1;stroke-miterlimit:4;stroke-dasharray:none;stroke-opacity:1" />
    </g>
    <path
       id="path10"
       style="fill:none;stroke:#ff0000;stroke-width:1;stroke-miterlimit:4;stroke-dasharray:none;stroke-opacity:1"
       d="m 402.64681,112.874 h 30 v 5 h -30 z m 60,0 h 30 v 5 h -30 z m -269.99999,0 h 29.99999 v 5 h -29.99999 z m -60,0 h 30 v 5 h -30 z m -20,61.66667 V 205.374 h 399.99999 v -30.83333 h 10 V 107.874 H 102.64682 v 66.66667 z" />
    <text
       xml:space="preserve"
       transform="matrix(0.26458333,0,0,0.26458333,-8.3878156,-69.367866)"
       id="text3168-8"
       style="font-style:normal;font-variant:normal;font-weight:normal;font-stretch:normal;font-size:133.333px;line-height:201.496px;font-family:Montserrat;-inkscape-font-specification:Montserrat;letter-spacing:0px;word-spacing:0px;white-space:pre;shape-inside:url(#rect3170-2);fill:#ff00ff;fill-opacity:1;stroke:none"><tspan
         x="174.33008"
         y="451.59904"
         id="tspan1173"><tspan
           style="font-weight:bold;-inkscape-font-specification:'Montserrat Bold'"
           id="tspan1171">2A</tspan></tspan></text>
    <g
       id="g1854"
       transform="matrix(10,0,0,10,5.9801444,4.8562183)">
      <path
         d="m -13.5,-4.875 h 27 v 6.6666667 h 1 V 4.875 h -29 V 1.7916667 h 1 z"
         transform="matrix(1,0,0,-1,14.5,4.875)"
         fill="rgb(0,0,0)"
         stroke-linecap="round"
         stroke-linejoin="round"
         id="path2-35"
         style="fill:none;stroke:#ff0000;stroke-width:0.1;stroke-miterlimit:4;stroke-dasharray:none;stroke-opacity:1" />
      <path
         d="m -7.25,-3.875 h 4.8333333 v -0.5 H -7.25 Z"
         transform="matrix(1,0,0,-1,14.5,4.875)"
         fill="rgb(255,255,255)"
         stroke="rgb(0,0,0)"
         stroke-width="0.0010cm"
         stroke-linecap="round"
         stroke-linejoin="round"
         id="path4-62"
         style="fill:none;stroke:#ff0000;stroke-width:0.1;stroke-miterlimit:4;stroke-dasharray:none;stroke-opacity:1" />
      <path
         d="m 7.25,-3.875 v -0.5 H 2.4166667 v 0.5 z"
         transform="matrix(1,0,0,-1,14.5,4.875)"
         fill="rgb(255,255,255)"
         stroke="rgb(0,0,0)"
         stroke-width="0.0010cm"
         stroke-linecap="round"
         stroke-linejoin="round"
         id="path6-9"
         style="fill:none;stroke:#ff0000;stroke-width:0.1;stroke-miterlimit:4;stroke-dasharray:none;stroke-opacity:1" />
    </g>
    <path
       id="path6-1"
       style="fill:none;stroke:#ff0000;stroke-width:1;stroke-miterlimit:4;stroke-dasharray:none;stroke-opacity:1"
       d="m 373.99278,97.816537 v -5 h 48.33333 v 5 z m 96.66667,-5 h 48.33333 v 5 H 470.65945 Z M 311.49278,102.81654 h 270 V 36.149877 h 10 V 5.3165368 h -290 V 36.149877 h 10 z" />
  </g>
</svg>
