<?xml version="1.0" encoding="UTF-8" standalone="no"?>
<!-- Created with Inkscape (http://www.inkscape.org/) -->

<svg
   width="600mm"
   height="430mm"
   viewBox="0 0 600 430"
   version="1.1"
   id="svg5"
   inkscape:version="1.1.2 (0a00cf5339, 2022-02-04)"
   sodipodi:docname="planche_decoupe_N3-430-600_h190_ep5_v2.svg"
   xmlns:inkscape="http://www.inkscape.org/namespaces/inkscape"
   xmlns:sodipodi="http://sodipodi.sourceforge.net/DTD/sodipodi-0.dtd"
   xmlns="http://www.w3.org/2000/svg"
   xmlns:svg="http://www.w3.org/2000/svg">
  <sodipodi:namedview
     id="namedview7"
     pagecolor="#ffffff"
     bordercolor="#666666"
     borderopacity="1.0"
     inkscape:pageshadow="2"
     inkscape:pageopacity="0.0"
     inkscape:pagecheckerboard="0"
     inkscape:document-units="mm"
     showgrid="false"
     inkscape:zoom="0.25449098"
     inkscape:cx="1029.506"
     inkscape:cy="1306.5296"
     inkscape:window-width="1870"
     inkscape:window-height="1016"
     inkscape:window-x="0"
     inkscape:window-y="0"
     inkscape:window-maximized="1"
     inkscape:current-layer="layer1" />
  <defs
     id="defs2">
    <rect
       x="174.33005"
       y="311.63858"
       width="284.87366"
       height="444.09555"
       id="rect3170" />
    <rect
       x="174.33005"
       y="311.63858"
       width="524.40112"
       height="444.09555"
       id="rect3170-3" />
    <rect
       x="174.33005"
       y="311.63858"
       width="284.87366"
       height="444.09555"
       id="rect3170-35" />
    <rect
       x="174.33005"
       y="311.63858"
       width="284.87366"
       height="444.09555"
       id="rect3170-35-2" />
    <rect
       x="174.33005"
       y="311.63858"
       width="284.87366"
       height="444.09555"
       id="rect3170-36" />
  </defs>
  <g
     inkscape:label="Calque 1"
     inkscape:groupmode="layer"
     id="layer1">
    <rect
       style="fill:#ffffff;stroke:#deff0b;stroke-width:0.959289;stroke-linecap:round;stroke-linejoin:round;stroke-miterlimit:4;stroke-dasharray:none;stroke-opacity:1;fill-opacity:1"
       id="rect1363"
       width="599.04071"
       height="429.04071"
       x="0.47964451"
       y="0.47964451"
       ry="0" />
    <rect
       style="fill:none;fill-opacity:1;stroke:#ffff00;stroke-width:2.39e-06;stroke-linecap:round;stroke-linejoin:round;stroke-miterlimit:4;stroke-dasharray:none;stroke-opacity:1"
       id="rect976"
       width="598.58691"
       height="428.58694"
       x="0.48011553"
       y="0.70652521"
       inkscape:export-filename="/media/guillaume/D-PC/Autoentreprise/amorce/git/amorce/docs/Boites/images/nomenclature_pieces3.png"
       inkscape:export-xdpi="94"
       inkscape:export-ydpi="94" />
    <text
       xml:space="preserve"
       transform="matrix(0.26458333,0,0,0.26458333,216.56155,-68.958698)"
       id="text3168"
       style="font-style:normal;font-variant:normal;font-weight:normal;font-stretch:normal;font-size:133.333px;line-height:201.496px;font-family:Montserrat;-inkscape-font-specification:Montserrat;letter-spacing:0px;word-spacing:0px;white-space:pre;shape-inside:url(#rect3170);fill:none;fill-opacity:1;stroke:#ff00f7;stroke-width:6.29291;stroke-miterlimit:4;stroke-dasharray:none;stroke-opacity:1"><tspan
         x="174.33008"
         y="451.59904"
         id="tspan1133"><tspan
           style="font-weight:bold;-inkscape-font-specification:'Montserrat Bold'"
           id="tspan1131">7A</tspan></tspan></text>
    <text
       xml:space="preserve"
       transform="matrix(0.26458333,0,0,0.26458333,20.074301,-68.958698)"
       id="text3168-6"
       style="font-style:normal;font-variant:normal;font-weight:normal;font-stretch:normal;font-size:133.333px;line-height:201.496px;font-family:Montserrat;-inkscape-font-specification:Montserrat;letter-spacing:0px;word-spacing:0px;white-space:pre;shape-inside:url(#rect3170-3);fill:none;fill-opacity:1;stroke:#ff00f7;stroke-width:6.29291;stroke-miterlimit:4;stroke-dasharray:none;stroke-opacity:1"><tspan
         x="174.33008"
         y="451.59904"
         id="tspan1137"><tspan
           style="font-weight:bold;-inkscape-font-specification:'Montserrat Bold'"
           id="tspan1135">7B</tspan></tspan></text>
    <path
       id="path10-6"
       d="m 537.52376,95.5 v 30 h -5 v -30 z m 0,-60 v 30 h -5 v -30 z m 0,269.99999 V 335.5 h -5 v -30.00001 z m 0,60.00001 v 30 h -5 v -30 z m -92.5,50 h 30.83333 v 10 h 66.66667 V 5.5 h -66.66667 v 10 h -30.83333 z"
       style="fill:none;stroke:#ff0000;stroke-width:1;stroke-miterlimit:4;stroke-dasharray:none;stroke-opacity:1" />
    <text
       xml:space="preserve"
       transform="matrix(0.26458333,0,0,0.26458333,414.24006,-68.958698)"
       id="text3168-1"
       style="font-style:normal;font-variant:normal;font-weight:normal;font-stretch:normal;font-size:133.333px;line-height:201.496px;font-family:Montserrat;-inkscape-font-specification:Montserrat;letter-spacing:0px;word-spacing:0px;white-space:pre;shape-inside:url(#rect3170-36);fill:none;fill-opacity:1;stroke:#ff00f7;stroke-width:6.29291;stroke-miterlimit:4;stroke-dasharray:none;stroke-opacity:1"><tspan
         x="174.33008"
         y="451.59904"
         id="tspan1141"><tspan
           style="font-weight:bold;-inkscape-font-specification:'Montserrat Bold'"
           id="tspan1139">3B</tspan></tspan></text>
    <path
       id="path4"
       style="fill:none;stroke:#ff0000;stroke-width:1;stroke-miterlimit:4;stroke-dasharray:none;stroke-opacity:1"
       d="m 421.47519,223.38998 v 13.33333 h -5 v -13.33333 z m -2.5,20.56667 a 13.9,13.9 0 1 0 0,-27.8 13.9,13.9 0 1 0 0,27.8 z" />
    <path
       id="path4-6"
       style="fill:none;stroke:#ff0000;stroke-width:1;stroke-miterlimit:4;stroke-dasharray:none;stroke-opacity:1"
       d="m 421.47511,187.21079 v 13.33333 h -5 v -13.33333 z m -2.5,20.56666 a 13.9,13.9 0 1 0 0,-27.8 13.9,13.9 0 1 0 0,27.8 z" />
    <text
       xml:space="preserve"
       transform="matrix(0,-0.26458333,0.26458333,0,328.42445,303.69592)"
       id="text3168-62"
       style="font-style:normal;font-variant:normal;font-weight:normal;font-stretch:normal;font-size:96px;line-height:145.077px;font-family:Montserrat;-inkscape-font-specification:Montserrat;letter-spacing:0px;word-spacing:0px;white-space:pre;shape-inside:url(#rect3170-35);fill:none;fill-opacity:1;stroke:#ff00ff;stroke-width:4.02898;stroke-miterlimit:4;stroke-dasharray:none;stroke-opacity:1"><tspan
         x="174.33008"
         y="412.41015"
         id="tspan1145"><tspan
           style="font-weight:bold;-inkscape-font-specification:'Montserrat Bold'"
           id="tspan1143">8A</tspan></tspan></text>
    <text
       xml:space="preserve"
       transform="matrix(0,-0.26458333,0.26458333,0,328.42407,243.4579)"
       id="text3168-62-7"
       style="font-style:normal;font-variant:normal;font-weight:normal;font-stretch:normal;font-size:96px;line-height:145.077px;font-family:Montserrat;-inkscape-font-specification:Montserrat;letter-spacing:0px;word-spacing:0px;white-space:pre;shape-inside:url(#rect3170-35-2);fill:none;fill-opacity:1;stroke:#ff00ff;stroke-width:4.02898;stroke-miterlimit:4;stroke-dasharray:none;stroke-opacity:1"><tspan
         x="174.33008"
         y="412.41015"
         id="tspan1149"><tspan
           style="font-weight:bold;-inkscape-font-specification:'Montserrat Bold'"
           id="tspan1147">8B</tspan></tspan></text>
    <path
       id="path10"
       style="fill:none;stroke:#ff0000;stroke-width:1;stroke-miterlimit:4;stroke-dasharray:none;stroke-opacity:1"
       d="M 225.5,125.5 V 95.499998 h 5 V 125.5 Z m 0,-60 v -30 h 5 v 30 z m 0,330 v -30 h 5 v 30 z m 0,-60 v -30 h 5 v 30 z m -30.6,-89.7 v -60.6 l 40.6,-30.45 V 5.5 h -66.66667 v 10 H 138 v -5 h -30.83333 v -5 H 50.5 v 150 h -5 l -40,30 v 60 l 40,30 h 5 v 150 h 56.66667 v -5 H 138 v -5 h 30.83333 v 10 H 235.5 V 276.25 Z" />
    <path
       id="path10-3"
       style="fill:none;stroke:#ff0000;stroke-width:1;stroke-miterlimit:4;stroke-dasharray:none;stroke-opacity:1"
       d="M 420.9604,125.09943 V 95.099436 h 5 v 29.999994 z m 0,-59.999994 v -30 h 5 v 30 z m 0,329.999994 v -30 h 5 v 30 z m 0,-60 v -30 h 5 v 30 z m -30.6,-89.7 v -60.6 l 40.6,-30.45 V 5.0994363 H 364.29373 V 15.099436 H 333.4604 v -5 H 302.62707 V 5.0994363 H 245.9604 V 155.09943 h -5 l -40,30 v 60 l 40,30 h 5 v 150 h 56.66667 v -5 h 30.83333 v -5 h 30.83333 v 10 h 66.66667 v -149.25 z" />
  </g>
</svg>
