<?xml version="1.0" encoding="UTF-8" standalone="no"?>
<!-- Created with Inkscape (http://www.inkscape.org/) -->

<svg
   width="600mm"
   height="390mm"
   viewBox="0 0 600 390"
   version="1.1"
   id="svg5"
   inkscape:version="1.1.2 (0a00cf5339, 2022-02-04)"
   sodipodi:docname="planche_decoupe_N3-300-430_h120_ep5_v2.svg"
   xmlns:inkscape="http://www.inkscape.org/namespaces/inkscape"
   xmlns:sodipodi="http://sodipodi.sourceforge.net/DTD/sodipodi-0.dtd"
   xmlns="http://www.w3.org/2000/svg"
   xmlns:svg="http://www.w3.org/2000/svg">
  <sodipodi:namedview
     id="namedview7"
     pagecolor="#ffffff"
     bordercolor="#666666"
     borderopacity="1.0"
     inkscape:pageshadow="2"
     inkscape:pageopacity="0.0"
     inkscape:pagecheckerboard="0"
     inkscape:document-units="mm"
     showgrid="false"
     inkscape:zoom="0.1799523"
     inkscape:cx="861.33937"
     inkscape:cy="602.93756"
     inkscape:window-width="1870"
     inkscape:window-height="1016"
     inkscape:window-x="0"
     inkscape:window-y="0"
     inkscape:window-maximized="1"
     inkscape:current-layer="layer1" />
  <defs
     id="defs2">
    <rect
       x="174.33005"
       y="311.63858"
       width="284.87366"
       height="444.09555"
       id="rect3170" />
    <rect
       x="174.33005"
       y="311.63858"
       width="524.40112"
       height="444.09555"
       id="rect3170-3" />
    <rect
       x="174.33005"
       y="311.63858"
       width="284.87366"
       height="444.09555"
       id="rect3170-35" />
    <rect
       x="174.33005"
       y="311.63858"
       width="284.87366"
       height="444.09555"
       id="rect3170-35-2" />
    <rect
       x="174.33005"
       y="311.63858"
       width="284.87366"
       height="444.09555"
       id="rect3170-36" />
  </defs>
  <g
     inkscape:label="Calque 1"
     inkscape:groupmode="layer"
     id="layer1">
    <rect
       style="fill:#ffffff;fill-opacity:1;stroke:#ffff00;stroke-width:1.34568;stroke-linecap:round;stroke-linejoin:round;stroke-miterlimit:4;stroke-dasharray:none;stroke-opacity:1"
       id="rect976"
       width="598.6543"
       height="388.65433"
       x="0.4464345"
       y="0.67284417"
       inkscape:export-filename="/media/guillaume/D-PC/Autoentreprise/amorce/git/amorce/docs/Boites/images/nomenclature_pieces3.png"
       inkscape:export-xdpi="94"
       inkscape:export-ydpi="94" />
    <path
       id="path10"
       style="fill:none;stroke:#ff0000;stroke-width:1;stroke-miterlimit:4;stroke-dasharray:none;stroke-opacity:1"
       d="m 36.017977,154.77454 h 30 v 5 h -30 z m 270.000013,0 h 30 v 5 h -30 z m 60,0 h 30 v 5 h -30 z m -270.000005,0 h 30.000005 v 5 H 96.017985 Z m 89.700005,-30.6 h 60.6 l 30.45,40.6 h 149.25 v -43.33333 h -10 v -19.16667 h 5 V 83.107876 h 5 V 49.774548 h -150 v -5 l -30,-40.0000046 h -60 l -30,40.0000046 v 5 H 6.0179782 v 33.333328 h 4.9999998 v 19.166664 h 5 v 19.16667 H 6.0179782 v 43.33333 H 155.26799 Z" />
    <path
       id="path10-3"
       d="m 36.134049,276.4012 h 30 v 5 h -30 z m 270.000001,0 h 30 v 5 h -30 z m 60,0 h 30 v 5 h -30 z m -270.000001,0 h 30.000001 v 5 H 96.134049 Z m 89.700001,-30.6 h 60.6 l 30.45,40.6 h 149.25 v -43.33333 h -10 V 223.9012 h 5 v -19.16667 h 5 V 171.4012 h -150 v -5 l -30,-40 h -60 l -30,40 v 5 H 6.1340487 v 33.33333 h 5.0000003 v 19.16667 h 5 v 19.16667 H 6.1340487 V 286.4012 H 155.38405 Z"
       style="fill:none;stroke:#ff0000;stroke-width:1;stroke-miterlimit:4;stroke-dasharray:none;stroke-opacity:1" />
    <path
       id="path4"
       style="fill:none;stroke:#ff0000;stroke-width:1;stroke-miterlimit:4;stroke-dasharray:none;stroke-opacity:1"
       d="m 206.62222,269.07807 h -13.33333 v -5 h 13.33333 z m -20.56667,-2.5 a 13.9,13.9 0 1 0 27.8,0 13.9,13.9 0 1 0 -27.8,0 z" />
    <path
       id="path4-6"
       style="fill:none;stroke:#ff0000;stroke-width:1;stroke-miterlimit:4;stroke-dasharray:none;stroke-opacity:1"
       d="m 242.80141,269.07799 h -13.33333 v -5 h 13.33333 z m -20.56666,-2.5 a 13.9,13.9 0 1 0 27.8,0 13.9,13.9 0 1 0 -27.8,0 z" />
    <text
       xml:space="preserve"
       transform="matrix(0.26458333,0,0,0.26458333,-22.042052,-35.439926)"
       id="text3168"
       style="font-style:normal;font-variant:normal;font-weight:normal;font-stretch:normal;font-size:133.333px;line-height:201.496px;font-family:Montserrat;-inkscape-font-specification:Montserrat;letter-spacing:0px;word-spacing:0px;white-space:pre;shape-inside:url(#rect3170);fill:#ff00ff;fill-opacity:1;stroke:none"><tspan
         x="174.33008"
         y="451.59904"
         id="tspan1500"><tspan
           style="font-weight:bold;-inkscape-font-specification:'Montserrat Bold'"
           id="tspan1498">7A</tspan></tspan></text>
    <text
       xml:space="preserve"
       transform="matrix(0.26458333,0,0,0.26458333,-22.042052,89.861312)"
       id="text3168-6"
       style="font-style:normal;font-variant:normal;font-weight:normal;font-stretch:normal;font-size:133.333px;line-height:201.496px;font-family:Montserrat;-inkscape-font-specification:Montserrat;letter-spacing:0px;word-spacing:0px;white-space:pre;shape-inside:url(#rect3170-3);fill:#ff00ff;fill-opacity:1;stroke:none"><tspan
         x="174.33008"
         y="451.59904"
         id="tspan1504"><tspan
           style="font-weight:bold;-inkscape-font-specification:'Montserrat Bold'"
           id="tspan1502">7B</tspan></tspan></text>
    <text
       xml:space="preserve"
       transform="matrix(0.26458333,0,0,0.26458333,126.31628,176.02733)"
       id="text3168-62"
       style="font-style:normal;font-variant:normal;font-weight:normal;font-stretch:normal;font-size:96px;line-height:145.077px;font-family:Montserrat;-inkscape-font-specification:Montserrat;letter-spacing:0px;word-spacing:0px;white-space:pre;shape-inside:url(#rect3170-35);fill:#ff00ff;fill-opacity:1;stroke:none"><tspan
         x="174.33008"
         y="412.41015"
         id="tspan1508"><tspan
           style="font-weight:bold;-inkscape-font-specification:'Montserrat Bold'"
           id="tspan1506">8A</tspan></tspan></text>
    <text
       xml:space="preserve"
       transform="matrix(0.26458333,0,0,0.26458333,186.5543,176.02695)"
       id="text3168-62-7"
       style="font-style:normal;font-variant:normal;font-weight:normal;font-stretch:normal;font-size:96px;line-height:145.077px;font-family:Montserrat;-inkscape-font-specification:Montserrat;letter-spacing:0px;word-spacing:0px;white-space:pre;shape-inside:url(#rect3170-35-2);fill:#ff00ff;fill-opacity:1;stroke:none"><tspan
         x="174.33008"
         y="412.41015"
         id="tspan1512"><tspan
           style="font-weight:bold;-inkscape-font-specification:'Montserrat Bold'"
           id="tspan1510">8B</tspan></tspan></text>
    <path
       id="path10-6"
       d="m 336.134,381.42851 h -30 v -5 h 30 z m 60,0 h -30 v -5 h 30 z m -269.99999,0 H 96.134005 v -5 h 30.000005 z m -60.000005,0 H 36.134 v -5 h 30.000005 z m -50.000005,-92.5 v 30.83333 h -10 v 66.66667 h 420 v -66.66667 h -10 v -30.83333 z"
       style="fill:none;stroke:#ff0000;stroke-width:1;stroke-miterlimit:4;stroke-dasharray:none;stroke-opacity:1" />
    <text
       xml:space="preserve"
       transform="matrix(0.26458333,0,0,0.26458333,-21.089555,211.38604)"
       id="text3168-1"
       style="font-style:normal;font-variant:normal;font-weight:normal;font-stretch:normal;font-size:133.333px;line-height:201.496px;font-family:Montserrat;-inkscape-font-specification:Montserrat;letter-spacing:0px;word-spacing:0px;white-space:pre;shape-inside:url(#rect3170-36);fill:#ff00ff;fill-opacity:1;stroke:none"><tspan
         x="174.33008"
         y="451.59904"
         id="tspan1516"><tspan
           style="font-weight:bold;-inkscape-font-specification:'Montserrat Bold'"
           id="tspan1514">3B</tspan></tspan></text>
  </g>
</svg>
