<?xml version="1.0" encoding="UTF-8" standalone="no"?>
<!-- Generator: Fusion 360, Shaper Origin Export Add-In, Version 1.7.0  -->

<svg
   shaper:fusionaddin="version:1.7.0"
   width="42cm"
   height="16cm"
   version="1.1"
   x="0cm"
   y="0cm"
   viewBox="0 0 42 16"
   enable-background="new 0 0 42 16"
   xml:space="preserve"
   id="svg12"
   sodipodi:docname="face_ext_h120_ep5_v2.svg"
   inkscape:version="1.1.2 (0a00cf5339, 2022-02-04)"
   xmlns:inkscape="http://www.inkscape.org/namespaces/inkscape"
   xmlns:sodipodi="http://sodipodi.sourceforge.net/DTD/sodipodi-0.dtd"
   xmlns="http://www.w3.org/2000/svg"
   xmlns:svg="http://www.w3.org/2000/svg"
   xmlns:shaper="http://www.shapertools.com/namespaces/shaper"><defs
     id="defs16" /><sodipodi:namedview
     id="namedview14"
     pagecolor="#ffffff"
     bordercolor="#666666"
     borderopacity="1.0"
     inkscape:pageshadow="2"
     inkscape:pageopacity="0.0"
     inkscape:pagecheckerboard="0"
     inkscape:document-units="cm"
     showgrid="false"
     inkscape:zoom="0.30379636"
     inkscape:cx="1278.8172"
     inkscape:cy="587.56464"
     inkscape:window-width="1870"
     inkscape:window-height="1016"
     inkscape:window-x="0"
     inkscape:window-y="0"
     inkscape:window-maximized="1"
     inkscape:current-layer="svg12" /><path
     id="path10"
     transform="matrix(1,0,0,-1,21,8)"
     d="m -18,-7 h 3 v -0.5 h -3 z m 27,0 h 3 V -7.5 H 9 Z m 6,0 h 3 v -0.5 h -3 z m -27,0 h 3 v -0.5 h -3 z m 8.97,3.06 H 3.03 L 6.075,-8 H 21 v 4.3333333 H 20 V -1.75 h 0.5 V 0.1666667 H 21 V 3.5 H 6 V 4 L 3,8 H -3 L -6,4 V 3.5 H -21 V 0.1666667 h 0.5 V -1.75 h 0.5 v -1.9166667 h -1 V -8 h 14.925 z"
     style="fill:none;stroke:#ff0000;stroke-opacity:1;stroke-width:0.1;stroke-miterlimit:4;stroke-dasharray:none" /></svg>
