<?xml version="1.0" encoding="UTF-8" standalone="no"?>
<!-- Generator: Fusion 360, Shaper Origin Export Add-In, Version 1.7.0  -->

<svg
   shaper:fusionaddin="version:1.7.0"
   width="42cm"
   height="29cm"
   version="1.1"
   x="0cm"
   y="0cm"
   viewBox="0 0 42 29"
   enable-background="new 0 0 42 29"
   xml:space="preserve"
   id="svg4"
   sodipodi:docname="fond_h120_ep5_v2.svg"
   inkscape:version="1.1.2 (0a00cf5339, 2022-02-04)"
   xmlns:inkscape="http://www.inkscape.org/namespaces/inkscape"
   xmlns:sodipodi="http://sodipodi.sourceforge.net/DTD/sodipodi-0.dtd"
   xmlns="http://www.w3.org/2000/svg"
   xmlns:svg="http://www.w3.org/2000/svg"
   xmlns:shaper="http://www.shapertools.com/namespaces/shaper"><defs
     id="defs8" /><sodipodi:namedview
     id="namedview6"
     pagecolor="#ffffff"
     bordercolor="#666666"
     borderopacity="1.0"
     inkscape:pageshadow="2"
     inkscape:pageopacity="0.0"
     inkscape:pagecheckerboard="0"
     inkscape:document-units="cm"
     showgrid="false"
     inkscape:zoom="0.73718391"
     inkscape:cx="794.23872"
     inkscape:cy="547.35324"
     inkscape:window-width="1870"
     inkscape:window-height="1016"
     inkscape:window-x="0"
     inkscape:window-y="0"
     inkscape:window-maximized="1"
     inkscape:current-layer="svg4" /><path
     d="M20,7.25 L20,13.5 18,13.5 18,14.5 15,14.5 15,13.5 12,13.5 12,14.5 9,14.5 9,13.5 -9,13.5 -9,14.5 -12,14.5 -12,13.5 -15,13.5 -15,14.5 -18,14.5 -18,13.5 -20,13.5 -20,7.25 -21,7.25 -21,2.4166667 -20,2.4166667 -20,-2.4166667 -21,-2.4166667 -21,-7.25 -20,-7.25 -20,-13.5 -18,-13.5 -18,-14.5 -15,-14.5 -15,-13.5 -12,-13.5 -12,-14.5 -9,-14.5 -9,-13.5 9,-13.5 9,-14.5 12,-14.5 12,-13.5 15,-13.5 15,-14.5 18,-14.5 18,-13.5 20,-13.5 20,-7.25 21,-7.25 21,-2.4166667 20,-2.4166667 20,2.4166667 21,2.4166667 21,7.25 20,7.25z"
     transform="matrix(1,0,0,-1,21,14.5)"
     fill="rgb(0,0,0)"
     stroke-linecap="round"
     stroke-linejoin="round"
     id="path2"
     style="fill:none;fill-opacity:1;stroke:#ff0000;stroke-opacity:1;stroke-width:0.1;stroke-miterlimit:4;stroke-dasharray:none" /></svg>
